<svg xmlns="http://www.w3.org/2000/svg" viewBox="0 0 950 950"><defs><style>.cls-1{fill:#7dd3b9;}.cls-2{fill:#e6f4f4;}.cls-3{fill:#efc12e;}.cls-4{fill:none;stroke:#000;stroke-linecap:round;stroke-linejoin:round;stroke-width:5px;}</style></defs><title>coupon_book</title><g id="coupon"><circle class="cls-1" cx="475" cy="475" r="359.12"/><polygon class="cls-2" points="247.79 264.08 302.33 229.1 829.35 340.54 800.45 635.19 789.82 635.19 786.5 668.9 774.81 665.61 771.63 697.76 754.1 692.79 778.3 449.33 247.79 264.08"/><polygon class="cls-3" points="327.15 213.17 857.66 232.97 825.9 555.1 808.83 550.32 829.35 340.54 302.33 229.1 327.15 213.17"/><polygon class="cls-3" points="247.79 264.08 778.3 449.33 746.53 771.45 216.02 586.21 247.79 264.08"/><polygon points="327.15 213.17 327.15 213.18 302.33 229.1 247.79 264.09 124.1 229.47 203.47 178.55 216.01 182.06 257.54 193.68 327.15 213.17"/><polygon points="124.11 229.47 203.47 178.55 216.01 182.06 136.66 233.77 124.11 229.47"/><polygon points="92.34 551.61 216.02 586.21 247.79 264.08 124.11 229.47 92.34 551.61"/><polygon class="cls-4" points="216.02 586.21 92.34 551.61 124.11 229.47 247.79 264.08 216.02 586.21"/><polyline class="cls-4" points="216.02 586.21 746.53 771.45 778.3 449.33 247.79 264.08"/><polyline class="cls-4" points="754.28 692.89 771.63 697.76 800.52 404.75 153.28 223.09 152.45 222.84"/><line class="cls-4" x1="138.45" y1="231.82" x2="138.3" y2="233.44"/><line class="cls-4" x1="153.37" y1="222.25" x2="153.28" y2="223.09"/><polyline class="cls-4" points="774.81 665.61 786.5 668.9 815.4 375.88 168.09 213.87 166.94 213.55"/><polyline class="cls-4" points="183.03 203.22 200.66 207.02 325.12 233.77 829.35 342.17 808.83 550.32 800.45 635.19 791.94 633.36"/><line class="cls-4" x1="168.2" y1="212.74" x2="168.08" y2="213.87"/><polyline class="cls-4" points="203.47 178.55 216.01 182.06 327.15 213.16 325.12 233.77"/><polyline class="cls-4" points="327.16 213.17 857.66 232.97 825.9 555.1 808.83 550.32"/><line class="cls-4" x1="124.11" y1="229.47" x2="203.47" y2="178.55"/><line class="cls-4" x1="136.66" y1="232.97" x2="216.02" y2="182.05"/><path d="M453.56,571.19a96.66,96.66,0,0,1-10.69-9.58c-16.63-17.43-7.56-46,11.49-36.3h0c6.1,3.1,11.6,9.54,14,17.33q.17.55.38,1.1a16.57,16.57,0,0,0,8.17,8.64c6.52,3.31,11.31.47,12-5.59.51-4.23-2.36-9-6.37-12.61l-30.75-27.53C438.9,495,431.13,479,433.45,459.84c2.61-21.49,15.72-29.84,37-25.48,3.69.76,6.68-1.71,7.21-6.06l.07-.57c.63-5.21,4.71-7.62,9.1-5.38l7.05,3.58c4.39,2.23,7.44,8.26,6.81,13.47h0A14.36,14.36,0,0,0,506.07,452a95.76,95.76,0,0,1,8.54,7c16.93,15.69,9.22,44.62-9.39,35.17h0a25.9,25.9,0,0,1-11.91-13.63c-1.34-3.48-3.93-6.13-7.84-8.11-7-3.55-10.18-1.66-10.67,2.39s.86,7.85,8.15,14.29c10.13,8.85,23.35,19.28,32.1,28.61,13.27,14.16,18,29.26,16.08,45.25-3.16,26-19.23,32.64-41.85,26.48-3.86-1.05-7,1.52-7.57,6h0c-.64,5.25-4.75,7.69-9.18,5.43l-6.82-3.46c-4.48-2.28-7.59-8.43-6.95-13.74h0A14.53,14.53,0,0,0,453.56,571.19Z"/></g></svg>