<?xml version="1.0" encoding="utf-8"?>
<!-- Generator: Adobe Illustrator 23.0.0, SVG Export Plug-In . SVG Version: 6.00 Build 0)  -->
<svg version="1.1" xmlns="http://www.w3.org/2000/svg" xmlns:xlink="http://www.w3.org/1999/xlink" x="0px" y="0px" width="950px"
	 height="950px" viewBox="0 0 950 950" enable-background="new 0 0 950 950" xml:space="preserve">
<g id="pear">
</g>
<g id="pearson">
</g>
<g id="squash">
</g>
<g id="med">
</g>
<g id="coupon">
</g>
<g id="tukey">
</g>
<g id="galton">
</g>
<g id="fisher">
</g>
<g id="cox">
</g>
<g id="shark">
</g>
<g id="source">
</g>
<g id="Layer_13">
</g>
<g id="workspace">
	<circle fill="#949EFF" cx="475" cy="475" r="359.12"/>
	<g>
		<g id="XMLID_7_">
			<g>
				<path fill="#4F4747" d="M424.09,573.9c3.8,1.3,8.35,1,12.79-0.77c0,0-26.61,146.43-23.64,282.64
					c-46.44-1.57-91.72,9.03-140.85,16.45c-14.65,2.22-29.42,1.36-43.18-2.15c-18.03-91.79-39.61-136.55-47.69-151.02
					c0-0.02-0.01-0.03-0.01-0.03c-0.17-0.37-2.17-5.19-2.58-13.61l1.37-17.05c1.04-5.24,2.74-11.06,5.38-17.4l10.39-11.8
					c8.04-8.53,15.13-17.07,16.38-18.6c0.06-0.06,0.1-0.11,0.13-0.15c0.05-0.06,0.07-0.09,0.07-0.09c0.01-0.03,0.03-0.06,0.05-0.08
					c0.71-1.2,8.78-14.67,25.52-30.22c14.29-12.5,28.9-21.88,30.4-22.84c0.08-0.06,0.13-0.08,0.13-0.08
					c0.01-0.03,0.02-0.06,0.03-0.08c0.04-0.08,0.06-0.16,0.09-0.23c0.11-0.3,0.23-0.61,0.36-0.9c1.38-3.22,5.83-12.23,15.02-19.32
					c10.5-7.57,21.99-9.03,25.02-9.3c0.08-0.01,0.16-0.02,0.23-0.02c0.11-0.01,0.22-0.02,0.34-0.03c0.13-0.01,0.19-0.01,0.19-0.01
					l-4.4,12.29l-14,3.68c0,0,1.05,10.41,11.33,9.68c-0.32,0.17-0.64,0.33-0.98,0.5l-15.62,6.56c0,0,0,0.01-0.01,0.03
					c-0.17,0.61-2.86,10.27,2.9,15.01c2.54,2.35,6.83,3.58,13.97,2.12c0,0,0,0.01,0,0.02c0,0.43,0.12,6.81,6.75,7.5
					c2.47,0.38,5.84-0.1,10.44-2.18c0,0,4.64,9.28,14.18,8.4c3.77-0.19,8.23-2,13.28-6.72c0.01-0.02,0.03-0.03,0.05-0.05
					c0,0,11.38,9.84,22.57-0.49c0,0,0.05-0.09,0.13-0.28c1.31-2.65,12.64-24.28,45.48-47.48c0,0.01,0.01,0.02,0.01,0.03
					c0.63,1.9,1.64,3.62,3.07,5.05C420.56,572.27,422.24,573.28,424.09,573.9z"/>
				<path fill="#F4F4F4" d="M416.1,565.83c0.2,0.39,2.82,5.43,8.21,7.52l-0.22,0.55c-1.85-0.63-3.53-1.63-4.92-3.02
					C417.74,569.45,416.73,567.73,416.1,565.83z"/>
				<path fill="#F4F4F4" d="M573.44,539.12c0.68,1.12,1.3,2.2,1.83,3.22h0.01c3.91,7.32,4.7,12.07,4.7,12.07l-13.63,5.57l-4.85,1.98
					c0,0,0,0.01,0.01,0.02c0.25,0.52,6.32,13.39-0.63,17.86c-1.07,0.61-2.38,1.08-4,1.37c-4.88,0.66-8.69,2.27-11.54,4.04
					c-0.06,0.03-0.11,0.06-0.16,0.09c-4.66,2.73-6.44,5.63-6.73,6.18c-0.03,0.06-0.05,0.08-0.05,0.08l-23.87,0.39
					c2.2,3.59,3.39,6.67,3.92,9.27c0.04,0.15,0.06,0.29,0.07,0.44c0.89,7.34-3.72,11.6-3.99,11.84c-0.01,0.01-0.01,0.01-0.01,0.01
					l-15.4,1.54c-0.18,9.95-4.77,13.5-9.41,14.52c-0.02,0-0.04,0.01-0.06,0.01c-4.63,0.83-9.31-0.52-9.75-0.65
					c-0.03-0.01-0.04-0.01-0.04-0.01c-6.27-18.26-13.34-33.81-19.1-45.22c-0.03-0.06-0.06-0.13-0.09-0.18
					c-6.68-13.63-10.84-19.7-11.35-20.42c-0.03-0.05-0.05-0.06-0.05-0.06v-0.01c3.62-5.25,5.03-11.18,4-16.15
					c43.44-48.09,93.35-81.04,93.35-81.04c2.32-2.6,3.35-5.86,3.66-9.14h0.01l11.89-1.4l25.85,18.37c2.59,1.84,5.92,2.26,8.88,1.12
					l0.29-0.1c3.14-1.21,6.66-0.64,9.3,1.44c4.8,3.75,13.49,9.12,23.46,8.64c10.1-0.49,24.97,9.84,33.78,16.81
					c4.43,3.5,7.33,6.15,7.33,6.15s-1.89,1.81-5.28,3.71c0,0,0,0-0.01,0c-5.44,3.05-14.77,6.28-26.33,2.45
					c-0.02-0.01-0.04-0.01-0.06-0.02c-0.23,0.32-0.48,0.64-0.74,0.95c-7.64,9.39-24.69,15.32-25.79,15.69
					c-0.04,0.01-0.06,0.02-0.06,0.02c-16.76-3.36-37.9,4.93-40.62,6.03c-0.19,0.08-0.29,0.12-0.29,0.12c0,0.01,0.01,0.02,0.02,0.03
					C572.47,537.54,572.97,538.34,573.44,539.12z"/>
				<path fill="#4F4747" d="M739.97,649.7c6.6,59.7-12.2,121.94-57.14,169c-0.78,0.82-1.57,1.64-2.38,2.44
					c-16.44,16.71-35.49,29.9-56.07,39.37c0.45-52.84,5.15-115.43,7.03-138.77c0.52-6.43,3.09-12.5,7.28-17.4
					C673.73,663.39,712.47,651.85,739.97,649.7z"/>
				<path fill="#4F4747" d="M566.35,559.98l13.63-5.57c0,0,0.13-4.59-4.13-11.93c-1.03-1.77-2.31-3.7-3.92-5.76
					c-0.01-0.01-0.02-0.02-0.02-0.03c0,0,0.1-0.04,0.29-0.12c1.35-0.5,7.16-2.59,15.29-4.22h0.01c7.13-1.43,16.06-2.49,25.32-1.81
					c0,0,0.02-0.01,0.06-0.02c1.02-0.28,17.07-4.86,25.79-15.69c0.26-0.31,0.51-0.63,0.74-0.95c0,0,0.02,0.01,0.06,0.02
					c0.96,0.39,14.2,5.53,26.33-2.45c0.01,0,0.01,0,0.01,0s0.06,0.06,0.18,0.15c0.06,0.06,0.12,0.1,0.19,0.17
					c0.04,0.04,0.08,0.07,0.13,0.11c1.55,1.33,6.55,5.67,13.89,12.77c0.02,0.02,0.04,0.04,0.06,0.06
					c34.64,34.82,54.67,79.15,59.72,124.99c-27.5,2.15-66.24,13.69-101.28,54.64c-4.19,4.9-6.76,10.97-7.28,17.4
					c-1.89,23.35-6.58,85.93-7.03,138.77c-44.41,20.44-95.96,23.55-143.86,7.29c-23.04-7.83-45.29-11.3-67.29-12.03
					c-2.97-136.21,23.64-282.64,23.64-282.64c3.19-1.28,6.33-3.32,9.09-6.08c1.26-1.26,2.38-2.6,3.32-3.99c0,0,0.02,0.02,0.05,0.06
					c0.53,0.84,5.18,8.24,11.35,20.42c0.03,0.06,0.06,0.12,0.09,0.18c5.08,10.38,11.61,25.14,19.1,45.22c0,0,0.01,0,0.04,0.01
					c0.43,0.15,5.12,1.65,9.75,0.65c0.02,0,0.04-0.01,0.06-0.01c4.96-0.91,9.86-4.35,9.41-14.52l15.4-1.54c0,0,0,0,0.01-0.01
					c0.29-0.18,5.46-3.62,3.99-11.84c-0.02-0.15-0.04-0.29-0.07-0.44c-0.4-2.71-1.55-5.81-3.92-9.27l23.87-0.39
					c0,0,0.02-0.03,0.05-0.08c0.36-0.53,2.47-3.51,6.73-6.18c0.05-0.04,0.1-0.06,0.16-0.09c2.76-1.59,6.51-3.12,11.54-4.04
					c1.66-0.22,2.97-0.7,4-1.37c8.36-4.69,0.93-17.35,0.63-17.86c-0.01-0.01-0.01-0.02-0.01-0.02L566.35,559.98z"/>
				<path fill="#4F4747" d="M668.4,513.66c4.11,3.54,8.04,7.21,11.79,10.99c-7.34-7.1-12.35-11.44-13.89-12.77
					C666.75,512.24,667.45,512.84,668.4,513.66z"/>
				<path fill="#4F4747" d="M665.98,511.61c0.06,0.05,0.12,0.1,0.19,0.17C666.1,511.71,666.04,511.66,665.98,511.61z"/>
				<path fill="#F4F4F4" d="M631.01,188.26c-3.52,2.18-5.09,4.78-5.62,7.3c-0.99,4.69,2.21,9.81,6.78,11.26
					c29.05,9.18,18.57,40.35,18.57,40.35c22.53,21.47-9.1,38.91-9.1,38.91c26.84,19.18,8.63,42.48,8.63,42.48
					c24.44,34.66-19.18,40.44-19.18,40.44c9.59,16.29-9.58,18.85-9.58,18.85c-2.73,5.76-6,6.88-8.68,6.45
					c-2.97-0.46-5.22-2.8-5.22-2.8c-16.77,20.58-33.55,12.48-33.55,12.48c-0.07,0.1-0.14,0.19-0.21,0.29
					c-5.16,6.62-15.78,2.78-15.6-5.6l0.05-1.85c0.19-8.62,0-17.23-0.21-25.84c-0.52-21.25,14.84-28.7,14.84-28.7
					s-13.06-23.85,13.58-28.03c0,0-15.88-15.54-0.22-33.81c1.39-1.62,3.02-3.26,4.93-4.91c14.44-12.47,11.14-26.93,6.44-36.24
					c2.03-20.14,1.59-55.09-17.18-91.4c-28.02-56-73.63-77.72-115.93-81.28c-22.01-1.84-43.12,1.22-60.4,6.94
					c-4.4-3.06-8.42-3.93-11.83-3.73c-5.83,0.34-10.63,4.57-12.28,10.16c-0.64,2.15-1.71,4.71-3.54,7.16c0,0.01-0.01,0.01-0.01,0.01
					c-2.36,3.18-5.99,6.14-11.55,7.64c-5.98,1.62-12.36,0.87-17.96-1.79l-3.78-1.79l-6.92-3.28c-3.21-1.52-7.04-0.84-9.52,1.72
					c11.55-13.06,24.55-14.15,33.35-12.79c5.61,0.86,11.3-1.46,14.45-6.18c6.9-10.3,18.48-10.23,26.52-8.57
					c5.44,1.12,11.11-0.32,15.21-4.08c4.46-4.09,9.78-7.37,15.53-8.25c7.26-1.1,13.83,3.38,20.6,5.36
					c7.59,2.22,15.95,3.73,23.7,1.52c21.31-6.08,35.01,9.4,35.01,9.4c13.81-10.31,49.57,26.06,63.5,41.24
					c3.12,3.4,6.69,6.31,10.48,8.95c11.57,8.07,5.57,21,5.57,21c32.8-0.57,28.24,29.44,28.24,29.44
					c12.38,2.38,16.16,7.38,16.83,11.79C636.34,182.38,634.34,186.2,631.01,188.26z"/>
				<path fill="#1E1E1D" d="M604.53,417.33c-14.44,28.7-38.79,29.28-56.28,24.95c-11.82-2.92-20.51-8.08-20.89-8.3
					c-0.01-0.01-0.01-0.01-0.01-0.01l-2.14-21.17c1.41-2.05,2.77-4.15,4.09-6.31c0,0,47.75,41.69,83.52-12.19
					c2.68,0.42,5.96-0.69,8.68-6.45C621.51,387.85,617.43,404.39,604.53,417.33z"/>
				<path fill="#F4F4F4" d="M612.83,530.54c-9.25-0.68-18.18,0.39-25.32,1.81h-0.01c-8.13,1.63-13.94,3.72-15.29,4.22
					C574.92,535.47,596.07,527.18,612.83,530.54z"/>
				<path fill="#1E1E1D" d="M607.61,391.5c0,0,2.25,2.34,5.22,2.8c-35.77,53.88-83.52,12.19-83.52,12.19
					c24.06-39.18,33.18-93.6,47.75-132.56c2.63,2.85,5.67,5.14,9.22,6.51c-15.66,18.27,0.22,33.81,0.22,33.81
					c-26.64,4.18-13.58,28.03-13.58,28.03s-15.36,7.45-14.84,28.7c0.21,8.61,0.41,17.22,0.21,25.84l-0.05,1.85
					c-0.18,8.38,10.44,12.22,15.6,5.6c0.07-0.09,0.14-0.18,0.21-0.29C574.06,403.99,590.83,412.08,607.61,391.5z"/>
				<path fill="#1E1E1D" d="M465.52,106.98c0.14-8.5-0.03-16.79-0.26-23.57c1.33,0.12,115.21,10.5,130.77,167.41
					c0.54-2.92,1.15-6.82,1.62-11.53c4.7,9.31,7.99,23.77-6.44,36.24c-1.91,1.65-3.54,3.29-4.93,4.91
					c-3.55-1.37-6.59-3.65-9.22-6.51c0,0,0,0,0-0.01c-7.27-7.86-11.4-19.98-14.4-28.87c-10.51-31.15-31.62-56.29-59.32-73.74
					c-15.24-9.59-41.28-22.82-39.3-40.4c0-0.01,0-0.02,0-0.03c0.47-3.73,0.81-7.72,1.05-11.83
					C465.32,115.08,465.45,111.01,465.52,106.98z"/>
				<path fill="#1E1E1D" d="M580.48,147.9c18.77,36.31,19.21,71.26,17.18,91.4c-0.47,4.7-1.08,8.61-1.62,11.53
					C580.47,93.91,466.6,83.53,465.26,83.41c-0.33-9.32-0.8-15.72-0.8-15.72l0.08-1.07C506.84,70.18,552.45,91.9,580.48,147.9z"/>
				<path fill="#E5B6A8" d="M525.22,412.8c-13.42,19.5-31.19,34.41-56.2,40.39c-31.35,7.5-64.7-5.34-86.95-27.89
					c-4.33-4.38-8.24-9.13-11.63-14.17c-6.69-9.93-11.75-20.58-15.86-31.63v-0.01c-0.96-2.55-1.86-5.13-2.71-7.71h-0.01
					c-0.94-2.84-1.82-5.68-2.67-8.55c-0.01-0.02-0.01-0.03-0.02-0.05c-4.06-13.74-7.24-27.86-10.73-41.81
					c-0.92-3.68-1.87-7.35-2.85-11c-3.68-13.55-7.99-26.81-14.06-39.26c13.51-35.71,38.27-70.92,69.55-91.56
					c21.25-14.01,45.81-21.9,67.38-35.36c2.38-1.49,4.02-3.91,4.56-6.68c0.4-2.07,0.74-4.28,1.02-6.59
					c-1.98,17.57,24.06,30.8,39.3,40.4c27.7,17.45,48.81,42.59,59.32,73.74c3,8.89,7.13,21.01,14.4,28.87c0,0.01,0,0.01,0,0.01
					c-14.57,38.96-23.7,93.38-47.75,132.56C527.99,408.64,526.63,410.74,525.22,412.8z M410.62,262.06
					c-2.02-2.19-4.9-3.57-8.11-3.57c-2.3,0-4.45,0.71-6.2,1.92c-2.88,1.98-4.77,5.29-4.77,9.05c0,6.06,4.92,10.97,10.97,10.97
					s10.97-4.92,10.97-10.97C413.48,266.62,412.4,264.02,410.62,262.06z M502.43,263.57c-2.83,1.98-4.68,5.27-4.68,8.99
					c0,6.06,4.92,10.97,10.97,10.97c6.07,0,10.97-4.92,10.97-10.97c0-3.04-1.23-5.79-3.23-7.78c-1.98-1.98-4.71-3.19-7.74-3.19
					C506.38,261.58,504.21,262.32,502.43,263.57z"/>
				<path fill="#F4F4F4" d="M561.51,561.98c0.3,0.51,7.73,13.17-0.63,17.86C567.83,575.38,561.76,562.5,561.51,561.98z"/>
				<path fill="#4F4747" d="M548.25,442.28c0,0,2.75,7.23,2.04,14.44c-0.31,3.28-1.34,6.55-3.66,9.14c0,0-49.91,32.95-93.35,81.04
					c-0.52-2.53-1.68-4.82-3.5-6.64c-3.23-3.24-7.94-4.38-12.91-3.59c21.55-34.72,92.43-83.45,92.43-83.45l-1.94-19.25
					C527.74,434.2,536.43,439.36,548.25,442.28z"/>
				<path fill="#F4F4F4" d="M556.88,581.21c-5.04,0.92-8.78,2.45-11.54,4.04C548.19,583.49,552,581.88,556.88,581.21z"/>
				<path fill="#E5B6A8" d="M527.36,433.98l1.94,19.25c0,0-70.88,48.74-92.43,83.45v0.01c-3.37,0.52-6.85,1.94-10.06,4.21
					c-1.33,0.92-2.61,1.99-3.81,3.19c-1.27,1.27-2.38,2.62-3.34,4.02h-0.01l-23.6-21.09c-3.13-2.8-6.69-5.12-10.6-6.67
					c-5.19-2.07-13-7.36-13.11-20.48v-0.04l-0.15-19.73l-0.13-17.98c1.33-1.11,2.58-2.3,3.74-3.56c3.25-3.5,5.82-7.49,7.38-11.79
					c2.43-6.68,2.45-14.09-1.12-21.47c22.25,22.55,55.61,35.39,86.95,27.89c25.01-5.97,42.78-20.89,56.2-40.39L527.36,433.98
					C527.36,433.97,527.36,433.97,527.36,433.98z"/>
				<path d="M516.46,264.78c2,1.99,3.23,4.74,3.23,7.78c0,6.06-4.91,10.97-10.97,10.97c-6.06,0-10.97-4.92-10.97-10.97
					c0-3.72,1.85-7.01,4.68-8.99C506.59,262.99,511.28,263.22,516.46,264.78z"/>
				<path fill="#F4F4F4" d="M518.45,601.26c-0.53-2.61-1.72-5.68-3.92-9.27C516.91,595.46,518.06,598.56,518.45,601.26z"/>
				<path d="M508.72,261.58c3.03,0,5.76,1.22,7.74,3.19c-5.18-1.56-9.88-1.79-14.04-1.21C504.21,262.32,506.38,261.58,508.72,261.58
					z"/>
				<path fill="#F4F4F4" d="M479.92,628.97c0.44,0.14,5.12,1.48,9.75,0.65C485.03,630.61,480.35,629.11,479.92,628.97z"/>
				<path fill="#1E1E1D" d="M465.26,83.41c0.23,6.78,0.4,15.07,0.26,23.57c-0.06,4.03-0.2,8.1-0.43,12.08
					c-0.24,4.11-0.58,8.1-1.05,11.83c0,0.01,0,0.02,0,0.03c-0.29,2.31-0.63,4.52-1.02,6.59c-0.53,2.77-2.17,5.19-4.56,6.68
					c-21.57,13.46-46.13,21.35-67.38,35.36c-31.28,20.63-56.04,55.84-69.55,91.56h-0.01c0.01,0.01,0.01,0.03,0.01,0.04
					c0,0.44-3.19,1.91-3.47,2.05c-2.2,1.07-4.1,2.26-6.2,0.28c-0.84-0.79-1.45-1.79-2.15-2.69c-2.63-3.32-6.22-4.05-9.81-5.83
					c-4.57-2.26-2.57-5.75,0.23-8.59c3.67-3.73,5.62-8.89,4.95-14.09c-0.6-4.7-2.96-9.8-9.57-12.7c0,0,6.94-6.91-0.03-15.05
					c7.74-4.65,11.28-14.31,12.51-25.22c1.8-15.84,6.42-31.24,14.1-45.21c9.77-17.75,24.42-38.91,42.85-49.29
					c5.56-1.5,9.2-4.46,11.55-7.64c0,0,0.01,0,0.01-0.01c7.14-5.22,16.61-9.94,27.65-13.6c17.28-5.72,38.39-8.78,60.4-6.94
					l-0.08,1.07C464.46,67.68,464.93,74.09,465.26,83.41z"/>
				<path fill="#F4F4F4" d="M460.78,583.74c5.76,11.41,12.83,26.96,19.1,45.22C472.39,608.88,465.86,594.12,460.78,583.74z"/>
				<path fill="#F4F4F4" d="M453.28,546.91c1.03,4.97-0.38,10.9-4,16.15v0.01c-1.27,1.28-2.5,2.44-3.69,3.48l-7.05-9.68
					c3.66-3.66,4.41-8.87,1.66-11.62l9.58-4.98C451.61,542.09,452.77,544.38,453.28,546.91z"/>
				<path fill="#F4F4F4" d="M449.78,540.27l-9.58,4.98c-2.75-2.75-7.95-2.01-11.62,1.66l-1.77-6.01c3.21-2.26,6.69-3.68,10.06-4.21
					v-0.01C441.84,535.89,446.55,537.03,449.78,540.27z"/>
				<path fill="#F4F4F4" d="M449.29,563.07c-0.95,1.39-2.06,2.73-3.32,3.99l-0.37-0.51C446.78,565.51,448.02,564.35,449.29,563.07z"
					/>
				<path fill="#F4F4F4" d="M445.6,566.55l0.37,0.51c-2.75,2.75-5.89,4.8-9.09,6.08c-4.44,1.78-8.99,2.07-12.79,0.77l0.22-0.55
					C429.12,575.23,436.13,574.76,445.6,566.55z"/>
				<path fill="#F4F4F4" d="M438.54,556.87l7.05,9.68c-9.46,8.21-16.48,8.68-21.28,6.8l5.23-13.36
					C432.31,560.69,435.84,559.58,438.54,556.87z"/>
				<path fill="#F4F4F4" d="M429.54,559.99c-0.99-0.25-1.9-0.74-2.61-1.45c-1.08-1.08-1.62-2.53-1.66-4.12
					c-0.06-2.47,1.08-5.27,3.31-7.5c3.66-3.66,8.87-4.41,11.62-1.66c2.75,2.75,2.01,7.95-1.66,11.62
					C435.84,559.58,432.31,560.69,429.54,559.99z"/>
				<path fill="#F4F4F4" d="M429.54,559.99l-5.23,13.36c-5.39-2.09-8.01-7.13-8.21-7.52c0-0.01-0.01-0.02-0.01-0.03
					c-0.59-1.8-0.82-3.77-0.71-5.82l9.89-5.57c0.04,1.59,0.58,3.05,1.66,4.12C427.64,559.26,428.55,559.74,429.54,559.99z"/>
				<path fill="#F4F4F4" d="M426.82,540.9l1.77,6.01c-2.24,2.24-3.38,5.04-3.31,7.5l-9.89,5.57c0.2-3.89,1.67-8.06,4.28-11.87
					c0.96-1.4,2.07-2.75,3.34-4.02C424.21,542.89,425.49,541.82,426.82,540.9z"/>
				<path fill="#4F4747" d="M419.65,548.12L419.65,548.12c-2.61,3.8-4.07,7.97-4.27,11.87c-0.11,2.04,0.12,4.01,0.71,5.82
					l-22.51-20.68c-2.79-3.36-6.51-5.79-10.65-7.16c-3.84-1.27-8.68-4.81-10.41-14.37l-0.17-23.72
					c0.11,13.12,7.92,18.41,13.11,20.48c3.9,1.56,7.47,3.88,10.6,6.67L419.65,548.12z"/>
				<path fill="#F4F4F4" d="M302.99,582.85c-10.11,0.13-11.36-9.68-11.36-9.68l14-3.68l4.4-12.29l1.86-5.21
					c-7.83-2.76-3.84-11.05-3.84-11.05l8.38-4.44l32.76-17.35l0.14,0.03c6.78-33.38,20.6-38.71,22.87-39.08l0.15,19.73v0.04
					l0.17,23.72c1.73,9.57,6.57,13.1,10.41,14.37c4.14,1.37,7.86,3.8,10.65,7.16l22.51,20.68c-33.04,22.15-44.22,44.74-45.48,47.48
					c-0.08,0.18-0.13,0.28-0.13,0.28c-16.89,10.29-21.29-0.76-21.29-0.76c-0.43,0.44-0.86,0.86-1.28,1.25
					c-0.02,0.02-0.04,0.03-0.05,0.05c-5.17,4.51-9.58,6.37-13.28,6.72c-9.06,0.46-14.18-8.4-14.18-8.4
					c-4.6,1.91-7.98,2.44-10.44,2.18c-6.1-0.93-6.71-7.11-6.75-7.5c0-0.01,0-0.02,0-0.02c-7.05,1.16-11.37,0.03-13.97-2.12
					c-5.24-4.84-3.04-14.44-2.9-15.01c0.01-0.02,0.01-0.03,0.01-0.03c5.08-1.56,10.47-3.93,15.62-6.56l1.23-0.52
					C303.14,582.84,303.07,582.84,302.99,582.85z"/>
				<path d="M410.62,262.06c1.78,1.96,2.86,4.56,2.86,7.4c0,6.06-4.92,10.97-10.97,10.97s-10.97-4.92-10.97-10.97
					c0-3.76,1.89-7.07,4.77-9.05C401.98,259.76,406.72,260.55,410.62,262.06z"/>
				<path d="M402.51,258.49c3.21,0,6.09,1.38,8.11,3.57c-3.9-1.51-8.64-2.3-14.32-1.65C398.06,259.2,400.21,258.49,402.51,258.49z"
					/>
				<path fill="#F4F4F4" d="M392.31,69.83c3.41-0.2,7.43,0.67,11.83,3.73c-11.04,3.65-20.5,8.38-27.65,13.6
					c1.82-2.45,2.9-5.02,3.54-7.16C381.68,74.4,386.48,70.17,392.31,69.83z"/>
				<path fill="#1E1E1D" d="M382.06,425.3c3.57,7.37,3.55,14.79,1.12,21.47l-0.07-0.03c-24.92-6.32-12.68-35.61-12.68-35.61
					C373.82,416.17,377.74,420.92,382.06,425.3z"/>
				<path fill="#1E1E1D" d="M383.11,446.74l0.07,0.03c-1.57,4.3-4.13,8.29-7.38,11.79c0,0-33.22-7.49-32.63-41.23
					c0.17-10.1,3.37-22.55,11.4-37.84c4.12,11.06,9.17,21.7,15.86,31.63C370.44,411.13,358.19,440.41,383.11,446.74z"/>
				<path fill="#F4F4F4" d="M416.09,565.8c-32.84,23.2-44.17,44.82-45.48,47.48C371.87,610.54,383.05,587.95,416.09,565.8z"/>
				<path fill="#1E1E1D" d="M375.8,458.56c-1.16,1.26-2.41,2.45-3.74,3.56c-1.62,1.36-3.35,2.61-5.16,3.75
					c-1.86,1.16-3.77,2.16-5.71,3.01l-0.1-0.21c-31.6-10.11-17.92-51.33-17.92-51.33h0.01C342.59,451.07,375.8,458.56,375.8,458.56z
					"/>
				<path fill="#1E1E1D" d="M361.09,468.67l0.1,0.21c-2.18,0.96-4.4,1.72-6.64,2.3c-1.1-0.01-46.33-0.6-33.14-49.3
					c4.16-2.96,5.87-7.9,6.51-12.4c0.75-5.29,0-9.95,0-9.95s9.2-1.1,6.49-11.68c-2.71-10.57,8.52-17.54,17.45-16.07h0.01
					c0.85,2.59,1.75,5.16,2.71,7.71v0.01c-8.03,15.29-11.22,27.74-11.4,37.84h-0.01C343.17,417.33,329.5,458.56,361.09,468.67z"/>
				<path fill="#F4F4F4" d="M298.69,419.16c-4.4-5.54-3.14-13.39-3.14-13.39c-28.77,8.38-26.27-17.92-26.27-17.92
					c-34.71-24.63-6.83-69.77-6.83-69.77c-23.82-12.82-1.47-50.21-1.47-50.21c-13.69-34.96,4.92-64.03,4.92-64.03
					c-12.3-21.76,1-33.97,12.03-39.91c6.67-3.59,11.53-9.88,13.41-17.23c6.42-25.03,26.54-47.88,35.41-57.01
					c2.48-2.56,6.31-3.24,9.52-1.72l6.92,3.28l3.78,1.79c5.6,2.65,11.98,3.41,17.96,1.79c-18.42,10.38-33.08,31.54-42.85,49.29
					c-7.69,13.97-12.3,29.37-14.1,45.21c-1.23,10.91-4.77,20.57-12.51,25.22c6.97,8.14,0.03,15.05,0.03,15.05
					c6.62,2.9,8.98,8,9.57,12.7c0.66,5.19-1.28,10.36-4.95,14.09c-2.8,2.84-4.8,6.32-0.23,8.59c3.59,1.78,7.18,2.5,9.81,5.83
					c0.71,0.9,1.32,1.9,2.15,2.69c2.1,1.98,4,0.79,6.2-0.28c0.29-0.15,3.47-1.61,3.47-2.05c2.73,7.07,4.22,15.13,1.57,22.47
					c-0.63,1.74-2.46,6.47-4.57,7.14c9.32-2.96,17.05,9.6,17.05,9.6h0.01c0.99,3.65,1.93,7.32,2.85,11
					c-3.67,11.48-14.69,9.8-14.69,9.8s9.96,6.99,3,20.11c0,0,16.67-5.3,22.43,11.9c0.01,0.02,0.01,0.03,0.02,0.05
					c0.85,2.87,1.73,5.72,2.67,8.55c-8.92-1.46-20.15,5.51-17.45,16.07c2.71,10.58-6.49,11.68-6.49,11.68s0.75,4.66,0,9.95
					c-0.64,4.5-2.35,9.45-6.51,12.4c-2.32,1.65-5.39,2.67-9.47,2.65C305.12,424.5,301.07,422.17,298.69,419.16z"/>
				<path fill="#1E1E1D" d="M304.7,453.21c-6.12-8.67-8.99-19.75-6.45-32.12c0.24-1.16,0.42-1.84,0.45-1.93
					c2.38,3.01,6.43,5.34,13.25,5.38c4.08,0.02,7.15-1,9.47-2.65c-13.19,48.7,32.04,49.29,33.14,49.3
					c-18.88,4.95-39.25-2.91-49.85-17.95C304.7,453.23,304.7,453.22,304.7,453.21z"/>
				<path fill="#1E1E1D" d="M338.44,321.36c3.5,13.96,6.67,28.07,10.73,41.81c-5.75-17.21-22.43-11.9-22.43-11.9
					c6.96-13.12-3-20.11-3-20.11S334.76,332.84,338.44,321.36z"/>
				<path fill="#1E1E1D" d="M335.58,310.36L335.58,310.36c-0.01,0-7.74-12.57-17.06-9.6c2.11-0.67,3.94-5.4,4.57-7.14
					c2.65-7.34,1.16-15.4-1.57-22.47c0-0.01,0-0.03-0.01-0.04h0.01C327.59,283.55,331.9,296.81,335.58,310.36z"/>
				<path fill="#F4F4F4" d="M334.59,620.81c3.69-0.35,8.1-2.21,13.28-6.72C342.82,618.81,338.36,620.62,334.59,620.81z"/>
				<path fill="#F4F4F4" d="M303.22,607.09c0.04,0.4,0.64,6.57,6.75,7.5C303.34,613.9,303.22,607.52,303.22,607.09z"/>
				<path fill="#F4F4F4" d="M303.22,582.84l-1.23,0.52c0.33-0.17,0.65-0.33,0.98-0.5C303.05,582.86,303.13,582.85,303.22,582.84z"/>
				<path fill="#F4F4F4" d="M303.22,582.84c-0.09,0.01-0.17,0.02-0.26,0.02c0.01-0.01,0.02-0.01,0.03-0.01
					C303.07,582.84,303.14,582.84,303.22,582.84z"/>
				<path fill="#F4F4F4" d="M302.99,582.85c-0.01,0-0.02,0-0.03,0.01c-10.28,0.73-11.33-9.68-11.33-9.68
					S292.88,582.98,302.99,582.85z"/>
				<path fill="#4F4747" d="M309.27,557.26c-3.03,0.27-14.53,1.73-25.02,9.3C290.34,561.86,298.52,558.01,309.27,557.26z"/>
				<path fill="#F4F4F4" d="M286.36,589.95c-0.14,0.57-2.34,10.16,2.9,15.01C283.49,600.22,286.18,590.56,286.36,589.95z"/>
				<path fill="#4F4747" d="M268.87,586.78c-0.03,0.07-0.06,0.15-0.09,0.23C268.79,586.96,268.82,586.88,268.87,586.78z"/>
				<path fill="#4F4747" d="M268.62,587.18c-1.5,0.96-16.11,10.34-30.4,22.84C246.28,602.52,256.37,594.52,268.62,587.18z"/>
				<path fill="#4F4747" d="M212.45,640.57l0.13-0.15C212.55,640.45,212.51,640.5,212.45,640.57z"/>
				<path fill="#4F4747" d="M196.07,659.16l16.38-18.6C211.2,642.09,204.11,650.63,196.07,659.16z"/>
				<path fill="#4F4747" d="M181.52,719.05c8.07,14.46,29.66,59.22,47.69,151.02c-43.11-10.97-76.26-47.95-64.44-97.98
					c6.56-23.9,13.21-43.13,15.71-50.16c0.08-0.21,0.16-0.42,0.22-0.62C181.22,719.83,181.52,719.05,181.52,719.05z"/>
				<path fill="#4F4747" d="M180.48,721.92c0.06-0.2,0.14-0.41,0.22-0.62C180.63,721.5,180.56,721.71,180.48,721.92z"/>
				<path fill="#4F4747" d="M180.3,688.36l-1.37,17.05C178.7,700.77,178.97,695.05,180.3,688.36z"/>
				<path fill="#4F4747" d="M165.68,768.48c3.91-14.21,8.8-30.05,14.79-46.56c-2.5,7.03-9.15,26.27-15.71,50.16
					C165.04,770.89,165.35,769.69,165.68,768.48z"/>
			</g>
			<g>
				
					<path fill="none" stroke="#000000" stroke-width="5" stroke-linecap="round" stroke-linejoin="round" stroke-miterlimit="10" d="
					M354.57,379.5c4.12,11.06,9.17,21.7,15.86,31.63c3.39,5.04,7.3,9.79,11.63,14.17c22.25,22.55,55.61,35.39,86.95,27.89
					c25.01-5.97,42.78-20.89,56.2-40.39c1.41-2.05,2.77-4.15,4.09-6.31c24.06-39.18,33.18-93.6,47.75-132.56"/>
				
					<path fill="none" stroke="#000000" stroke-width="5" stroke-linecap="round" stroke-linejoin="round" stroke-miterlimit="10" d="
					M351.87,371.77c0.85,2.59,1.75,5.16,2.71,7.71"/>
				
					<path fill="none" stroke="#000000" stroke-width="5" stroke-linecap="round" stroke-linejoin="round" stroke-miterlimit="10" d="
					M349.19,363.22c0.85,2.87,1.73,5.72,2.67,8.55"/>
				
					<path fill="none" stroke="#000000" stroke-width="5" stroke-linecap="round" stroke-linejoin="round" stroke-miterlimit="10" d="
					M321.52,271.1c6.07,12.45,10.38,25.7,14.06,39.26c0.99,3.65,1.93,7.32,2.85,11c3.5,13.96,6.67,28.07,10.73,41.81"/>
				
					<path fill="none" stroke="#000000" stroke-width="5" stroke-linecap="round" stroke-linejoin="round" stroke-miterlimit="10" d="
					M464.04,130.91c-0.29,2.31-0.63,4.52-1.02,6.59c-0.53,2.77-2.17,5.19-4.56,6.68c-21.57,13.46-46.13,21.35-67.38,35.36
					c-31.28,20.63-56.04,55.84-69.55,91.56"/>
				
					<path fill="none" stroke="#000000" stroke-width="5" stroke-linecap="round" stroke-linejoin="round" stroke-miterlimit="10" d="
					M464.46,67.68c0,0,0.47,6.41,0.8,15.72c0.23,6.78,0.4,15.07,0.26,23.57c-0.06,4.03-0.2,8.1-0.43,12.08
					c-0.24,4.11-0.58,8.1-1.05,11.83"/>
				
					<path fill="none" stroke="#000000" stroke-width="5" stroke-linecap="round" stroke-linejoin="round" stroke-miterlimit="10" d="
					M464.04,130.89c0,0.01,0,0.02,0,0.03c-1.98,17.57,24.06,30.8,39.3,40.4c27.7,17.45,48.81,42.59,59.32,73.74
					c3,8.89,7.13,21.01,14.4,28.87c0,0.01,0,0.01,0,0.01c2.63,2.85,5.67,5.14,9.22,6.51"/>
				
					<path fill="none" stroke="#000000" stroke-width="5" stroke-linecap="round" stroke-linejoin="round" stroke-miterlimit="10" d="
					M490.3,390.4c-7.98-3.49-16.65-1.97-24.64-5.3c-2.26-0.94-4.82-0.82-7.02,0.29c-7.3,3.65-14.22,1.52-18.06-0.32
					c-2.05-0.99-4.39-1.13-6.53-0.35c-4.32,1.58-12.14,3.63-20.18,1.68c-1.57-0.38-3.19-0.47-4.77-0.3"/>
				
					<path fill="none" stroke="#000000" stroke-width="5" stroke-linecap="round" stroke-linejoin="round" stroke-miterlimit="10" d="
					M431.72,398.06c0,0,18.85,6.63,36.64,0"/>
				
					<path fill="none" stroke="#000000" stroke-width="5" stroke-linecap="round" stroke-linejoin="round" stroke-miterlimit="10" d="
					M472.18,344.78c-2.67-1.78-6.32-1.09-8.31,1.44c-1.86,2.35-4.49,3.65-6.77,4.37c-3.26,1.03-6.8,0.92-9.92-0.46
					c-2.62-1.16-4.22-2.81-5.18-4.39c-2.61-4.23-7.22-3.66-10.89-1.44c-2.03,1.23-3.23,1.31-5.62-0.1
					c-1.48-0.88-2.62-2.11-3.32-3.69c-2.79-6.35,1.86-15.19,6.81-19.15"/>
				
					<path fill="none" stroke="#000000" stroke-width="5" stroke-linecap="round" stroke-linejoin="round" stroke-miterlimit="10" d="
					M479.75,346.58c0,0,8.98-6.49,1.68-18.02"/>
				
					<path fill="none" stroke="#000000" stroke-width="5" stroke-linecap="round" stroke-linejoin="round" stroke-miterlimit="10" d="
					M472.18,253.06c16.75-15.87,51.57-26.15,71.04-8.62"/>
				
					<path fill="none" stroke="#000000" stroke-width="5" stroke-linecap="round" stroke-linejoin="round" stroke-miterlimit="10" d="
					M441.2,253.06c0,0-0.81-0.74-2.32-1.93c-20.27-16-47.64-19.75-71.56-10.01l-7.48,3.05"/>
				
					<path fill="none" stroke="#000000" stroke-width="5" stroke-linecap="round" stroke-linejoin="round" stroke-miterlimit="10" d="
					M479.93,277.44c0,0,8.03-11.84,22.49-13.86c4.16-0.58,8.86-0.35,14.04,1.21c5.17,1.56,10.84,4.43,16.95,9.14
					c1.34,1.03,2.72,2.15,4.11,3.38"/>
				
					<path fill="none" stroke="#000000" stroke-width="5" stroke-linecap="round" stroke-linejoin="round" stroke-miterlimit="10" d="
					M375.71,267.86c0,0,4.24,6.39,12.7,9.57"/>
				
					<path fill="none" stroke="#000000" stroke-width="5" stroke-linecap="round" stroke-linejoin="round" stroke-miterlimit="10" d="
					M533.41,273.92c0,0-2.15,3.52-8.21,6.52"/>
				
					<path fill="none" stroke="#000000" stroke-width="5" stroke-linecap="round" stroke-linejoin="round" stroke-miterlimit="10" d="
					M376.49,87.17c-2.36,3.18-5.99,6.14-11.55,7.64c-5.98,1.62-12.36,0.87-17.96-1.79l-3.78-1.79l-6.92-3.28
					c-3.21-1.52-7.04-0.84-9.52,1.72c-8.87,9.13-28.99,31.98-35.41,57.01c-1.89,7.36-6.74,13.64-13.41,17.23
					c-11.03,5.94-24.33,18.15-12.03,39.91c0,0-18.61,29.07-4.92,64.03c0,0-22.34,37.39,1.47,50.21c0,0-27.88,45.15,6.83,69.77
					c0,0-2.49,26.29,26.27,17.92c0,0-1.26,7.85,3.14,13.39c2.38,3.01,6.43,5.34,13.25,5.38c4.08,0.02,7.15-1,9.47-2.65
					c4.16-2.96,5.87-7.9,6.51-12.4c0.75-5.29,0-9.95,0-9.95s9.2-1.1,6.49-11.68c-2.71-10.57,8.52-17.54,17.45-16.07h0.01"/>
				
					<path fill="none" stroke="#000000" stroke-width="5" stroke-linecap="round" stroke-linejoin="round" stroke-miterlimit="10" d="
					M404.38,73.72c-0.08-0.06-0.16-0.11-0.24-0.17c-4.4-3.06-8.42-3.93-11.83-3.73c-5.83,0.34-10.63,4.57-12.28,10.16
					c-0.64,2.15-1.71,4.71-3.54,7.16"/>
				
					<path fill="none" stroke="#000000" stroke-width="5" stroke-linecap="round" stroke-linejoin="round" stroke-miterlimit="10" d="
					M287.96,238.63c0,0-16.2-9.88,7.51-24.11c7.74-4.65,11.28-14.31,12.51-25.22c1.8-15.84,6.42-31.24,14.1-45.21
					c9.77-17.75,24.42-38.91,42.85-49.29"/>
				
					<path fill="none" stroke="#000000" stroke-width="5" stroke-linecap="round" stroke-linejoin="round" stroke-miterlimit="10" d="
					M349.19,363.22c-0.01-0.02-0.01-0.03-0.02-0.05c-5.75-17.21-22.43-11.9-22.43-11.9c6.96-13.12-3-20.11-3-20.11
					s11.02,1.68,14.69-9.8"/>
				
					<path fill="none" stroke="#000000" stroke-width="5" stroke-linecap="round" stroke-linejoin="round" stroke-miterlimit="10" d="
					M321.52,271.1c0.01,0.01,0.01,0.03,0.01,0.04c0,0.44-3.19,1.91-3.47,2.05c-2.2,1.07-4.1,2.26-6.2,0.28
					c-0.84-0.79-1.45-1.79-2.15-2.69c-2.63-3.32-6.22-4.05-9.81-5.83c-4.57-2.26-2.57-5.75,0.23-8.59
					c3.67-3.73,5.62-8.89,4.95-14.09c-0.6-4.7-2.96-9.8-9.57-12.7c0,0,6.94-6.91-0.03-15.05"/>
				
					<path fill="none" stroke="#000000" stroke-width="5" stroke-linecap="round" stroke-linejoin="round" stroke-miterlimit="10" d="
					M335.57,310.36c0,0-7.73-12.57-17.05-9.6c2.11-0.67,3.94-5.4,4.57-7.14c2.65-7.34,1.16-15.4-1.57-22.47"/>
				
					<path fill="none" stroke="#000000" stroke-width="5" stroke-linecap="round" stroke-linejoin="round" stroke-miterlimit="10" d="
					M343.19,91.23c0,0-26.97,23.56-38.23,55.65"/>
				
					<path fill="none" stroke="#000000" stroke-width="5" stroke-linecap="round" stroke-linejoin="round" stroke-miterlimit="10" d="
					M594.71,256.89c0,0,0.61-2.15,1.33-6.07c0.54-2.92,1.15-6.82,1.62-11.53c2.03-20.14,1.59-55.09-17.18-91.4
					c-28.02-56-73.63-77.72-115.93-81.28c-22.01-1.84-43.12,1.22-60.4,6.94c-11.04,3.65-20.5,8.38-27.65,13.6
					c0,0.01-0.01,0.01-0.01,0.01"/>
				
					<path fill="none" stroke="#000000" stroke-width="5" stroke-linecap="round" stroke-linejoin="round" stroke-miterlimit="10" d="
					M304.7,453.23c10.61,15.04,30.97,22.9,49.85,17.95c2.24-0.58,4.46-1.34,6.64-2.3c1.94-0.85,3.85-1.85,5.71-3.01
					c1.81-1.13,3.54-2.38,5.16-3.75c1.33-1.11,2.58-2.3,3.74-3.56c3.25-3.5,5.82-7.49,7.38-11.79c2.43-6.68,2.45-14.09-1.12-21.47"
					/>
				
					<path fill="none" stroke="#000000" stroke-width="5" stroke-linecap="round" stroke-linejoin="round" stroke-miterlimit="10" d="
					M298.69,419.15C298.69,419.15,298.69,419.15,298.69,419.15c-0.03,0.1-0.21,0.78-0.45,1.94c-2.54,12.37,0.33,23.45,6.45,32.12"/>
				
					<path fill="none" stroke="#000000" stroke-width="5" stroke-linecap="round" stroke-linejoin="round" stroke-miterlimit="10" d="
					M354.57,471.18c0,0-0.01,0-0.02,0c-1.1-0.01-46.33-0.6-33.14-49.3v-0.01"/>
				
					<path fill="none" stroke="#000000" stroke-width="5" stroke-linecap="round" stroke-linejoin="round" stroke-miterlimit="10" d="
					M375.8,458.56c0,0-33.22-7.49-32.63-41.23c0.17-10.1,3.37-22.55,11.4-37.84v-0.01"/>
				
					<path fill="none" stroke="#000000" stroke-width="5" stroke-linecap="round" stroke-linejoin="round" stroke-miterlimit="10" d="
					M343.17,417.33c0,0-13.67,41.23,17.92,51.33"/>
				
					<path fill="none" stroke="#000000" stroke-width="5" stroke-linecap="round" stroke-linejoin="round" stroke-miterlimit="10" d="
					M370.44,411.13c0,0-12.24,29.28,12.68,35.61"/>
				
					<path fill="none" stroke="#000000" stroke-width="5" stroke-linecap="round" stroke-linejoin="round" stroke-miterlimit="10" d="
					M304.7,453.23c0,0,0-0.01-0.01-0.02c-0.19-0.59-4.82-14.97,3.36-21.98"/>
				
					<path fill="none" stroke="#000000" stroke-width="5" stroke-linecap="round" stroke-linejoin="round" stroke-miterlimit="10" d="
					M527.36,433.98l1.94,19.25c0,0-70.88,48.74-92.43,83.45"/>
				
					<polyline fill="none" stroke="#000000" stroke-width="5" stroke-linecap="round" stroke-linejoin="round" stroke-miterlimit="10" points="
					525.2,412.63 525.22,412.8 527.36,433.97 				"/>
				
					<path fill="none" stroke="#000000" stroke-width="5" stroke-linecap="round" stroke-linejoin="round" stroke-miterlimit="10" d="
					M597.65,239.3c4.7,9.31,7.99,23.77-6.44,36.24c-1.91,1.65-3.54,3.29-4.93,4.91c-15.66,18.27,0.22,33.81,0.22,33.81
					c-26.64,4.18-13.58,28.03-13.58,28.03s-15.36,7.45-14.84,28.7c0.21,8.61,0.41,17.22,0.21,25.84l-0.05,1.85
					c-0.18,8.38,10.44,12.22,15.6,5.6c0.07-0.09,0.14-0.18,0.21-0.29c0,0,16.77,8.09,33.55-12.48c0,0,2.25,2.34,5.22,2.8
					c2.68,0.42,5.96-0.69,8.68-6.45c0,0,19.18-2.55,9.58-18.85c0,0,43.62-5.78,19.18-40.44c0,0,18.21-23.3-8.63-42.48
					c0,0,31.63-17.45,9.1-38.91c0,0,10.48-31.17-18.57-40.35c-4.58-1.45-7.77-6.57-6.78-11.26c0.52-2.52,2.1-5.12,5.62-7.3
					c3.33-2.06,5.33-5.87,4.74-9.74c-0.67-4.41-4.45-9.41-16.83-11.79c0,0,4.56-30.01-28.24-29.44c0,0,6-12.93-5.57-21
					c-3.78-2.64-7.36-5.55-10.48-8.95c-13.94-15.18-49.69-51.55-63.5-41.24c0,0-13.7-15.48-35.01-9.4
					c-7.74,2.21-16.11,0.7-23.7-1.52c-6.78-1.98-13.34-6.45-20.6-5.36c-5.75,0.87-11.08,4.16-15.53,8.25
					c-4.1,3.76-9.77,5.2-15.21,4.08c-8.05-1.66-19.63-1.73-26.52,8.57c-3.16,4.71-8.85,7.03-14.45,6.18
					c-8.8-1.36-21.8-0.28-33.35,12.79"/>
				
					<path fill="none" stroke="#000000" stroke-width="5" stroke-linecap="round" stroke-linejoin="round" stroke-miterlimit="10" d="
					M518,72.99c0,0,29.31,10.67,54.89,46.07"/>
				
					<path fill="none" stroke="#000000" stroke-width="5" stroke-linecap="round" stroke-linejoin="round" stroke-miterlimit="10" d="
					M527.36,433.97C527.36,433.97,527.36,433.97,527.36,433.97c0.39,0.23,9.08,5.39,20.9,8.31c17.49,4.33,41.83,3.75,56.28-24.95"/>
				
					<path fill="none" stroke="#000000" stroke-width="5" stroke-linecap="round" stroke-linejoin="round" stroke-miterlimit="10" d="
					M529.31,406.49c0,0,47.75,41.69,83.52-12.19"/>
				
					<path fill="none" stroke="#000000" stroke-width="5" stroke-linecap="round" stroke-linejoin="round" stroke-miterlimit="10" d="
					M621.51,387.85c0,0-4.08,16.54-16.98,29.49c-11.15,11.19-28.89,19.67-56.28,12.47"/>
				
					<path fill="none" stroke="#000000" stroke-width="5" stroke-linecap="round" stroke-linejoin="round" stroke-miterlimit="10" d="
					M596.03,250.82C580.47,93.91,466.6,83.53,465.26,83.41c-0.01,0-0.01,0-0.01,0S363.1,75.1,326.74,182.9"/>
				
					<path fill="none" stroke="#000000" stroke-width="5" stroke-linecap="round" stroke-linejoin="round" stroke-miterlimit="10" d="
					M327.92,223.55c36.79-111.92,137.6-116.57,137.6-116.57c6.02,0.85,112.08,17.84,119.37,160.89"/>
				
					<path fill="none" stroke="#000000" stroke-width="5" stroke-linecap="round" stroke-linejoin="round" stroke-miterlimit="10" d="
					M523.53,156.67c-33.13-9.79-58.44-37.62-58.44-37.62s-33.36,24.54-68.25,33.75"/>
				
					<path fill="none" stroke="#000000" stroke-width="5" stroke-linecap="round" stroke-linejoin="round" stroke-miterlimit="10" d="
					M346.89,535.42c0.63-6.04,1.46-11.43,2.44-16.24c6.78-33.38,20.6-38.71,22.87-39.08"/>
				
					<path fill="none" stroke="#000000" stroke-width="5" stroke-linecap="round" stroke-linejoin="round" stroke-miterlimit="10" d="
					M349.19,519.15l-32.76,17.35l-8.38,4.44c0,0-3.99,8.29,3.84,11.05l-1.86,5.21l-4.4,12.29l-14,3.68c0,0,1.05,10.41,11.33,9.68
					c0.08,0,0.17-0.01,0.26-0.02"/>
				
					<polyline fill="none" stroke="#000000" stroke-width="5" stroke-linecap="round" stroke-linejoin="round" stroke-miterlimit="10" points="
					372.34,499.83 372.2,480.1 372.07,462.12 				"/>
				
					<path fill="none" stroke="#000000" stroke-width="5" stroke-linecap="round" stroke-linejoin="round" stroke-miterlimit="10" d="
					M303.22,607.09c0,0.43,0.12,6.81,6.75,7.5c2.46,0.26,5.84-0.27,10.44-2.18c0,0,5.12,8.86,14.18,8.4c3.77-0.19,8.23-2,13.28-6.72
					c0.01-0.02,0.03-0.03,0.05-0.05c0.42-0.4,0.85-0.81,1.28-1.25c0,0,4.4,11.06,21.29,0.76c0,0,0.05-0.09,0.13-0.28
					c1.31-2.65,12.64-24.28,45.48-47.48l-22.51-20.68c-2.79-3.36-6.51-5.79-10.65-7.16c-3.84-1.27-8.68-4.81-10.41-14.37
					l-0.17-23.72"/>
				
					<path fill="none" stroke="#000000" stroke-width="5" stroke-linecap="round" stroke-linejoin="round" stroke-miterlimit="10" d="
					M312.25,577.67c-2.88,1.72-6.02,3.49-9.26,5.18c-0.01,0-0.02,0-0.03,0.01c-0.32,0.17-0.64,0.33-0.98,0.5
					c-5.16,2.63-10.54,5.01-15.62,6.56c0,0,0,0.01-0.01,0.03c-0.17,0.61-2.86,10.27,2.9,15.01c2.6,2.15,6.91,3.28,13.97,2.12"/>
				
					<path fill="none" stroke="#000000" stroke-width="5" stroke-linecap="round" stroke-linejoin="round" stroke-miterlimit="10" d="
					M327.92,567.43c0,0-6.62,4.85-15.64,10.23"/>
				
					<path fill="none" stroke="#000000" stroke-width="5" stroke-linecap="round" stroke-linejoin="round" stroke-miterlimit="10" d="
					M393.73,561.03c0,0-19.91,11.83-30.51,35.31"/>
				
					<path fill="none" stroke="#000000" stroke-width="5" stroke-linecap="round" stroke-linejoin="round" stroke-miterlimit="10" d="
					M438.54,556.87c-2.71,2.71-6.23,3.82-9,3.12c-0.99-0.25-1.9-0.74-2.61-1.45c-1.08-1.08-1.62-2.53-1.66-4.12
					c-0.06-2.47,1.08-5.27,3.31-7.5c3.66-3.66,8.87-4.41,11.62-1.66C442.95,548.01,442.21,553.21,438.54,556.87z"/>
				
					<path fill="none" stroke="#000000" stroke-width="5" stroke-linecap="round" stroke-linejoin="round" stroke-miterlimit="10" d="
					M449.29,563.07c-0.95,1.39-2.06,2.73-3.32,3.99c-2.75,2.75-5.89,4.8-9.09,6.08c-4.44,1.78-8.99,2.07-12.79,0.77
					c-1.85-0.63-3.53-1.63-4.92-3.02c-1.44-1.44-2.45-3.16-3.07-5.05c0-0.01-0.01-0.02-0.01-0.03c-0.59-1.8-0.82-3.77-0.71-5.82
					c0.2-3.89,1.67-8.06,4.28-11.87c0.96-1.4,2.07-2.75,3.34-4.02c1.21-1.21,2.49-2.27,3.81-3.19c3.21-2.26,6.69-3.68,10.06-4.21
					v-0.01c4.96-0.79,9.68,0.35,12.91,3.59c1.82,1.81,2.98,4.11,3.5,6.64C454.31,551.88,452.91,557.81,449.29,563.07"/>
				
					<polyline fill="none" stroke="#000000" stroke-width="5" stroke-linecap="round" stroke-linejoin="round" stroke-miterlimit="10" points="
					429.54,559.98 429.54,559.99 424.31,573.35 424.09,573.9 424.09,573.91 				"/>
				
					<polyline fill="none" stroke="#000000" stroke-width="5" stroke-linecap="round" stroke-linejoin="round" stroke-miterlimit="10" points="
					438.54,556.87 445.6,566.55 445.96,567.05 				"/>
				
					<line fill="none" stroke="#000000" stroke-width="5" stroke-linecap="round" stroke-linejoin="round" stroke-miterlimit="10" x1="440.2" y1="545.25" x2="449.78" y2="540.27"/>
				
					<line fill="none" stroke="#000000" stroke-width="5" stroke-linecap="round" stroke-linejoin="round" stroke-miterlimit="10" x1="425.27" y1="554.41" x2="415.38" y2="559.98"/>
				
					<line fill="none" stroke="#000000" stroke-width="5" stroke-linecap="round" stroke-linejoin="round" stroke-miterlimit="10" x1="428.58" y1="546.91" x2="426.82" y2="540.9"/>
				
					<path fill="none" stroke="#000000" stroke-width="5" stroke-linecap="round" stroke-linejoin="round" stroke-miterlimit="10" d="
					M548.25,442.28c0,0,2.75,7.23,2.04,14.44c-0.31,3.28-1.34,6.55-3.66,9.14c0,0-49.91,32.95-93.35,81.04"/>
				
					<path fill="none" stroke="#000000" stroke-width="5" stroke-linecap="round" stroke-linejoin="round" stroke-miterlimit="10" d="
					M575.27,542.34c-0.53-1.02-1.15-2.1-1.83-3.22c-0.47-0.78-0.98-1.58-1.51-2.4c-0.01-0.01-0.02-0.02-0.02-0.03
					c-1.65-2.5-3.62-5.18-5.97-7.99c-3.53-4.2-7.92-8.67-13.38-13.23"/>
				
					<path fill="none" stroke="#000000" stroke-width="5" stroke-linecap="round" stroke-linejoin="round" stroke-miterlimit="10" d="
					M449.29,563.07c0,0,0.02,0.02,0.05,0.06c0.52,0.72,4.67,6.78,11.35,20.42c0.03,0.06,0.06,0.12,0.09,0.18
					c5.08,10.38,11.61,25.14,19.1,45.22c0,0,0.01,0,0.04,0.01c0.43,0.15,5.12,1.65,9.75,0.65c0.02,0,0.04-0.01,0.06-0.01
					c4.64-1.02,9.22-4.57,9.41-14.52l15.4-1.54c0,0,0,0,0.01-0.01c0.27-0.24,4.88-4.5,3.99-11.84c-0.02-0.15-0.04-0.29-0.07-0.44
					c-0.4-2.71-1.55-5.81-3.92-9.27l23.87-0.39c0,0,0.02-0.03,0.05-0.08c0.29-0.54,2.07-3.45,6.73-6.18
					c0.05-0.04,0.1-0.06,0.16-0.09c2.76-1.59,6.51-3.12,11.54-4.04c1.62-0.29,2.94-0.76,4-1.37c8.36-4.69,0.93-17.35,0.63-17.86
					c-0.01-0.01-0.01-0.02-0.01-0.02l4.85-1.98l13.63-5.57c0,0-0.79-4.75-4.7-12.07"/>
				
					<path fill="none" stroke="#000000" stroke-width="5" stroke-linecap="round" stroke-linejoin="round" stroke-miterlimit="10" d="
					M587.51,532.36c7.13-1.43,16.06-2.49,25.32-1.81c0,0,0.02-0.01,0.06-0.02c1.1-0.37,18.15-6.3,25.79-15.69
					c0.26-0.31,0.51-0.63,0.74-0.95"/>
				
					<path fill="none" stroke="#000000" stroke-width="5" stroke-linecap="round" stroke-linejoin="round" stroke-miterlimit="10" d="
					M571.91,536.69c0,0,0.1-0.04,0.29-0.12c1.35-0.5,7.16-2.59,15.29-4.22"/>
				
					<path fill="none" stroke="#000000" stroke-width="5" stroke-linecap="round" stroke-linejoin="round" stroke-miterlimit="10" d="
					M550.31,456.73l11.89-1.4l25.85,18.37c2.59,1.84,5.92,2.26,8.88,1.12l0.29-0.1c3.14-1.21,6.66-0.64,9.3,1.44
					c4.8,3.75,13.49,9.12,23.46,8.64c10.1-0.49,24.97,9.84,33.78,16.81c4.43,3.5,7.33,6.15,7.33,6.15s-1.89,1.81-5.28,3.71
					c0,0,0,0-0.01,0c-5.44,3.05-14.77,6.28-26.33,2.45c-0.02-0.01-0.04-0.01-0.06-0.02"/>
				
					<path fill="none" stroke="#000000" stroke-width="5" stroke-linecap="round" stroke-linejoin="round" stroke-miterlimit="10" d="
					M310.04,557.2c0,0-0.06,0-0.19,0.01c-0.09,0.01-0.2,0.02-0.34,0.03c-0.07,0-0.15,0.01-0.23,0.02
					c-3.03,0.27-14.53,1.73-25.02,9.3c-5.88,4.24-11.44,10.39-15.02,19.32c-0.13,0.29-0.25,0.6-0.36,0.9
					c-0.03,0.07-0.06,0.15-0.09,0.23c-0.01,0.03-0.02,0.06-0.03,0.08c0,0-0.05,0.03-0.13,0.08c-1.5,0.96-16.11,10.34-30.4,22.84
					c-10.41,9.1-20.65,19.87-25.52,30.22c-0.02,0.03-0.04,0.06-0.05,0.08c0,0,5.84,37.84,8.08,68.26"/>
				
					<path fill="none" stroke="#000000" stroke-width="5" stroke-linecap="round" stroke-linejoin="round" stroke-miterlimit="10" d="
					M212.65,640.33c0,0-0.03,0.03-0.07,0.09c-0.03,0.04-0.07,0.08-0.13,0.15c-1.25,1.53-8.34,10.06-16.38,18.6
					c-1.8,1.91-3.65,3.82-5.49,5.65c-1.88,1.87-3.53,3.93-4.91,6.15c-2.98,4.75-4.8,10.2-5.26,15.87l-0.12,1.53l-1.37,17.05
					l-0.33,4.06c-0.21,2.58,0.37,5.16,1.68,7.39c0.37,0.63,0.77,1.33,1.23,2.15c0,0,0.01,0.01,0.01,0.03
					c8.07,14.46,29.66,59.22,47.69,151.02c0.63,3.19,1.25,6.45,1.87,9.77"/>
				
					<path fill="none" stroke="#000000" stroke-width="5" stroke-linecap="round" stroke-linejoin="round" stroke-miterlimit="10" d="
					M181.52,719.05c0,0-0.29,0.78-0.82,2.26c-0.06,0.19-0.14,0.41-0.22,0.62c-2.5,7.03-9.15,26.27-15.71,50.16
					c-4.84,17.61-9.65,37.75-12.72,57.39"/>
				
					<path fill="none" stroke="#000000" stroke-width="5" stroke-linecap="round" stroke-linejoin="round" stroke-miterlimit="10" d="
					M665.8,511.46c0,0,0.06,0.06,0.18,0.15c0.06,0.06,0.12,0.1,0.19,0.17c0.04,0.04,0.08,0.07,0.13,0.11
					c1.55,1.33,6.55,5.67,13.89,12.77c0.02,0.02,0.04,0.04,0.06,0.06c21.68,20.99,63.61,65.92,96.47,127.5
					c7.71,14.44,14.9,29.78,21.24,45.96"/>
				
					<path fill="none" stroke="#000000" stroke-width="5" stroke-linecap="round" stroke-linejoin="round" stroke-miterlimit="10" d="
					M776.71,652.2c0,0-14.79-4.23-36.74-2.5c-27.5,2.15-66.24,13.69-101.28,54.64c-4.19,4.9-6.76,10.97-7.28,17.4
					c-1.89,23.35-6.58,85.93-7.03,138.77c-0.06,6.63-0.05,13.1,0.05,19.32"/>
				
					<path fill="none" stroke="#000000" stroke-width="5" stroke-linecap="round" stroke-linejoin="round" stroke-miterlimit="10" d="
					M631.41,721.74c0,0-52.11,67.69-61.93,123.16"/>
				
					<path fill="none" stroke="#000000" stroke-width="5" stroke-linecap="round" stroke-linejoin="round" stroke-miterlimit="10" d="
					M550.42,783.32c34.5-142.12,147.01-183.38,147.01-183.38s-38.25-50.19-109.92-67.58h-0.01"/>
				
					<path fill="none" stroke="#000000" stroke-width="5" stroke-linecap="round" stroke-linejoin="round" stroke-miterlimit="10" d="
					M524.38,799.58c0,0,14.16-117.78,134.45-203.24c0,0-44.82-44.86-82.98-53.87c-0.19-0.05-0.38-0.09-0.57-0.14h-0.01"/>
				
					<path fill="none" stroke="#000000" stroke-width="5" stroke-linecap="round" stroke-linejoin="round" stroke-miterlimit="10" d="
					M566.35,559.98c0,0,35.2,11.24,58,42.04c0,0-99.6,78.35-122.5,207.3"/>
				
					<path fill="none" stroke="#000000" stroke-width="5" stroke-linecap="round" stroke-linejoin="round" stroke-miterlimit="10" d="
					M436.88,573.13c0,0-26.61,146.43-23.64,282.64c0.33,15.06,1.02,29.99,2.15,44.59"/>
				
					<path fill="none" stroke="#000000" stroke-width="5" stroke-linecap="round" stroke-linejoin="round" stroke-miterlimit="10" d="
					M383.11,546.91c0,0-32.74,19.03-46.33,53.97"/>
				
					<path fill="none" stroke="#000000" stroke-width="5" stroke-linecap="round" stroke-linejoin="round" stroke-miterlimit="10" d="
					M328.05,606.64c0,0,4.23,9.41,15.32,1.58"/>
				
					<path fill="none" stroke="#000000" stroke-width="5" stroke-linecap="round" stroke-linejoin="round" stroke-miterlimit="10" d="
					M354.53,604.32c0,0,2.54,7.02,9.71,2.32"/>
				
					<path fill="none" stroke="#000000" stroke-width="5" stroke-linecap="round" stroke-linejoin="round" stroke-miterlimit="10" d="
					M333.53,575.47c-5.35,6.96-10.41,14.78-14.53,23.33"/>
				
					<path fill="none" stroke="#000000" stroke-width="5" stroke-linecap="round" stroke-linejoin="round" stroke-miterlimit="10" d="
					M372.07,538.75c0,0-20.84,13.69-38.53,36.71"/>
				
					<path fill="none" stroke="#000000" stroke-width="5" stroke-linecap="round" stroke-linejoin="round" stroke-miterlimit="10" d="
					M309.39,600.88c0,0,0.76,7.95,9.61,4.49"/>
				
					<path fill="none" stroke="#000000" stroke-width="5" stroke-linecap="round" stroke-linejoin="round" stroke-miterlimit="10" d="
					M293.39,594.76c0,0,0.96,7.24,8.36,4.84"/>
				
					<path fill="none" stroke="#000000" stroke-width="5" stroke-linecap="round" stroke-linejoin="round" stroke-miterlimit="10" d="
					M302.71,592.48c0,0,16.57-3.76,30.82-17.01l0.01-0.01"/>
				
					<path fill="none" stroke="#000000" stroke-width="5" stroke-linecap="round" stroke-linejoin="round" stroke-miterlimit="10" d="
					M302.27,577.01c0,0,2.78,3.51,9.99,0.66c0.01,0,0.02-0.01,0.03-0.01"/>
				
					<path fill="none" stroke="#000000" stroke-width="5" stroke-linecap="round" stroke-linejoin="round" stroke-miterlimit="10" d="
					M319,563.08c5.13-2.75,15.51-8.64,25.24-16.17"/>
				
					<path fill="none" stroke="#000000" stroke-width="5" stroke-linecap="round" stroke-linejoin="round" stroke-miterlimit="10" d="
					M316.43,536.51c0,0-4.26,9.66,4.95,10.4"/>
				
					<line fill="none" stroke="#000000" stroke-width="5" stroke-linecap="round" stroke-linejoin="round" stroke-miterlimit="10" x1="347.91" y1="527.04" x2="324.83" y2="540.9"/>
				
					<path fill="none" stroke="#000000" stroke-width="5" stroke-linecap="round" stroke-linejoin="round" stroke-miterlimit="10" d="
					M484.26,619.95c0,0,7.36-0.7,6.66-9.45"/>
				
					<path fill="none" stroke="#000000" stroke-width="5" stroke-linecap="round" stroke-linejoin="round" stroke-miterlimit="10" d="
					M459.13,561.96c6.43,9.59,16.78,26.6,23.96,46.01"/>
				
					<path fill="none" stroke="#000000" stroke-width="5" stroke-linecap="round" stroke-linejoin="round" stroke-miterlimit="10" d="
					M505.44,605.11c0,0,6.21-3.81-0.77-14.62"/>
				
					<path fill="none" stroke="#000000" stroke-width="5" stroke-linecap="round" stroke-linejoin="round" stroke-miterlimit="10" d="
					M498.24,594.94c0,0-11.23-26.91-31.79-46.82"/>
				
					<path fill="none" stroke="#000000" stroke-width="5" stroke-linecap="round" stroke-linejoin="round" stroke-miterlimit="10" d="
					M550.42,564.27c0,0,3.36,9.64-10.68,12.58"/>
				
					<path fill="none" stroke="#000000" stroke-width="5" stroke-linecap="round" stroke-linejoin="round" stroke-miterlimit="10" d="
					M541.2,567.05c0,0-25.35-32.79-48.96-43.57"/>
				
					<path fill="none" stroke="#000000" stroke-width="5" stroke-linecap="round" stroke-linejoin="round" stroke-miterlimit="10" d="
					M561.61,551.89c0,0,14.23-2.39,11.83-12.77"/>
				
					<path fill="none" stroke="#000000" stroke-width="5" stroke-linecap="round" stroke-linejoin="round" stroke-miterlimit="10" d="
					M564.55,542.34c0,0-26.56-30.23-53.54-34.71"/>
				
					<path fill="none" stroke="#000000" stroke-width="5" stroke-linecap="round" stroke-linejoin="round" stroke-miterlimit="10" d="
					M644.08,506.05c0,0,13.93,5.55,19.66-4.46"/>
				
					<path fill="none" stroke="#000000" stroke-width="5" stroke-linecap="round" stroke-linejoin="round" stroke-miterlimit="10" d="
					M610.69,519.73c0,0,18.15-1.75,18.94-15.14"/>
				
					<path fill="none" stroke="#000000" stroke-width="5" stroke-linecap="round" stroke-linejoin="round" stroke-miterlimit="10" d="
					M615.95,507.59c0,0-32.91-22.91-67.69-32.93"/>
				
					<path fill="none" stroke="#000000" stroke-width="5" stroke-linecap="round" stroke-linejoin="round" stroke-miterlimit="10" d="
					M639.4,498.07c-8.84-1.14-24.23-4.59-38.7-15.08"/>
				
					<path fill="none" stroke="#000000" stroke-width="5" stroke-linecap="round" stroke-linejoin="round" stroke-miterlimit="10" d="
					M537.52,487.54c0,0,25.31,7.56,41.48,24.58"/>
				
					<path fill="none" stroke="#000000" stroke-width="5" stroke-linecap="round" stroke-linejoin="round" stroke-miterlimit="10" d="
					M565.94,528.71C565.94,528.71,565.94,528.71,565.94,528.71c0.42-0.23,14.3-7.54,30.44-7.07"/>
				
					<path fill="none" stroke="#000000" stroke-width="5" stroke-linecap="round" stroke-linejoin="round" stroke-miterlimit="10" d="
					M279.08,379.49c0,0-0.38,24.66,21.94,14.81"/>
				
					<path fill="none" stroke="#000000" stroke-width="5" stroke-linecap="round" stroke-linejoin="round" stroke-miterlimit="10" d="
					M291.63,384.2c0,0,1.56-20.06,18.4-37.63"/>
				
					<path fill="none" stroke="#000000" stroke-width="5" stroke-linecap="round" stroke-linejoin="round" stroke-miterlimit="10" d="
					M274.67,351.27c0,0,0-45.29,32.6-62.63"/>
				
					<path fill="none" stroke="#000000" stroke-width="5" stroke-linecap="round" stroke-linejoin="round" stroke-miterlimit="10" d="
					M305.63,405.25c0,0,3.4,16.21,22.29,4.23"/>
				
					<path fill="none" stroke="#000000" stroke-width="5" stroke-linecap="round" stroke-linejoin="round" stroke-miterlimit="10" d="
					M267.64,280.44c0,0-7.95,13.07,3.13,22.83"/>
				
					<path fill="none" stroke="#000000" stroke-width="5" stroke-linecap="round" stroke-linejoin="round" stroke-miterlimit="10" d="
					M275.99,288.64c0,0,7.49-16.42,23.9-23.69"/>
				
					<path fill="none" stroke="#000000" stroke-width="5" stroke-linecap="round" stroke-linejoin="round" stroke-miterlimit="10" d="
					M262.82,346.58c0,0-1.8,18,9.6,22.79"/>
				
					<path fill="none" stroke="#000000" stroke-width="5" stroke-linecap="round" stroke-linejoin="round" stroke-miterlimit="10" d="
					M323.74,313.89c0,0-29.54,5.8-35.8,30.55"/>
				
					<path fill="none" stroke="#000000" stroke-width="5" stroke-linecap="round" stroke-linejoin="round" stroke-miterlimit="10" d="
					M336.79,363.22c0,0-22.5,5.59-20,37.78"/>
				
					<path fill="none" stroke="#000000" stroke-width="5" stroke-linecap="round" stroke-linejoin="round" stroke-miterlimit="10" d="
					M632.16,355.33c0,0,14.94-4.67,9.34-21.47"/>
				
					<path fill="none" stroke="#000000" stroke-width="5" stroke-linecap="round" stroke-linejoin="round" stroke-miterlimit="10" d="
					M629.63,341.33c0,0-7.69-45.91-35.74-40.14"/>
				
					<path fill="none" stroke="#000000" stroke-width="5" stroke-linecap="round" stroke-linejoin="round" stroke-miterlimit="10" d="
					M621.51,369.39c0,0-1.47,12.35-15.61,12.32"/>
				
					<path fill="none" stroke="#000000" stroke-width="5" stroke-linecap="round" stroke-linejoin="round" stroke-miterlimit="10" d="
					M580.15,327.78c0,0,24.88,6.62,29.57,41.61"/>
				
					<path fill="none" stroke="#000000" stroke-width="5" stroke-linecap="round" stroke-linejoin="round" stroke-miterlimit="10" d="
					M577.06,391.5c0,0,10.76,5.81,17.88-5.41"/>
				
					<path fill="none" stroke="#000000" stroke-width="5" stroke-linecap="round" stroke-linejoin="round" stroke-miterlimit="10" d="
					M571.07,355.33c0,0,13.34,11.11,13.82,28.87"/>
				
					<path fill="none" stroke="#000000" stroke-width="5" stroke-linecap="round" stroke-linejoin="round" stroke-miterlimit="10" d="
					M633.92,292.4c0,0,19.39,12.48,5.91,31.55"/>
				
					<path fill="none" stroke="#000000" stroke-width="5" stroke-linecap="round" stroke-linejoin="round" stroke-miterlimit="10" d="
					M639.26,250.82c0,0,16,14.51-1.8,27.98"/>
				
					<path fill="none" stroke="#000000" stroke-width="5" stroke-linecap="round" stroke-linejoin="round" stroke-miterlimit="10" d="
					M609,244.17c4.93,7.79,14.1,19.4,24.92,19.11"/>
				
					<path fill="none" stroke="#000000" stroke-width="5" stroke-linecap="round" stroke-linejoin="round" stroke-miterlimit="10" d="
					M607.61,267.86c0,0,4.81,26.79,26.31,38.23"/>
				
					<path fill="none" stroke="#000000" stroke-width="5" stroke-linecap="round" stroke-linejoin="round" stroke-miterlimit="10" d="
					M604.56,189.84c0,0,5.63,36.6,25.07,42.84"/>
				
					<path fill="none" stroke="#000000" stroke-width="5" stroke-linecap="round" stroke-linejoin="round" stroke-miterlimit="10" d="
					M631.27,216.67c0,0,11.17,5.04,11.49,19.12"/>
				
					<path fill="none" stroke="#000000" stroke-width="5" stroke-linecap="round" stroke-linejoin="round" stroke-miterlimit="10" d="
					M631.01,188.26c-3.45-14.05-23.66-13.36-23.66-13.36s7.43-27.51-16.5-27.43"/>
				
					<path fill="none" stroke="#000000" stroke-width="5" stroke-linecap="round" stroke-linejoin="round" stroke-miterlimit="10" d="
					M282.55,173.16c0,0-16.96,16.41,5.39,32.5"/>
				
					<path fill="none" stroke="#000000" stroke-width="5" stroke-linecap="round" stroke-linejoin="round" stroke-miterlimit="10" d="
					M419.65,548.12l-23.6-21.09c-3.13-2.8-6.69-5.12-10.6-6.67c-5.19-2.07-13-7.36-13.11-20.48v-0.04"/>
				
					<path fill="none" stroke="#000000" stroke-width="5" stroke-linecap="round" stroke-linejoin="round" stroke-miterlimit="10" d="
					M425.59,275.53c0,0-4.39-9.36-14.97-13.47c-3.9-1.51-8.64-2.3-14.32-1.65c-5.85,0.67-12.68,2.88-20.59,7.45
					c-1.69,0.97-3.43,2.04-5.23,3.24"/>
			</g>
		</g>
	</g>
</g>
</svg>
