<svg xmlns="http://www.w3.org/2000/svg" viewBox="0 0 950 950"><defs><style>.cls-1{fill:#8db6ff;}.cls-2{fill:#e6f4f4;}.cls-3{fill:#35358e;}.cls-4,.cls-5{fill:none;stroke:#000;stroke-linecap:round;stroke-width:5px;}.cls-4{stroke-miterlimit:10;}.cls-5{stroke-linejoin:round;}</style></defs><title>shark_cox</title><g id="shark"><circle class="cls-1" cx="475" cy="475" r="359.12"/><path class="cls-2" d="M936.34,211.29a32.91,32.91,0,0,0-29.21-29.69C760.26,165.41,620.9,218.82,620.9,218.82S559.76,240.4,474.35,297c-5.3,3.51-11.08,7.53-17.27,12h0c-1.81-5.52-23.33-67.6-70.36-62.23a11.71,11.71,0,0,0-10.28,10.11L359.57,385.56q-9.73,8-19.54,16.21-5.39,4.5-10.77,9-5.54,4.65-11,9.28l-7.31,6.17-11.06,9.38c-1.13,1-2.24,1.91-3.36,2.86l-3.56,3-3.53,3c-10.57,9-20.82,17.81-30.54,26.2-33.36,3-70.1,5.33-108.81,6.35q-10.53.29-20.4.84a228.89,228.89,0,0,0-48.92-51.51,73.64,73.64,0,0,0-45.11-15.25,5.19,5.19,0,0,0-5.19,5.19,5.11,5.11,0,0,0,.59,2.39l6.82,13.08q13.72,26.32,25.44,53.62c-8.77,1.56-17,3.29-24.6,5.13a3.62,3.62,0,0,0,.28,7.1l31.48,5h0q11.48,28.61,20.72,58.05a41.95,41.95,0,0,1-3.06,32.37l-18.6,34.65a355.15,355.15,0,0,1-54.34,75.52,6.23,6.23,0,0,0-1.75,4.32A6.36,6.36,0,0,0,19.8,714a120.44,120.44,0,0,0,38.56-6.34,119.45,119.45,0,0,0,34.48-18.39c25.89-19.86,56.39-52.46,67.24-100.58L205.17,596c1.78.29,3.57.58,5.35.85a59.76,59.76,0,0,0-6,8.44,62.72,62.72,0,0,0-4.92,10.48,3.78,3.78,0,0,0,5,4.76,417.56,417.56,0,0,1,50.68-17.85q6.33.66,12.66,1.21l.12,0c2.52.38,43.08,7.09,64.4,45.14a7.57,7.57,0,0,0,12.47,1c6-7.34,12.74-20.73,11.29-43q10-.16,19.94-.58,4.83-.2,9.66-.45,7.4-.39,14.78-.91T415.39,604q24.6-2.17,49.06-5.85c3.26-.48,6.51-1,9.77-1.52q7.32-1.2,14.63-2.52t14.59-2.78c3.23-.65,6.47-1.32,9.7-2l1.47-.32c14.58-3.18,40.82-10,44.15-10.85A1.25,1.25,0,0,0,559,578l.09,0a189.43,189.43,0,0,0,57.19,43.66c43.54,21.53,71.57,49,87.44,68.36a189.63,189.63,0,0,0,37.51,35.18c17.6,12.33,31.92,29.11,41.21,41.67A11.23,11.23,0,0,0,802,764.23a78.87,78.87,0,0,0,3.51-44.42c-19.61-93-90-171.47-114.16-196.15l.09-.06c1.77-1.11,29.44-18.54,43.83-29.57l1.39-1.08q5.06-4,9.93-8c.95-.78,1.9-1.57,2.84-2.37q2-1.68,4-3.39l3.29-2.87c1-.9,2.05-1.81,3.07-2.73.33-.29.67-.59,1-.9.78-.69,1.55-1.39,2.32-2.1,1.06-1,2.11-1.94,3.16-2.91l2.93-2.75.43-.41c1.14-1.08,2.27-2.16,3.39-3.26l.33-.32c1.07-1,2.12-2.06,3.16-3.1s1.92-1.89,2.86-2.85c.68-.68,1.36-1.36,2-2.05l2.81-2.89,2.63-2.76c.71-.74,1.41-1.49,2.09-2.23q1.53-1.6,3-3.23,3.57-3.87,7-7.78c.84-1,1.68-1.91,2.5-2.87q4.62-5.35,9-10.75l1.76-2.19q2.66-3.3,5.2-6.61,1.11-1.42,2.19-2.85l2.29-3,2.48-3.36c.88-1.2,1.76-2.41,2.63-3.62.73-1,1.45-2,2.18-3.05q2.91-4.11,5.69-8.24l1.87-2.79c.9-1.34,1.78-2.69,2.66-4l.06-.1a10,10,0,0,0-.76-11.74l15.82-19.44a9.28,9.28,0,0,0,8.3-2.41l.15-.15,2.37-2.42c1.87-1.93,4-4.17,6.34-6.67.47-.49.94-1,1.41-1.51l2.64-2.88c.46-.52.94-1,1.42-1.57l2.82-3.15c.53-.6,1.07-1.2,1.6-1.82q2.1-2.4,4.29-5,2.52-3,5.1-6.11c.92-1.12,1.84-2.25,2.76-3.41.69-.85,1.38-1.72,2.07-2.6l1.61-2.07c1.08-1.38,2.16-2.79,3.22-4.21s2.14-2.86,3.19-4.31l1.58-2.19c.53-.73,1.05-1.47,1.57-2.21l1.54-2.22c1.53-2.23,3-4.48,4.51-6.76.49-.76,1-1.53,1.46-2.3q1.44-2.3,2.82-4.6c.46-.77.91-1.54,1.36-2.31l.06-.1,1.26-2.22,1.28-2.32c.84-1.55,1.66-3.1,2.44-4.66s1.54-3.1,2.25-4.65c.36-.77.71-1.55,1-2.32.25-.57.5-1.15.74-1.72.14-.31.27-.61.39-.92.27-.66.54-1.32.8-2s.6-1.53.88-2.3.51-1.4.75-2.09c0-.12.08-.25.13-.37.24-.71.47-1.42.69-2.12s.47-1.51.69-2.27C936.2,231.79,937.11,220.25,936.34,211.29ZM199,522.8a172.68,172.68,0,0,1-39,25.82s-2.22-16.86-13.2-40.55h69C209.63,513.51,204,518.46,199,522.8Z"/><path class="cls-3" d="M802,764.23c-15.27-139.34-130.35-229.7-130.35-229.7q10-5.19,19.7-10.87c24.13,24.68,94.55,103.16,114.16,196.15A78.87,78.87,0,0,1,802,764.23Z"/><path class="cls-3" d="M457.08,309h0c-27,19.42-61.74,47.05-97.51,76.54l16.87-128.67a11.71,11.71,0,0,1,10.28-10.11C433.75,241.41,455.27,303.49,457.08,309Z"/><path class="cls-3" d="M129.51,583.65l30.57,5c-10.85,48.12-41.35,80.72-67.24,100.58a119.45,119.45,0,0,1-34.48,18.39A120.44,120.44,0,0,1,19.8,714a6.36,6.36,0,0,1-6.38-6.4,6.23,6.23,0,0,1,1.75-4.32,355.15,355.15,0,0,0,54.34-75.52l18.6-34.65a41.95,41.95,0,0,0,3.06-32.37q-9.22-29.43-20.72-58.05l6.19,1a359.35,359.35,0,0,0,56.26,4.44h14c11,23.69,13.2,40.55,13.2,40.55q-5.58,2.7-11.35,5l-21.54,8.55a11.17,11.17,0,0,0-5.15,4.12c-.14.21-.27.42-.4.64s-.19.34-.28.52a4.47,4.47,0,0,0-.24.49c-.07.16-.14.32-.2.48a5.93,5.93,0,0,0-.22.59,6.35,6.35,0,0,0-.2.66.85.85,0,0,0,0,.17,3.54,3.54,0,0,0-.11.47,1.94,1.94,0,0,0-.06.35,2.67,2.67,0,0,0-.08.48,1,1,0,0,0,0,.24,5,5,0,0,0-.05.67,4.87,4.87,0,0,0,0,.54A11.21,11.21,0,0,0,129.51,583.65Z"/><path class="cls-3" d="M129.67,477.91q-3.45.2-6.82.42l-1.61.11-3.9.28q-13.57,1-25.89,2.52c-1.17.13-2.34.28-3.49.43s-2.3.29-3.44.45l-3.4.46c-2.25.32-4.46.64-6.64,1s-4.33.68-6.44,1q-1.59.26-3.15.54l-1.6.28q-11.7-27.27-25.44-53.62L31,418.72a5.11,5.11,0,0,1-.59-2.39,5.19,5.19,0,0,1,5.19-5.19,73.64,73.64,0,0,1,45.11,15.25q2.53,2,4.95,3.94t4.75,4q4.64,4,8.89,8,1.69,1.62,3.33,3.25c.82.81,1.63,1.62,2.42,2.43a226.14,226.14,0,0,1,15.11,17.07c.86,1.08,1.7,2.15,2.52,3.22q3.72,4.83,6.95,9.57A0,0,0,0,1,129.67,477.91Z"/><path class="cls-3" d="M932,246.45a120.68,120.68,0,0,1-8.55,21.1c-7.19-19-18.37-37.1-37.57-39.53-11.52-1.45-23.19,3.54-34.65,1.69-8.45-1.36-18-6.1-24.73-.84-8,6.24-5,22.21-14.57,25.46-5.12,1.74-10.35-1.68-15.49-3.33-19.6-6.31-37.32,12.91-56.74,19.73-20.23,7.1-43.84.57-63.17,9.84-18.08,8.67-28.64,29.51-47.58,36.09-9.54,3.31-20.2,2.56-29.52,6.44-21,8.76-30,38.53-52.6,41.67-8.56,1.19-17-2-25.55-3.41A64.73,64.73,0,0,0,447,438.23c1.74,8.47,4.59,18.89-2,24.52-2.35,2-5.45,2.85-8.44,3.6-52.48,13.23-122,15.94-192.24,16.88-74.12,1-149.06,0-205.7,7.32,28.81-6.93,65.44-12.26,111.37-13.48,38.71-1,75.44-3.38,108.8-6.35C328,411.06,423.58,330.7,474.35,297c85.41-56.64,146.55-78.22,146.55-78.22s139.36-53.41,286.23-37.22a32.91,32.91,0,0,1,29.21,29.69C937.11,220.25,936.2,231.79,932,246.45Z"/><path class="cls-3" d="M308.53,514.14c-14.54,2.3-28.75,5.91-41.7,12.77-9.35,4.95-18.21,11.63-28.68,13.06-3.38.45-6.82.34-10.2.79-4.61.62-9,2.27-13.36,3.91l-34.24,12.91c-9.23,3.48-18.46,7-27.87,9.86-10.37,3.2-21.72,5.59-32.35,4.6a11.15,11.15,0,0,1,7.06-9.88l21.54-8.55A173,173,0,0,0,199,522.8c4.93-4.34,10.57-9.28,16.8-14.73h41.62A217.66,217.66,0,0,1,308.53,514.14Z"/><path class="cls-4" d="M691.34,523.66c24.13,24.68,94.55,103.16,114.16,196.15A78.87,78.87,0,0,1,802,764.23a11.23,11.23,0,0,1-19.53,2.65c-9.29-12.56-23.61-29.34-41.21-41.67A189.63,189.63,0,0,1,703.74,690c-15.87-19.32-43.9-46.83-87.44-68.36A189.43,189.43,0,0,1,559.11,578"/><path class="cls-4" d="M346.38,525.64l-22.25-7.14a218.26,218.26,0,0,0-66.66-10.43H132.89a358.83,358.83,0,0,1-56.25-4.44l-37.68-6a3.62,3.62,0,0,1-.28-7.1c28.81-6.93,65.44-12.26,111.38-13.48,156-4.13,280-30,280-30"/><path class="cls-4" d="M359.57,385.56l16.87-128.67a11.71,11.71,0,0,1,10.28-10.11c47-5.37,68.55,56.71,70.36,62.23.09.26.13.39.13.39"/><path class="cls-4" d="M215.85,508.07c-6.23,5.45-11.87,10.39-16.8,14.73a173,173,0,0,1-50.32,30.81l-21.54,8.55a11.21,11.21,0,0,0,2.32,21.49L205.17,596c1.78.29,3.57.58,5.35.85"/><path class="cls-4" d="M838.61,368.78a10,10,0,0,1,.76,11.74l-.06.1c-.88,1.34-1.76,2.69-2.66,4l-1.87,2.79q-2.79,4.13-5.69,8.24c-.73,1-1.45,2-2.18,3.05q-1.3,1.82-2.63,3.62l-2.48,3.36-2.29,3q-1.08,1.43-2.19,2.85-2.55,3.31-5.2,6.61l-1.76,2.19q-4.38,5.4-9,10.75c-.82,1-1.66,1.91-2.5,2.87q-3.42,3.9-7,7.78-1.47,1.62-3,3.23c-.68.74-1.38,1.49-2.09,2.23L784.17,450l-2.81,2.89c-.67.69-1.35,1.37-2,2.05-.94,1-1.9,1.91-2.86,2.85s-2.09,2.08-3.16,3.1l-.33.32c-1.12,1.1-2.25,2.18-3.39,3.26l-.43.41-2.93,2.75c-1.05,1-2.1,1.95-3.16,2.91-.77.71-1.54,1.41-2.32,2.1-.33.31-.67.61-1,.9-1,.92-2,1.83-3.07,2.73l-3.29,2.87c-1.31,1.14-2.64,2.27-4,3.39-.94.8-1.89,1.59-2.84,2.37q-4.87,4.06-9.93,8L735.26,494a397.56,397.56,0,0,1-43.83,29.57l-.09.06c-41.5,24.27-87.07,41.77-132.23,54.35l-.09,0a1.25,1.25,0,0,1-.26.07c-14.81,4.13-29.58,7.72-44.15,10.85l-1.47.32c-3.23.69-6.47,1.36-9.7,2q-7.29,1.46-14.59,2.78t-14.63,2.52c-3.26.53-6.51,1-9.77,1.52Q440,601.78,415.39,604q-7.38.66-14.77,1.18t-14.78.91q-4.83.25-9.66.45-10,.42-19.94.58a839.91,839.91,0,0,1-88.16-3.13l-.12,0q-6.33-.54-12.66-1.21"/><path class="cls-4" d="M356.24,607.07c1.45,22.29-5.32,35.68-11.29,43a7.57,7.57,0,0,1-12.47-1c-21.32-38-61.88-44.76-64.4-45.14l-.12,0"/><path class="cls-4" d="M241.86,577.53a60.58,60.58,0,0,0-42.27,38.28,3.78,3.78,0,0,0,5,4.76c17.2-7.32,61.14-24.54,96.77-25.82"/><circle cx="744.34" cy="229.71" r="11.47"/><path class="cls-4" d="M649.72,327.06a179.7,179.7,0,0,1,21.92-7.3,244.71,244.71,0,0,1,57.1-8.53h.17a206.34,206.34,0,0,1,42.6,3.17,187.1,187.1,0,0,1,22.13,5.43,174.89,174.89,0,0,1,22.9,8.91h0c11,5.16,23.15,11,34.2,19a9.57,9.57,0,0,0,3.68,1.61,9.28,9.28,0,0,0,8.3-2.41l.15-.15,2.37-2.42c1.88-1.93,4-4.17,6.34-6.67.47-.49.94-1,1.41-1.51l2.64-2.88c.47-.51,1-1,1.42-1.57q1.4-1.53,2.82-3.15c.53-.6,1.07-1.2,1.6-1.82q2.12-2.4,4.29-5,2.52-3,5.1-6.11c.92-1.12,1.84-2.25,2.76-3.41.69-.85,1.38-1.72,2.07-2.6.54-.68,1.08-1.37,1.61-2.07,1.08-1.38,2.16-2.79,3.22-4.21s2.14-2.86,3.19-4.31c.54-.72,1.06-1.45,1.58-2.19s1.05-1.47,1.57-2.21,1-1.47,1.54-2.22c1.54-2.23,3.05-4.48,4.51-6.76.49-.76,1-1.53,1.46-2.3q1.46-2.29,2.82-4.6c.46-.77.92-1.54,1.36-2.31l.06-.1q.64-1.11,1.26-2.22c.44-.77.87-1.54,1.28-2.32q1.27-2.32,2.44-4.66t2.25-4.65c.36-.77.71-1.54,1-2.32.26-.57.5-1.15.74-1.72.14-.31.27-.61.39-.92.28-.67.55-1.33.8-2s.6-1.54.88-2.3.51-1.39.75-2.09c0-.12.08-.25.13-.37.24-.71.47-1.42.69-2.12s.47-1.52.69-2.27c4.23-14.66,5.14-26.2,4.37-35.16a32.91,32.91,0,0,0-29.21-29.69C760.26,165.41,620.9,218.82,620.9,218.82S559.76,240.4,474.35,297c-5.3,3.51-11.08,7.53-17.27,12-27,19.42-61.74,47.05-97.51,76.54q-9.74,8-19.54,16.21-5.4,4.5-10.77,9-5.53,4.65-11,9.28l-7.31,6.17-11.06,9.38c-1.13.95-2.24,1.91-3.36,2.86l-3.56,3-3.53,3c-10.57,9-20.82,17.81-30.54,26.2h0"/><path class="cls-5" d="M705.27,313.16l6.35,7,17.12-8.93,4.13,9.92,14.71-9.61,3.78,12.58,20.15-9.72L774.76,330l18.88-10.21,3.22,18.72,19.68-9.81-3.4,19.55,23-8.74-7.28,20,25.57-10.18-15.82,19.44a106.48,106.48,0,0,0-9.75-9.26c-56.36-47.41-157.22-39.76-157.22-39.76"/><path class="cls-5" d="M137.9,571.32a285.06,285.06,0,0,0,85-30.9"/><path class="cls-5" d="M70.45,502.65q11.47,28.61,20.72,58a41.95,41.95,0,0,1-3.06,32.37l-18.6,34.65a355.15,355.15,0,0,1-54.34,75.52,6.23,6.23,0,0,0-1.75,4.32A6.36,6.36,0,0,0,19.8,714a120.45,120.45,0,0,0,38.56-6.34,119.46,119.46,0,0,0,34.48-18.39c25.89-19.86,56.39-52.46,67.24-100.58"/><path class="cls-5" d="M63.29,485.42q-11.7-27.27-25.44-53.62L31,418.72a5.12,5.12,0,0,1-.59-2.39,5.19,5.19,0,0,1,5.19-5.19,73.64,73.64,0,0,1,45.11,15.25,229,229,0,0,1,48.93,51.52"/><path class="cls-5" d="M160.08,548.62s-2.22-16.86-13.2-40.55"/><polygon points="854.43 349.34 828.86 359.52 838.61 368.78 854.43 349.34"/><polygon points="813.14 348.29 828.86 359.52 836.14 339.55 813.14 348.29"/><polygon points="796.86 338.55 816.54 328.74 813.14 348.29 796.86 338.55"/><polygon points="774.76 330.04 793.64 319.83 796.86 338.55 774.76 330.04"/><polygon points="751.36 324.12 771.51 314.4 774.76 330.04 751.36 324.12"/><polygon points="732.87 321.15 747.58 311.54 751.36 324.12 732.87 321.15"/><polygon points="715.03 319.46 728.75 311.23 732.87 321.15 715.03 319.46"/><polygon points="690.12 316.19 696.56 319.43 715.03 319.46 709.69 311.23 690.12 316.19"/></g></svg>