<svg xmlns="http://www.w3.org/2000/svg" viewBox="0 0 950 950"><defs><style>.cls-1{fill:#7f62f9;}.cls-2{fill:#e6f4f4;}.cls-3,.cls-9{fill:#91f291;}.cls-12,.cls-4{fill:#45a35d;}.cls-5{fill:#ddbe6f;}.cls-6{fill:none;}.cls-11,.cls-12,.cls-6,.cls-8,.cls-9{stroke:#000;stroke-linecap:round;stroke-linejoin:round;stroke-width:5px;}.cls-7,.cls-8{fill:#b56924;}.cls-10{fill:#d8d8d8;}.cls-11{fill:#881099;}</style></defs><title>med_salad</title><g id="med"><circle class="cls-1" cx="475" cy="475" r="359.12"/><path class="cls-2" d="M772.19,457.45,766,496S754.23,623.86,587.77,727.78c0,0-31.49,65.21-144.79,68.1S294.4,753.75,294.4,753.75l-20.75-26S102.21,637.47,92.73,457.45l-4.08-29.51s-3.56-78.72,105.84-144S445,226.35,503,231.87,796.56,295.83,772.19,457.45Z"/><path class="cls-3" d="M322.35,310.4s17.94-54.34,79.6-43.17l-8.53,34.32-28.08,9.74,11.12,3.56,10.78,1.93-3.51,11.83Z"/><path class="cls-4" d="M463.61,278.39a174.48,174.48,0,0,0-18.51-3.54H445c-15.66-2.08-32.14-1.77-46.46,3.79l-5.15,22.92,45.15-15.64s0,0,0,0a35.24,35.24,0,0,1-9.07,16.47.32.32,0,0,1-.1.11c-7,7.29-19,14.27-39.67,14.48l-6,11.61L322.35,310.4c.09-.28.17-.58.27-.86a83.17,83.17,0,0,1,7.52-16l.17-.27c4.61-7.57,11.49-16,21.11-21.55H344.1l-26,8.91-.06,0-19.89,7.92-.09,0-20.36,2.91a0,0,0,0,1,0,0h-.1l-16.35,2.34-12.47,6L211,338.05q-8.27,9.13-16.52,18.3l10.87,24h0l14.6,32.3-3.18,3.94L205.9,430.09l-4.9-6.16-15.19-19.12-4.2-5.3h0L164.42,377.9h-.12c-.35,0-1.36.09-2.85.29h-.07A64.38,64.38,0,0,0,152.7,380h0c-13.82,3.9-34.79,14.78-33.52,44.85,0,.19,0,.38,0,.58a28.07,28.07,0,0,1,.31,7.83,27.39,27.39,0,0,1-1.3,6.17c-.1.32-.2.62-.32.93s-.12.31-.18.45-.12.31-.19.46A26,26,0,0,1,107,453.45l0,0c-.57.61-11.52,12.6-6.46,23.52.15.33.31.65.49,1a.18.18,0,0,0,0,.08l.12.23h0l0,.08c.06.14.14.27.2.41A113.16,113.16,0,0,0,110.07,493a1.62,1.62,0,0,1,.12.17c.53.78,1.1,1.57,1.71,2.4.42.58.85,1.17,1.3,1.77.16.22.32.43.49.65.51.69,1.05,1.4,1.62,2.13l1,1.2c30.84,39.24,115.3,114.8,308.54,116.18l1.91,0h1.13a795,795,0,0,0,81.82-6.11c14.93-1.88,30.9-4.33,47-7.55h0a425.83,425.83,0,0,0,59.41-16l1.19-.43c6.72-2.42,13.24-5,19.49-7.89l1.11-.5,34.61-17.49,15.73-10.68h0l11.23-7.63,14.7-10,4.13-4.38L741.75,504l5.69-6,15-26.45,2.07-3.64s1-37.69-13.28-58.56l0,0a31.4,31.4,0,0,0-12-10.8s-7.16-1-16.49-6.13l-.07,0h0a66.54,66.54,0,0,1-12.09-8.65A76.62,76.62,0,0,1,694,362s0,0,0,0c-.31-.71-8.5-19.1-47.5-23.61h0s-23.77-2.67-24.72-33.76v-.11c-.54-18.55-17.66-26.36-35.05-29.8h0c-11.85-2.34-23.82-2.65-30.77-2.92h-.07c-17.11-.65-21.87,20.78-21.87,20.78l-8.67,4.76h0l-17.46-3.54-1.81-.37h0l-.07,0Z"/><path class="cls-5" d="M272.86,596.91,321.38,608l80.48,8.33,26,1.19c145.56,2.86,237.54-52,237.54-52l41.13-25.43,20.77-18.6,1.7-1.68c1.9-19.82-6.75-40.46-19.58-61.59-10.4-17.12-26-32-45.27-37.32-31.18-8.6-66.74,8.52-95.86-5.57-10.33-5-18.66-13.53-29.05-18.41-12.86-6.06-27.92-6.12-40.75-12.26-14.2-6.8-24.39-20.45-38.91-26.53-18.29-7.65-39.13-1.8-58.06,4.12l-64.63,20.21c-12,3.73-24.65,8-32.38,17.81-6.85,8.73-9.25,21.23-18.62,27.15-6.59,4.15-15.08,3.94-22.1,7.3-14.48,6.93-17.93,26-17,42s4.27,33.18-3.28,47.34c-3.2,6-8.17,11-11.16,17.08-3.25,6.66-4,14.29-3.57,21.69a73.46,73.46,0,0,0,4,20.18Z"/><path class="cls-6" d="M729,519.82c1.9-19.82-6.75-40.46-19.58-61.59-10.4-17.12-26-32-45.27-37.32-31.18-8.6-66.74,8.52-95.86-5.57-10.33-5-18.66-13.53-29.05-18.41-12.86-6.06-27.92-6.12-40.75-12.26-14.2-6.8-24.39-20.45-38.91-26.53-18.29-7.65-39.13-1.8-58.06,4.12l-64.63,20.21c-12,3.73-24.65,8-32.38,17.81-6.85,8.73-9.25,21.23-18.62,27.15-6.59,4.15-15.08,3.94-22.1,7.3-14.48,6.93-17.93,26-17,42s4.27,33.18-3.28,47.34c-3.2,6-8.17,11-11.16,17.08-3.25,6.66-4,14.29-3.57,21.69a73.46,73.46,0,0,0,4,20.18"/><path class="cls-7" d="M543.57,373.5l16.14-21.69s-4.48-21.1-31.16-20.6L494,405.95l21.87,4.72,3.26-38.59Z"/><polygon class="cls-4" points="510.06 612.54 495.19 570.97 550.94 570.93 556.67 603.88 510.06 612.54"/><polygon class="cls-4" points="338.77 610.83 356.06 570.93 396.79 609 391.97 616.35 338.77 610.83"/><polygon class="cls-4" points="294.39 507.05 313.16 559.55 357.92 551.77 353.53 526.51 336.91 507.03 294.39 507.05"/><path class="cls-6" d="M88.93,421.37C84.18,600,235.72,754.42,410.19,764.92q10.25.62,20.53.62"/><path class="cls-6" d="M273.64,727.78c12.47,24.8,37.67,40.22,62.49,50.45,29.79,12.27,61.53,17.65,93.66,17.65h1.82c32.13,0,63.88-5.39,93.66-17.65,24.83-10.22,50-25.65,62.49-50.45"/><path class="cls-6" d="M430.7,765.53q10.27,0,20.53-.62c174.46-10.49,327-166,322.24-344.65"/><path class="cls-6" d="M525,610.48a632.51,632.51,0,0,1-188.62,0c-46.71-7-89.84-18.85-132.42-40.75-31-16-61.9-37.71-84.52-64.48-71.63-84.81-6.08-170.07,71.27-219C279.6,230.12,396,223,498.65,231.47,632.56,242.56,856.6,360.06,742,505.25c-21.72,27.5-53.47,48.51-84.52,64.48C614.86,591.63,571.73,603.43,525,610.48Z"/><path class="cls-6" d="M101.17,478.51a1.69,1.69,0,0,1,0-.24h0c-1.08-9.12,0-18,5.83-24.81,2.93-3.42,6.85-6,9.28-9.78a20.85,20.85,0,0,0,3-10.11c.36-5.32-.42-11-.19-16.35.76-17.94,15-34.43,32.58-37.83h0c4.18-.8,8.52-1,12.76-1.48h0"/><path class="cls-6" d="M507.83,294.09c6.42,2.21,12.55,3.64,17.36,3.24h0a11.58,11.58,0,0,0,5.75-1.86,12.5,12.5,0,0,0,2.92-2.91c2.15-2.89,3.46-6.54,5.43-9.62,3.68-5.75,9.76-9.42,16.43-11.16A37.82,37.82,0,0,1,566,270.56c7.09.11,14,1.88,20.7,4.14h0c3,1,6,2.11,8.91,3.19,8.09,3,16.72,6.42,21.52,13.59,2.61,3.9,3.76,8.43,4.63,13.08v0c1.1,5.78,1.78,11.77,4.35,17,4.46,9.11,11.92,13.72,20.37,16.78h0c8.88,3.23,18.87,4.75,27.58,8,9,3.37,14.88,9.13,19.93,15.57,0,0,0,0,0,0,5.6,7.14,10.14,15.13,16.6,21.63a41.74,41.74,0,0,0,11.92,8.57l.17.08h0c5.33,2.49,11.27,3.69,16.56,6.17a26.5,26.5,0,0,1,4.1,2.3,28.57,28.57,0,0,1,7.89,8.5l0,0a62.57,62.57,0,0,1,6.39,15.27,170.53,170.53,0,0,1,6.88,43.29"/><path class="cls-6" d="M465.07,277.93a143.4,143.4,0,0,0-66.51.7"/><path class="cls-6" d="M354.29,271.75c-20.25-3.14-40.67,14.19-62,18.31-10.25,2-21,.86-31,3.83-13.76,4.09-24.1,15.2-33.72,25.86L211,338.06q-9.15,10.12-18.29,20.26"/><path class="cls-8" d="M154.67,365.64s10.58-22.58,32.4-18.57l32.88,65.6-14,17.41Z"/><path class="cls-8" d="M281.43,430.28S266.16,410.56,279.7,393l73.38.68,9.08,20.44Z"/><path class="cls-6" d="M543.57,373.5l16.14-21.69c-6.22-21.3-31.16-20.6-31.16-20.6L494,405.95l21.87,4.72.84-1.13"/><path class="cls-8" d="M398.14,521.35s-4.86,24.46-27,25.79l-47.63-55.82L333,471Z"/><path class="cls-6" d="M387.24,316.78l-3.51,11.84-61.38-18.21A64,64,0,0,1,402,267.23l-3.38,11.41-7,23.55"/><path class="cls-6" d="M532.31,471.71a19,19,0,0,0,4.55.52c18.36,0,18.36-22.64,36.72-22.64s18.36,22.64,36.72,22.64S628.65,449.6,647,449.6A17.57,17.57,0,0,1,657.74,453"/><path class="cls-6" d="M696.52,467.14c7.3-6.68,11.22-17.54,23.94-17.54,18.36,0,18.36,22.64,36.72,22.64a18.56,18.56,0,0,0,5.84-.89h0"/><path class="cls-6" d="M521.73,464.75h0c-5.94-6.59-10.29-15.14-21.57-15.14-7.53,0-12,3.8-15.86,8.3"/><path class="cls-6" d="M519.16,501.32c4.38,5.38,9,10.5,17.7,10.5,18.36,0,18.36-22.64,36.72-22.64s18.36,22.64,36.72,22.64,18.36-22.64,36.72-22.64,18.36,22.64,36.72,22.64,18.36-22.64,36.73-22.64c11.5,0,15.8,8.88,21.92,15.52"/><path class="cls-6" d="M431.34,489.72a19.62,19.62,0,0,0-4.63-.53"/><path class="cls-6" d="M443,498c5.4,6.36,9.88,13.86,20.45,13.86,7.32,0,11.73-3.6,15.53-7.92"/><path class="cls-6" d="M451.76,547.29a17.71,17.71,0,0,0,11.67,4.13c18.36,0,18.36-22.64,36.72-22.64s18.36,22.64,36.72,22.64c16.13,0,18.09-17.46,30.76-21.71"/><path class="cls-6" d="M616.86,550.28c12.13-4.6,14.29-21.49,30.15-21.49,18.36,0,18.36,22.64,36.72,22.64a19.12,19.12,0,0,0,4.48-.51h0a16.47,16.47,0,0,0,4.61-1.83l0,0,0,0,.17-.1a15.27,15.27,0,0,0,1.66-1.12h0l.08-.06.09-.06a31.46,31.46,0,0,0,4.54-4.4c5.26-6,9.46-13.39,18.83-14.37.36,0,.72-.07,1.11-.09"/><path class="cls-6" d="M426.72,528.79c7.91,0,12.42,4.2,16.45,9"/><path class="cls-9" d="M677.35,396.82,625.92,435l-38.15-51.42A64,64,0,0,1,677.35,396.82Z"/><path class="cls-10" d="M580.17,364.8h0a44.46,44.46,0,0,0-30,10.35l-7.34,6.15q-1.52,1.27-2.92,2.68l-77.19,77.36a6.91,6.91,0,0,0-.41,9.32h0l86.29-76.11a2,2,0,0,1,2.92.22h0a2,2,0,0,1-.18,2.81l-84.52,78.47,4.06,4.85,89.18-72.78a2,2,0,0,1,2.86.27h0a2,2,0,0,1-.23,2.86l-87.29,75,4.06,4.85,92.08-69.44a2,2,0,0,1,2.8.32h0a2,2,0,0,1-.3,2.91L484,496.54h0a6.91,6.91,0,0,0,9.25,1.24L583,435.35q1.63-1.13,3.15-2.41l7.34-6.15a44.46,44.46,0,0,0,15.45-27.67v-.05a44.46,44.46,0,0,1,14.82-27.14L639.4,358.3A1431.18,1431.18,0,0,1,810.89,230.37l31.34-19.92,9.28-7.77A27.56,27.56,0,0,0,860.81,176h0A27.56,27.56,0,0,0,844,155.93h0a27.56,27.56,0,0,0-27.86,4.49l-9.25,7.75-25.15,27.35a1431.18,1431.18,0,0,1-156,146.39L609.48,355A44.46,44.46,0,0,1,580.17,364.8Z"/><path d="M833.81,154a27.56,27.56,0,0,1,17.69,48.69l-9.28,7.77-31.34,19.92A1431.19,1431.19,0,0,0,639.4,358.3l-15.66,13.62a44.46,44.46,0,0,0-14.82,27.14v.05a44.46,44.46,0,0,1-15.45,27.67l-7.34,6.15q-1.52,1.27-3.15,2.41l-89.7,62.42a6.91,6.91,0,0,1-9.25-1.24l90.07-71.6a2,2,0,0,0-2.5-3.23l-92.08,69.44-4.06-4.85,87.29-75a2,2,0,0,0,.23-2.86h0a2,2,0,0,0-2.86-.27L470.93,480.9l-4.06-4.85,84.52-78.47a2,2,0,0,0-2.74-3l-86.29,76.11a6.91,6.91,0,0,1,.41-9.32L539.95,384q1.4-1.4,2.92-2.68l7.34-6.15a44.46,44.46,0,0,1,28.55-10.38l1.41,0,1.41,0A44.46,44.46,0,0,0,609.48,355l16.19-13.06a1431.14,1431.14,0,0,0,156-146.39l25.15-27.35,9.25-7.75a27.55,27.55,0,0,1,17.7-6.43m0-5a32.62,32.62,0,0,0-20.91,7.6l-9.25,7.75a5,5,0,0,0-.47.45L778,192.14A1430.84,1430.84,0,0,1,622.53,338l-16.19,13.06a39.58,39.58,0,0,1-24.77,8.74l-1.25,0-1.56,0A49.54,49.54,0,0,0,547,371.32l-7.34,6.15c-1.13.94-2.22,1.95-3.25,3l-77.19,77.36a11.85,11.85,0,0,0-.7,16.06,5,5,0,0,0,3.37,1.77,5,5,0,0,0,1.15,3.63l4.06,4.85a5,5,0,0,0,3.37,1.77,5,5,0,0,0,1.15,3.62l4.06,4.85a5,5,0,0,0,3.37,1.77,5,5,0,0,0,1.15,3.63,11.91,11.91,0,0,0,15.94,2.13l89.7-62.42c1.2-.84,2.38-1.74,3.51-2.68l7.35-6.15a49.4,49.4,0,0,0,17.18-30.78v-.05A39.48,39.48,0,0,1,627,375.7l15.66-13.62A1430.86,1430.86,0,0,1,813.57,234.59l31.34-19.92a4.93,4.93,0,0,0,.53-.39l9.28-7.77A32.56,32.56,0,0,0,833.81,149Z"/><path class="cls-11" d="M165,493.41s60.87,2.28,59-50.24Z"/><path class="cls-11" d="M704.08,473.6S661.49,430,626.7,469.43Z"/><path class="cls-11" d="M365.34,311.29s55.89,24.23,73.22-25.38Z"/><path class="cls-11" d="M462,527S405,548.41,427,596.15Z"/><path class="cls-6" d="M211,338.05a18.84,18.84,0,0,1,5-.63c18.36,0,18.36,22.64,36.73,22.64s18.36-22.64,36.73-22.64,18.36,22.64,36.72,22.64"/><path class="cls-6" d="M204.2,381.26A17.7,17.7,0,0,1,216,377c18.36,0,18.36,22.64,36.73,22.64S271.07,377,289.44,377c11.93,0,16.11,9.56,22.61,16.25"/><path class="cls-6" d="M181.61,399.53a19.47,19.47,0,0,1-2.34.14c-14.68,0-17.62-14.48-27.6-20.27h0"/><path class="cls-6" d="M216.75,416.63c17.59.62,17.85,22.62,36,22.62,12.76,0,16.65-10.92,24-17.59"/><path class="cls-6" d="M305.71,425.41c5.4,6.36,9.88,13.84,20.44,13.84"/><path class="cls-6" d="M119.24,433.57c6.9-6.7,10.94-17,23.3-17,18.37,0,18.37,22.64,36.73,22.64,11.39,0,15.71-8.71,21.74-15.32"/><polygon class="cls-12" points="250.58 557.72 204.2 526.78 222.59 485.25 264.13 503.64 250.58 557.72"/><polygon class="cls-12" points="463.57 336.08 455.92 280.86 499.19 267.03 513.01 310.31 463.57 336.08"/><polygon class="cls-12" points="369.91 396.04 416.17 364.93 447.58 397.75 414.76 429.15 369.91 396.04"/><polyline class="cls-6" points="510.06 612.54 509.67 611.43 495.19 570.97 550.94 570.93 556.67 603.88 556.82 604.76"/><polyline class="cls-6" points="353.53 526.51 357.92 551.77 313.16 559.55 294.39 507.05 336.91 507.03"/><polygon class="cls-12" points="619.91 577.04 565.62 564.37 568.25 519.02 613.6 521.65 619.91 577.04"/><polygon class="cls-12" points="570.58 430.09 516.28 417.42 518.92 372.07 564.27 374.7 570.58 430.09"/><polyline class="cls-6" points="338.77 610.83 356.06 570.93 396.79 609 391.97 616.35"/><path class="cls-3" d="M482.47,458.14s6.47-19.88,2.35-32.11l-63,11.48,11.47,63s21.48-3,28.73-15.26l-8.19-17.39S471.14,458.81,482.47,458.14Z"/><path class="cls-6" d="M482.47,458.14A63.94,63.94,0,0,0,484.82,426l-63,11.48,9.51,52.21,2,10.79A64.25,64.25,0,0,0,443,498a63.58,63.58,0,0,0,21.9-13"/><path class="cls-9" d="M543.43,483.33,492,521.48l-38.15-51.42A64,64,0,0,1,543.43,483.33Z"/></g></svg>