<svg xmlns="http://www.w3.org/2000/svg" viewBox="0 0 950 950"><defs><style>.cls-1{fill:#ff9843;}.cls-2{fill:#26262d;}.cls-3{fill:#35358e;}.cls-4{fill:#fff;}.cls-5{fill:#edbca6;}.cls-6{fill:#9b9b9b;}.cls-7,.cls-8{fill:none;stroke:#000;stroke-linecap:round;stroke-linejoin:round;}.cls-7{stroke-width:10px;}.cls-8{stroke-width:5px;}</style></defs><title>ra_fisher</title><g id="fisher"><circle class="cls-1" cx="475" cy="475" r="359.12"/><path class="cls-2" d="M366.26,546.58l-5.34,31.51s-17.06,41.69,25.87,54.61c0,0,3,36.44,12.6,48.52,0,0-6.42,111.51,36.91,173h0c-3.79,1.13-20.26,1.74-43.37,2-127.66,1.58-233.52-98.51-239.27-226h0s31.92-41.78,98.5-40.61L295,577.28Z"/><path class="cls-2" d="M638.48,551.77v11.69l-5,22.79-19.31,26.08s-23.32,28.72-36.84,103.1-91.53,146.28-91.53,146.28h0a109.39,109.39,0,0,0,77-4.63l3-1.35h0a52,52,0,0,1,52.57-18l1.61.38c49.27,11.74,100.91-8.32,128.62-50.71a260,260,0,0,0,27.7-55.72h0a136.36,136.36,0,0,0-59.41-145.06C686.74,567.33,655.54,550.78,638.48,551.77Z"/><path class="cls-3" d="M461.34,698.85s11-41.43,33.47-42.29,32.51,38.87,32.51,38.87l1.88,17.91s-10.91,19.41-8.84,27.05l5.68,13.14,5.49-2.2s4.69,30.13,18.61,31.65l-28.28,36.56L502.69,842a46.82,46.82,0,0,1-42.56,15.87h0a46.82,46.82,0,0,1-34.75-25.07l-4.62-9.08,9.61-23.42,17.3-19.65,18.4-14.42,18.38-26S492,706,461.34,698.85Z"/><path class="cls-4" d="M504.05,658.37s66.81-14.84,102.21-60.64,32.22-34.27,32.22-34.27l-5,22.79-4.44,11.48-12,10.58-15.47,25.77s-22.29,54.7-21.77,75.52L574,723.48,550.16,783l-4.56-2.35s-16-13.84-14-29.3l-5.49,2.2s-11.25-11.42-2.93-28.4S524.15,666.15,504.05,658.37Z"/><path class="cls-4" d="M386.79,632.7s4.74,32.89,12.6,48.52c0,0-6.31,88.41,21.36,142.47l9.61-23.42L440.31,785s36.77-18.69,45.5-49.24c0,0,2.91-30.23-24.47-36.86,0,0,10.94-38.57,29.51-40.43l-10.68-4.22L465.6,638.78l-9.78-15.52L432,633.78l-24.51,1.77Z"/><path class="cls-5" d="M651.07,474.74s-17.64,63-12.59,88.72c0,0-22.31,13.31-32.22,34.27s-70.67,59-96.83,58.83l-25.38.93s-22.91-15.95-28.23-34.23l21.67-5.88,48.12-17.32,45.15-25.71L598.32,541l30.74-64.68,8.65,3Z"/><path class="cls-5" d="M410.43,184.23s-30.74,35.13-39.7,94.59a130.09,130.09,0,0,0,.74,42.64h0a57.56,57.56,0,0,1-3.81,33.49c-7.51,17.06-15.74,51.95.74,109.7,0,0,18.52,49.83,16.22,109.58l54.51,28.41,144-76.41L716.37,315.61,610.57,134.39Z"/><path class="cls-6" d="M432.38,476.68s-24.88,4.13-41.85-3.48l-23.34,22.48s4.23,46.57-8.31,90.11c-5.17,18,3.62,37.23,20.87,44.43,15.16,6.33,37.15,8.69,67.71-2.44,57.29-20.86,97.72-28.06,132.34-63.5a156.41,156.41,0,0,0,31-46.45L636,460.52l35.57-104.78L651.4,348s-15.73,21.49-26.27,45.12a65.67,65.67,0,0,1-32.32,32.57c-18.56,8.68-43.94,27.15-61.37,66.06Z"/><path class="cls-6" d="M551.44,493.32a6.79,6.79,0,0,1-2.58,5.35,64.14,64.14,0,0,1-56,12.19L450,500A53.84,53.84,0,0,1,415,471.88a4.28,4.28,0,0,0-7.6-.07l-.17.31a57.14,57.14,0,0,1-39.08,28.41l-1.16.23a19.58,19.58,0,0,1-23.19-17c0-.42-.1-.83-.13-1.25a33.77,33.77,0,0,1,5.1-22.06l.6-.93a90.73,90.73,0,0,1,44.73-36.12h0a14.54,14.54,0,0,0,2,.6,29.51,29.51,0,0,0,16.53-1.53,27.79,27.79,0,0,1,19.7.28q.61.24,1.21.51a27.14,27.14,0,0,1,7.65,5.2l.89.91a15.1,15.1,0,0,0,15.61,4.06l5.93,2.51a201,201,0,0,1,58,37.34,57,57,0,0,0,24.5,13.3A6.87,6.87,0,0,1,551.44,493.32Z"/><circle cx="399.07" cy="329.82" r="14.97"/><circle cx="509.43" cy="348.79" r="14.97"/><path class="cls-6" d="M673.75,143.45h0A187.63,187.63,0,0,0,536.17,83.4h-18c-38,0-74.66,15.68-99.94,44.09-13.26,14.9-24.06,33.72-26.7,56.71a15.57,15.57,0,0,0,12.8,17.21l7.72,1.31a68,68,0,0,0,35.81-3.57l.6-.23a98.15,98.15,0,0,0,14.64-7.16c12.65-7.47,50.67-23.29,130.06-8.25Z"/><path class="cls-6" d="M638.46,250.29l-11.81,62.3a42.64,42.64,0,0,0,9.52,35.7l26.23,30.6,50.56,11,16.7-28.3a132.24,132.24,0,0,0,18.26-62.32l1.17-31.67c1.44-39-19.57-75.7-54.49-93q-1.24-.62-2.51-1.2Z"/><path class="cls-6" d="M673.75,143.45h0c42.62,9.94,54.23,45,54.23,45L679,212.33s-15.15-34.44-49.66-46.85Z"/><path class="cls-6" d="M593.13,183.5s30.84,35.1,33,88.27l38.29-24.46s2.44-13.58,0-24.37a29.5,29.5,0,0,1,6.63,16.8l12.78-9.94s-5.14-39.14-40.08-66a20.69,20.69,0,0,0-25.2.14Z"/><ellipse class="cls-7" cx="384.15" cy="326.72" rx="31.85" ry="41.79"/><ellipse class="cls-7" cx="490.72" cy="344.67" rx="35.9" ry="45.17"/><polyline class="cls-7" points="657.44 372.19 656.57 372.07 637.58 369.37 526.62 353.53"/><line class="cls-7" x1="342.07" y1="323.42" x2="352.3" y2="324.68"/><path class="cls-7" d="M416,330.57s22.69-9.25,38.81,8.87"/><path class="cls-5" d="M630.92,477.61l.81.37a18.63,18.63,0,0,0,19.34-3.24,249.28,249.28,0,0,1,27.61-19.94c24-15.27,33.6-44.63,33.6-44.63,6.47-15,4.4-26.92.71-35.07a23.11,23.11,0,0,0-21.87-13.48c-15.8.59-28.94,7.43-36.18,12.13a14.33,14.33,0,0,0-6.45,10.66c-.77,8-3.08,21.69-10,28.11-8.32,7.7-11.44,43.8-12.3,56.58A8.79,8.79,0,0,0,630.92,477.61Z"/><path class="cls-5" d="M662.11,404.18a3.22,3.22,0,0,1-2.47-5.3c6-7,17.45-17.07,31.76-14.34,16,3.05,3.7,29.75-3.57,43.1a16.17,16.17,0,0,1-11.3,8.16c-7,1.29-17.55,5.15-23,16.57a4.23,4.23,0,0,1-3.31,2.41h0a8.57,8.57,0,0,1-9.55-7.79l-.09-1.12a5.24,5.24,0,0,1,4.78-5.66h0a5.27,5.27,0,0,0,4.54-3.59c1.45-4.29,5.39-11.83,15.82-16.69,7.76-3.62,5.76-15.17-2.79-15.72Z"/><path class="cls-8" d="M363.1,442.88c-8-39.8-3.34-66.49,2.34-82.35q1.1-3.07,2.23-5.59a56.61,56.61,0,0,0,4.76-22.88,59.45,59.45,0,0,0-1-10.6,131.9,131.9,0,0,1-1.88-31.94q.35-5.38,1.15-10.71a210.88,210.88,0,0,1,28.73-79.09"/><path class="cls-8" d="M665.18,227.94a0,0,0,0,0,0,0"/><path class="cls-8" d="M367.52,500.66c.69,13.13,1.44,50.12-8.64,85.14-5.16,18,3.62,37.22,20.86,44.43,15.16,6.33,37.16,8.69,67.71-2.43,57.29-20.86,97.72-28.06,132.33-63.51a156.71,156.71,0,0,0,31-46.45l18.26-41.49"/><path class="cls-8" d="M644.58,358.07c-2.08,3.19-4.49,7-7,11.29a239,239,0,0,0-12.44,23.8,65.66,65.66,0,0,1-32.33,32.57c-17.07,8-39.9,24.24-57,57.06"/><path class="cls-8" d="M404.25,476.95a89.6,89.6,0,0,0,14.23.83"/><path class="cls-8" d="M394.14,423.41h0a90.86,90.86,0,0,0-44.73,36.12l-.6.93a33.77,33.77,0,0,0-5.1,22.06c0,.42.09.83.13,1.25a19.58,19.58,0,0,0,23.19,17l.5-.1.66-.13a57.2,57.2,0,0,0,36.07-23.58,53.11,53.11,0,0,0,3-4.83l.17-.31a4.28,4.28,0,0,1,7.6.07,51.27,51.27,0,0,0,3.45,5.9A53.75,53.75,0,0,0,450,500l42.94,10.9a64.14,64.14,0,0,0,56-12.19,6.79,6.79,0,0,0,2.58-5.35,6.87,6.87,0,0,0-5.2-6.72,56.71,56.71,0,0,1-10.45-3.81c-.88-.42-1.76-.86-2.62-1.32a57.26,57.26,0,0,1-11.43-8.17,201,201,0,0,0-58-37.34l-5.93-2.51"/><path class="cls-8" d="M433.63,423.28c-.4-.18-.8-.35-1.21-.51"/><path class="cls-8" d="M463.81,408.73a15,15,0,0,1,.76,20l-.11.12a14.57,14.57,0,0,1-6.68,4.55,15.1,15.1,0,0,1-15.61-4.06l-.89-.91a27.14,27.14,0,0,0-7.65-5.2q-.61-.28-1.21-.51a27.79,27.79,0,0,0-19.7-.28A29.51,29.51,0,0,1,396.19,424a14.52,14.52,0,0,1-2-.6h0a15.9,15.9,0,0,1-9.83-17.13,22.7,22.7,0,0,1,8.06-13.66,37.1,37.1,0,0,0,10.06-13.74l22.39-51.61"/><path class="cls-8" d="M638.58,160.93l35.17-17.47A187.6,187.6,0,0,0,536.17,83.4h-18c-38,0-74.66,15.67-99.94,44.09-13.25,14.9-24.06,33.72-26.7,56.7a15.66,15.66,0,0,0,8,15.54,15.13,15.13,0,0,0,4.82,1.68l7.72,1.31a68.1,68.1,0,0,0,35.81-3.57l.6-.23a98.29,98.29,0,0,0,14.65-7.16c12.65-7.48,50.67-23.29,130.06-8.25"/><path class="cls-8" d="M656.94,372.5l-.37-.43-12-14-8.41-9.8a42.6,42.6,0,0,1-9.52-35.69l8.87-46.83"/><path class="cls-8" d="M719.65,192.48a100.53,100.53,0,0,1,29.43,75.08l-1.16,31.68a132.19,132.19,0,0,1-18.26,62.32l-13.72,23.26"/><path class="cls-8" d="M638.58,160.93l35.17-17.47c42.62,9.94,54.23,45,54.23,45l-8.33,4.07L679,212.33a.72.72,0,0,0,0-.1"/><path class="cls-8" d="M593.13,183.5s30.84,35.1,33,88.27l38.29-24.46s2.44-13.58,0-24.37a68.23,68.23,0,0,1,8.14,15.9l11.27-9s-5.14-39.14-40.08-66a20.69,20.69,0,0,0-25.2.14Z"/><path class="cls-8" d="M715.94,384.82a39.45,39.45,0,0,0-2.95-9.72,23.11,23.11,0,0,0-21.88-13.47A67.32,67.32,0,0,0,667.78,367a81.73,81.73,0,0,0-10.34,5.22l-.5.31c-.71.43-1.38.86-2,1.26a14.34,14.34,0,0,0-6.45,10.66c-.77,8-3.08,21.69-10,28.11-8.32,7.7-11.44,43.79-12.3,56.58a8.91,8.91,0,0,0,2.9,7.24,8.58,8.58,0,0,0,1.86,1.26l.81.38a18.64,18.64,0,0,0,19.33-3.24,249.14,249.14,0,0,1,27.62-19.94c23.95-15.26,33.6-44.63,33.6-44.63C716.53,400.34,717.09,391.82,715.94,384.82Z"/><path class="cls-8" d="M699.16,393.56c.86,9.79-6.4,25-11.33,34.07a16.18,16.18,0,0,1-11.3,8.16c-7,1.29-17.55,5.15-23,16.58a4.23,4.23,0,0,1-3.31,2.41l-.29,0A8.56,8.56,0,0,1,640.7,447l-.09-1.12a5.23,5.23,0,0,1,4.71-5.65h.08a5.1,5.1,0,0,0,2.8-1.12,5.32,5.32,0,0,0,1.73-2.47c1.46-4.29,5.39-11.83,15.82-16.69,7.76-3.63,5.76-15.17-2.79-15.72-.27,0-.55,0-.83,0a3.3,3.3,0,0,1-1.44-.35,3.2,3.2,0,0,1-1-5,54.81,54.81,0,0,1,7.31-7.11c.88-.71,1.81-1.4,2.77-2,5.9-4,13.3-6.78,21.68-5.19C696.52,385.51,698.76,388.94,699.16,393.56Z"/><path class="cls-8" d="M481,333.83s25.78-14.63,45.62,10.85"/><path class="cls-8" d="M379.15,314.86s34.24-14.79,35.85,22.3"/><path class="cls-8" d="M611,169.72s-44.94-27.52-91.93-16"/><path class="cls-8" d="M638.58,160.93s-45.72-38.51-87.15-37.69"/><path class="cls-8" d="M656.94,151.81s-31-37.63-77.23-43.86"/><path class="cls-8" d="M706.77,367S727,328.42,728,265.75"/><path class="cls-8" d="M691.11,361.63s11.47-26.79,8.12-62.13"/><path class="cls-8" d="M651.06,474.74s-17.55,60.95-12.87,86.08a14,14,0,0,1,.29,2.64c-.06,10.46-4.44,26.16-11.55,33.18-10.18,10-19,24.74-25.38,37.44A173.46,173.46,0,0,0,587.12,675C581.78,699,569.38,747,548.62,783a155.12,155.12,0,0,1-11,16.73c-21.35,28-51.78,62-51.78,62"/><path class="cls-8" d="M796.33,643.7c-124.74-97.38-158.45-91.88-158.45-91.88"/><path class="cls-8" d="M638.48,563.46s107.36,74.13,121.64,151.2l-72.59,24.73,88.8-7.68s-30.9,81.29-88.8,122.53"/><path class="cls-8" d="M432.26,412.79s9.56,0,15.37,7.95"/><path class="cls-8" d="M638.48,563.46s1.47,39.44-9.42,60.06c-16.95,32.11-11.21,70.42-12.08,100.31a223,223,0,0,1-16.4,78.5c-7.68,18.64-18.81,38.27-34.77,53.39"/><path class="cls-8" d="M456.34,624.62s13.49,24.74,29.47,33.32c0,0-39.82,32-26,101.58,0,0-67.53-52.84-73-126.81"/><path class="cls-8" d="M576,717.13h0a112.6,112.6,0,0,1-49.94,36.4l-.39.14A24.84,24.84,0,0,1,522.93,727c19.46-37.7-19.11-68.61-19.11-68.61S576.4,644,611.93,589.81a91.06,91.06,0,0,1,25.78-26"/><path class="cls-8" d="M485.82,657.94s7.42-3.4,18,.48"/><path class="cls-8" d="M461.34,698.85s26.61,6.08,24.47,36.86c0,0,18.8,16,34.56,0"/><path class="cls-8" d="M531.55,751.32s1,20.51,17.07,31.65"/><path class="cls-8" d="M420.32,825.53c3.14-13.62,11.2-34.54,31.75-48,24.55-16,33.75-41.86,33.75-41.86"/><path class="cls-8" d="M494.81,742.16s5.41,15.3-9.35,35.09"/><path class="cls-8" d="M509.74,742.16s6.84,20.67-3.59,37.48-12.34,33.62-7.33,44.05"/><path class="cls-8" d="M398.07,678.15s-3.89,120.53,38.23,176.09"/><path class="cls-8" d="M379.74,630.23s-27.07,98.05-.59,224"/><path class="cls-8" d="M363.87,563.87s-83.25,22-121.19,128.2l55.1,50.17-79.49-28.9s9,91.24,63.23,140.91"/><path class="cls-8" d="M366.26,546.58s-78.29,39.57-119.8,43.1-71.63,14-92.78,40.55"/><circle cx="411.36" cy="474.74" r="3.93"/></g></svg>