<svg xmlns="http://www.w3.org/2000/svg" viewBox="0 0 950 950"><defs><style>.cls-1{fill:#8cb75a;}.cls-2{fill:red;}.cls-3{fill:#fff;}.cls-4{fill:#bc6953;}.cls-5{fill:#ffc639;}.cls-6{fill:#3f3f3f;}.cls-7,.cls-8{fill:none;stroke:#000;stroke-linecap:round;stroke-width:5px;}.cls-7{stroke-linejoin:round;}.cls-8{stroke-miterlimit:10;}</style></defs><title>squash_player</title><g id="squash"><circle class="cls-1" cx="475" cy="475" r="359.12"/><path class="cls-2" d="M127.36,389.65l-3,6.68h0l-8.9,20.18h0L100.4,450.76a11,11,0,0,0,.41,9.7h0a19.94,19.94,0,0,0,23.33,9.43,10.92,10.92,0,0,0,7-6.68L147.54,419,155,398.68S134.58,401.92,127.36,389.65Z"/><path d="M273,68.77a81.81,81.81,0,0,0-18.22-5c-.71-.1-1.41-.21-2.11-.29s-1.48-.18-2.23-.24-1.48-.14-2.22-.19c-.36,0-.74-.05-1.1-.07a.61.61,0,0,0-.14,0h-.23a2.64,2.64,0,0,0-.3,0c-.22,0-.45,0-.67,0h-.2c-.55,0-1.1-.05-1.64,0a.76.76,0,0,0-.22,0c-.65,0-1.29,0-1.93,0a2.8,2.8,0,0,0-.43,0h-.07a.81.81,0,0,0-.17,0,.85.85,0,0,1-.17,0c-.4,0-.83,0-1.24,0s-.57,0-.87,0h-.17c-.49,0-1,0-1.46.08a2.38,2.38,0,0,0-.39,0h-.14c-.56,0-1.12.08-1.68.13l-2,.22c-.3,0-.61.07-.9.12s-.88.11-1.32.18l-.41.07h-.12c-.65.1-1.31.22-2,.34-1.47.25-2.94.56-4.4.92h0c-.66.17-1.33.32-2,.51-2.57.67-5.13,1.48-7.64,2.4-1.3.46-2.59,1-3.88,1.51l-1.92.84c-.64.29-1.28.57-1.92.88s-1.52.73-2.28,1.11l-.53.26c-.58.31-1.18.62-1.78.95l-.6.32,0,0-1.16.65c-.39.22-.78.45-1.16.68l-.08,0c-.62.36-1.21.74-1.84,1.13l-.73.45-1.6,1-.11.08c-.39.25-.76.5-1.14.76s-.83.56-1.24.86-.85.58-1.27.89a.09.09,0,0,1-.07,0l-1.13.84-.88.66-1,.76-.82.65-.95.76-1.19,1-.12.11-.73.62c-.41.33-.81.68-1.21,1a118.4,118.4,0,0,0-9.39,9.31c-.76.83-1.51,1.69-2.25,2.56q-2.22,2.6-4.36,5.38c-.72.94-1.41,1.88-2.12,2.83s-1.38,1.93-2.06,2.92-1.35,2-2,3-1.31,2.05-2,3.11c-.57.9-1.12,1.84-1.68,2.79s-1.19,2.05-1.76,3.09a.08.08,0,0,0,0,0c-.42.74-.83,1.48-1.22,2.23l-.22.43c-.53,1-1,2-1.54,3-1,2-2,4.08-3,6.21-.42.89-.82,1.81-1.22,2.73l-.26.64c-.44,1-.87,2.05-1.29,3.09-.23.57-.45,1.15-.67,1.72l-.26.72c-.09.24-.18.47-.25.71-.18.49-.35,1-.51,1.46-.25.76-.51,1.53-.74,2.32s-.46,1.55-.67,2.34c-.13.49-.26,1-.39,1.47,0,0,0,0,0,.06-.08.23-.13.47-.19.71a3.12,3.12,0,0,0-.08.34c0,.13-.06.25-.09.36l-.07.25c-.12.51-.23,1-.34,1.52-.17.78-.33,1.58-.47,2.36s-.26,1.49-.39,2.24c-.06.3-.09.6-.13.9-.18,1.11-.33,2.23-.44,3.33,0,.33-.08.66-.12,1-.08.71-.14,1.42-.2,2.13s-.12,1.61-.17,2.42-.09,1.61-.11,2.43-.06,1.61-.08,2.42c0,1.62,0,3.24,0,4.86.08,2.44.21,4.88.42,7.3.14,1.63.32,3.24.52,4.85.08.64.17,1.29.25,1.91,0,.3.08.58.12.86a1.73,1.73,0,0,1,0,.23c.07.51.13,1,.22,1.5,0,.26.07.52.12.78.09.62.2,1.22.31,1.85.14.84.3,1.68.46,2.53.07.33.12.67.2,1,.17.85.34,1.69.52,2.54a.42.42,0,0,0,0,.11c.14.72.31,1.43.47,2.14.1.47.21.92.32,1.37.19.79.37,1.59.57,2.36s.36,1.43.56,2.15c0,.12.07.25.1.37.1.4.2.78.31,1.17l0,.11c.22.84.46,1.68.71,2.5,0,.09.06.19.08.29s0,.11.06.18l0,.11s0,0,0,.05v0s0,0,0,0h0q.46,1.59,1,3.14c.36,1.21.75,2.43,1.15,3.61s.76,2.23,1.14,3.32c.2.55.39,1.1.58,1.64l.6,1.64c.41,1.08.81,2.15,1.21,3.22l.15.39c.34.92.71,1.82,1.06,2.71.29.71.57,1.42.87,2.13.44,1.06.87,2.13,1.33,3.17.55,1.31,1.11,2.59,1.69,3.86.21.51.44,1,.66,1.49a4,4,0,0,0,.21.44c.28.62.56,1.22.84,1.82.57,1.23,1.15,2.46,1.72,3.65.3.6.57,1.19.87,1.76l.26.55c.29.58.58,1.16.86,1.73l1.35,2.65c.32.62.65,1.24,1,1.84l.85,1.61c.29.54.56,1.07.85,1.58.55,1,1.11,2.05,1.65,3,.28.5.54,1,.83,1.46l1.19,2.13c.14.23.28.45.4.68.53.9,1,1.79,1.56,2.64h0c.13.22.25.45.36.67h0c.12.24.22.46.33.69s.2.47.28.72.17.47.23.72a7.6,7.6,0,0,1,.21.83l0,.1c0,.21.08.43.11.64a1.93,1.93,0,0,1,0,.34,2.44,2.44,0,0,1,0,.42,0,0,0,0,1,0,0c0,.13,0,.26,0,.4a8.88,8.88,0,0,1,0,.94c0,.18,0,.35,0,.53a0,0,0,0,1,0,0c0,.19,0,.38,0,.56,0,.34-.09.68-.15,1h0c-19.19-15.67-36.45-42.74-44.87-66-20.44-56.47-3.25-124.86,56.55-152C214.28,52.2,244.72,57.34,273,68.77Z"/><path class="cls-2" d="M273,68.77a81.81,81.81,0,0,0-18.22-5c-.71-.1-1.41-.21-2.11-.29s-1.48-.18-2.23-.24-1.48-.14-2.22-.19c-.36,0-.74-.05-1.1-.07a.61.61,0,0,0-.14,0h-.23a2.64,2.64,0,0,0-.3,0c-.22,0-.45,0-.67,0h-.2c-.55,0-1.1-.05-1.64,0a.76.76,0,0,0-.22,0c-.65,0-1.29,0-1.93,0a2.8,2.8,0,0,0-.43,0h-.07a.81.81,0,0,0-.17,0,.85.85,0,0,1-.17,0c-.4,0-.83,0-1.24,0s-.57,0-.87,0h-.17c-.49,0-1,0-1.46.08a2.38,2.38,0,0,0-.39,0h-.14c-.56,0-1.12.08-1.68.13l-2,.22c-.3,0-.61.07-.9.12s-.88.11-1.32.18l-.41.07h-.12c-.65.1-1.31.22-2,.34-1.47.25-2.94.56-4.4.92h0c-.66.17-1.33.32-2,.51-2.57.67-5.13,1.48-7.64,2.4-1.3.46-2.59,1-3.88,1.51l-1.92.84c-.64.29-1.28.57-1.92.88s-1.52.73-2.28,1.11l-.53.26c-.58.31-1.18.62-1.78.95l-.6.32,0,0-1.16.65c-.39.22-.78.45-1.16.68l-.08,0c-.62.36-1.21.74-1.84,1.13l-.73.45-1.6,1-.11.08c-.39.25-.76.5-1.14.76s-.83.56-1.24.86-.85.58-1.27.89a.09.09,0,0,1-.07,0l-1.13.84-.88.66-1,.76-.82.65-.95.76-1.19,1-.12.11-.73.62c-.41.33-.81.68-1.21,1a118.4,118.4,0,0,0-9.39,9.31c-.76.83-1.51,1.69-2.25,2.56q-2.22,2.6-4.36,5.38c-.72.94-1.41,1.88-2.12,2.83s-1.38,1.93-2.06,2.92-1.35,2-2,3-1.31,2.05-2,3.11c-.57.9-1.12,1.84-1.68,2.79s-1.19,2.05-1.76,3.09a.08.08,0,0,0,0,0c-.42.74-.83,1.48-1.22,2.23l-.22.43c-.53,1-1,2-1.54,3-1,2-2,4.08-3,6.21-.42.89-.82,1.81-1.22,2.73l-.26.64c-.44,1-.87,2.05-1.29,3.09-.23.57-.45,1.15-.67,1.72l-.26.72c-.09.24-.18.47-.25.71-.18.49-.35,1-.51,1.46-.25.76-.51,1.53-.74,2.32s-.46,1.55-.67,2.34c-.13.49-.26,1-.39,1.47,0,0,0,0,0,.06-.08.23-.13.47-.19.71a3.12,3.12,0,0,0-.08.34c0,.13-.06.25-.09.36l-.07.25c-.12.51-.23,1-.34,1.52-.17.78-.33,1.58-.47,2.36s-.26,1.49-.39,2.24c-.06.3-.09.6-.13.9-.18,1.11-.33,2.23-.44,3.33,0,.33-.08.66-.12,1-.08.71-.14,1.42-.2,2.13s-.12,1.61-.17,2.42-.09,1.61-.11,2.43-.06,1.61-.08,2.42c0,1.62,0,3.24,0,4.86.08,2.44.21,4.88.42,7.3.14,1.63.32,3.24.52,4.85.08.64.17,1.29.25,1.91,0,.3.08.58.12.86a1.73,1.73,0,0,1,0,.23c.07.51.13,1,.22,1.5,0,.26.07.52.12.78.09.62.2,1.22.31,1.85.14.84.3,1.68.46,2.53.07.33.12.67.2,1,.17.85.34,1.69.52,2.54a.42.42,0,0,0,0,.11c.14.72.31,1.43.47,2.14.1.47.21.92.32,1.37.19.79.37,1.59.57,2.36s.36,1.43.56,2.15c0,.12.07.25.1.37.1.4.2.78.31,1.17l0,.11c.22.84.46,1.68.71,2.5,0,.09.06.19.08.29s0,.11.06.18l0,.11s0,0,0,.05v0s0,0,0,0h0q.46,1.59,1,3.14c.36,1.21.75,2.43,1.15,3.61s.76,2.23,1.14,3.32c.2.55.39,1.1.58,1.64l.6,1.64c.41,1.08.81,2.15,1.21,3.22l.15.39c.34.92.71,1.82,1.06,2.71.29.71.57,1.42.87,2.13.44,1.06.87,2.13,1.33,3.17.55,1.31,1.11,2.59,1.69,3.86.21.51.44,1,.66,1.49a4,4,0,0,0,.21.44c.28.62.56,1.22.84,1.82.57,1.23,1.15,2.46,1.72,3.65.3.6.57,1.19.87,1.76l.26.55c.29.58.58,1.16.86,1.73l1.35,2.65c.32.62.65,1.24,1,1.84l.85,1.61c.29.54.56,1.07.85,1.58.55,1,1.11,2.05,1.65,3,.28.5.54,1,.83,1.46l1.19,2.13c.14.23.28.45.4.68.53.9,1,1.79,1.56,2.64h0c.13.22.25.45.36.67h0c.12.24.22.46.33.69s.2.47.28.72.17.47.23.72a7.6,7.6,0,0,1,.21.83l0,.1c0,.21.08.43.11.64a1.93,1.93,0,0,1,0,.34,2.44,2.44,0,0,1,0,.42,0,0,0,0,1,0,0c0,.13,0,.26,0,.4a8.88,8.88,0,0,1,0,.94c0,.18,0,.35,0,.53a0,0,0,0,1,0,0c0,.19,0,.38,0,.56,0,.34-.09.68-.15,1h0c-.07.34-.15.68-.25,1h0a13.4,13.4,0,0,1-.55,1.53l-12.55,28.47-1,7,5.71,9.08,11.31,9.78.32-.84,4-10.73,12.75-34.51a12.22,12.22,0,0,1,8.27-7.57c31.48-8.63,93-31.13,112.12-78.4C340.18,143.62,319.23,87.5,273,68.77Zm21.17,132.08C279.48,237,231.95,255.4,207.85,262a20,20,0,0,1-22.56-9.12c-12.71-21.52-34.08-67.77-19.43-104,20-49.37,62.76-72.48,98.19-58.14S314.12,151.48,294.12,200.85Z"/><path class="cls-3" d="M245.5,381.73s-.74-21-20.48-23.55c0,0-13.16-40.78-27.45-45.08s-16.87,22.69-16.87,22.69l-4,4.37L161,326.54l-1.83-12.62s-25.21-3-24.28,24c0,0-9.9,4.26-8.15,20.55,0,0-17.35,11.8.59,31.21,0,0,14.08,11.19,27.67,9L151.47,411l5,3.54s3.16,22.24,24.9,18.88S233.68,421.7,245.5,381.73Z"/><path class="cls-3" d="M850.48,293.86c-.29-4.58-4.76-8.58-9.12-10a20.41,20.41,0,0,0,3-11.76c-.32-6.62-6.61-10.64-12.29-10.54a20.86,20.86,0,0,0,2.6-12.25c-.66-7.31-9.13-13.2-16-9.31a23.35,23.35,0,0,0-3.83,3,82.16,82.16,0,0,1-28.06,15.67c.12-5.76-2.27-11-9.66-9.86-8.87,1.32-17.57,7.82-24.38,13.32a142.38,142.38,0,0,0-15.5,14.76c-1.27-.33-14.9-3.49-22.89,12.44-9.1,18.14.32,63.09,31.41,62.1A20,20,0,0,0,759.42,346h0c28,6.51,40.46-15.14,40.81-15.71C810.91,331.34,852.18,320.28,850.48,293.86Z"/><path class="cls-3" d="M472,218.57l36,20.56,5.6,19.22-2.91,4.38s-3.37,47.47-43.22,30.39-16.35-61.52-16.35-61.52Z"/><path class="cls-3" d="M522.48,198l-17.73,38.21,8.87,22.1h6.82l5.26-2.6,8.75,2.86,3.53,5,.75,7.85,13.86-4s23-19.91,7.41-51.16S522.48,198,522.48,198Z"/><path class="cls-3" d="M552.17,182.87c-155.36,2.4-223.27,117.59-224.09,119q-1.92-4.38-3.93-8.74-2.61-5.66-5.27-11.32c-.65-1.38-1.3-2.79-1.94-4.18-1.14-2.47-2.27-5-3.36-7.45-1.28-2.88-2.53-5.78-3.71-8.69,0,0,30.18-134.07,192.48-157.49A129.9,129.9,0,0,1,526.7,127.6h0a129.1,129.1,0,0,1,12.5,19A127.07,127.07,0,0,1,552.17,182.87Z"/><path class="cls-2" d="M539.2,146.58c-36.92,2-71.23,11.2-102,27.32a248.4,248.4,0,0,0-68.1,52.84,273.39,273.39,0,0,0-44.9,66.37q-2.61-5.66-5.27-11.32c-.65-1.38-1.3-2.79-1.94-4.18-1.14-2.47-2.27-5-3.36-7.45a297.93,297.93,0,0,1,40.83-56.82,268.27,268.27,0,0,1,73.53-57c30.13-15.77,63.29-25.4,98.75-28.71h0A129.1,129.1,0,0,1,539.2,146.58Z"/><path class="cls-4" d="M399.62,68.41a19.51,19.51,0,0,1-19.08-10.08l-9.15-16.8a15,15,0,0,0-21.83-5.07C339.07,44,333.23,52.58,330,60.15a26.21,26.21,0,0,0,6.1,29.28c9.65,9.15.15,18.45.88,28.89A16.07,16.07,0,0,0,342.88,130c9.7,7.4,22.78.33,26.27-10.06,9,7.59,23.91,1.2,27.25-9.1a10.9,10.9,0,0,1,11.38-7.49l.18,0a11.12,11.12,0,0,0,11.67-7.82l.61-2A19.51,19.51,0,0,0,399.62,68.41Z"/><path class="cls-4" d="M747.89,827.47c10.23-7.1,15.18-31.21,15.18-31.21,3.45-12.73-12.63-28.17-35.93-34.49-15-4.07-37.33-6.27-46.47,9.34C674.6,781.44,673.22,794,668.44,805c-5.47,12.54-11.58,24.69-18.06,36.74a19,19,0,0,0,3.43,22.55c6.93,6.82,13.91,13.6,22,19,13.06,8.71,29,11.76,44.5,11.76,31.47,0,58-13.75,57-30.64C775.92,841.83,747.89,827.47,747.89,827.47Z"/><path class="cls-4" d="M352.11,774.09c-15-4.07-39.11-7.18-46.47,9.33-7.78,17.46-45.49,24.79-55.19,55-2.58,8-2.59,16.62,3.43,22.55,6.94,6.82,13.92,13.6,22,19,13.06,8.71,29,11.77,44.49,11.77,31.47,0,57-13.72,57-30.64,0-7.17-4.57-14.39-12.22-20.34l-4-8.33C384,823.32,388,808.58,388,808.58,391.49,795.85,375.41,780.41,352.11,774.09Z"/><path d="M377.19,866.68l.19,19s-9.25,33.18-69.72,26.56l-17.7-4-14.06-7L257.56,885.7l-7.08-9.23-2.5-5.92V853.92l13.94,14.76,14,11.26,14.83,7.25,17,4.52h21.59l17-3.36,14.8-5.87,9.1-6.56Z"/><path d="M776.61,869.49l.79,19.75S762.46,928,690.62,911.76l-13.53-6.43L654.8,886.25l-5.91-10.92V855.67l6.65,10.19,20.38,17.4,18.71,8.46,21.07,3.2,16.74-.58L749,890.88l16-7.45,6.86-5.9Z"/><path class="cls-2" d="M508,277.24a12.57,12.57,0,0,0,4.29,7.8c6,5.05,15.88,3.22,22-4.08a19.6,19.6,0,0,0,4.43-9.53c.77-4.95-.65-9.79-4.27-12.82-4.7-3.94-11.72-3.7-17.48,0a20.64,20.64,0,0,0-4.51,4,20.32,20.32,0,0,0-1.86,2.59h0"/><path class="cls-5" d="M404.85,377.35C391.55,357,368.1,348.76,352.47,359l-18,11.74c-15.63,10.21-17.52,35-4.22,55.35s36.75,28.59,52.38,18.39l18-11.74C416.26,422.5,418.15,397.72,404.85,377.35Z"/><polygon points="346.35 363.97 360.44 354.62 371.46 354.86 387.09 360.28 400.26 371.35 410.34 387.06 413.71 405.41 411.65 418.25 406.55 427.41 388.51 439.2 395.44 422.82 394.49 410.14 389.38 395 382.95 385.73 374.05 377.03 365.55 369.65 346.35 363.97"/><path class="cls-5" d="M720.65,400.49A383.65,383.65,0,0,0,336.91,542.64c-8.69-21.5-13.89-44.48-14.05-67.25a151.84,151.84,0,0,1,1.53-22,124.12,124.12,0,0,0,26.15-8.79h0c10.94,5.48,22.84,5.86,32-.14l18-11.75c15.63-10.2,17.53-35,4.22-55.35S368,348.8,352.42,359l-11,7.15c.09-1.08.15-2.14.22-3.22,1.29-22.29-5.26-42-13.6-61.07,0,0,36.95-63.54,119.19-97.77l26.5,14.26a7.88,7.88,0,0,0-3.1.67h0a22.49,22.49,0,0,0-2.51.49c-17.57,4.24-27.61,25.07-22.43,46.52s23.64,35.39,41.21,31.16c9.85-2.38,17.33-10,21.1-20a12.53,12.53,0,0,0,4.29,7.8c6,5.05,15.87,3.23,22-4.07a19.66,19.66,0,0,0,4.42-9.53,21.7,21.7,0,0,0,6.34-.56c9-2.18,15.65-9.89,18.56-20.07,65.84,21.52,103.86,69.39,108,73.49a217.77,217.77,0,0,1,21.31,24.56A229.79,229.79,0,0,1,720.65,400.49Z"/><path class="cls-5" d="M502.34,104C340.05,127.42,309.87,261.48,309.87,261.48a153.92,153.92,0,0,1-9.34-30.78,88,88,0,0,0,13.53-22.58c11.06-27.32,13.68-53.14,9.5-75.26A129.34,129.34,0,0,1,337,117.2c0,.37,0,.74,0,1.11A16,16,0,0,0,342.89,130c9.7,7.39,22.78.32,26.26-10.06,9,7.58,23.91,1.19,27.24-9.1a10.91,10.91,0,0,1,11.38-7.5l.18,0a11.13,11.13,0,0,0,11.67-7.83l.61-2a19.29,19.29,0,0,0-.95-13.89A123.38,123.38,0,0,1,502.34,104Z"/><path class="cls-5" d="M554.48,207.74c-5.49-6.69-12.53-11-19.79-11.82h0a7.05,7.05,0,0,0-4.24-.35,5.91,5.91,0,0,0-1.13.39h0c-.74.1-1.48.24-2.23.42a22.8,22.8,0,0,0-11.6,7.07L521,184.92a307.14,307.14,0,0,1,31.11-2.05h0A126,126,0,0,1,554.48,207.74Z"/><path class="cls-5" d="M521,184.92l-5.59,18.52-9.71,32.13L501,233l-17.23-9.28a16.75,16.75,0,0,0-7-4.9,9.14,9.14,0,0,0-3-.5l-26.5-14.26A275.79,275.79,0,0,1,521,184.92Z"/><path class="cls-6" d="M761.39,662.95c-17.9,12.38-38.75,21-60.45,22.56-11.21.83-27.82-.44-33.27-12.18a15.55,15.55,0,0,1-1.13-3.4c-1-4.69.36-9.75.64-14.46a89.76,89.76,0,0,0,.06-10.19,57.34,57.34,0,0,0-2.8-15.62,39.86,39.86,0,0,0-2-5.65c40.78-35.43,67.45-86.46,70.87-142.07,51,68.52,55.9,132.49,56.19,141.68C790.46,640,773.51,654.58,761.39,662.95Z"/><path class="cls-6" d="M733.6,474.44c0,.54,0,1.08,0,1.63,0,1.5-.11,3-.2,4.49-4.9,90-70.78,168.35-159,188.3A211.51,211.51,0,0,1,548.24,673,202.35,202.35,0,0,1,489.11,670c-5.16,23.83-13,50.64-24.75,70.31-5.49,9.22-18.74,13.35-36.33,11.17-2.71-.34-5.53-.82-8.4-1.43-1.79-.39-3.6-.82-5.43-1.31-.63-.17-1.27-.34-1.9-.53s-1.49-.43-2.24-.66-1.64-.51-2.47-.79-1.44-.47-2.16-.73l-.37-.13c-.75-.26-1.49-.54-2.24-.83s-1.6-.61-2.4-.93l-1.73-.71c-1.83-.75-3.67-1.57-5.51-2.43-.82-.37-1.62-.76-2.43-1.16-1.63-.81-3.24-1.63-4.81-2.48s-3.24-1.8-4.81-2.74c-.69-.41-1.38-.83-2.06-1.25s-1.52-.95-2.27-1.43l-1.83-1.22-.42-.28-1.85-1.29c-.73-.51-1.43-1-2.13-1.53l-1.84-1.4c-19.22-14.86-29.2-32.45-23.35-44.36A167.35,167.35,0,0,0,360,663a191.44,191.44,0,0,0,24.22-48.72c-3-3-6-6.09-8.8-9.28a197.09,197.09,0,0,1-12.73-15.76q-1.65-2.27-3.24-4.59-2.93-4.27-5.67-8.72c-3.72-6-7.19-12.28-10.35-18.72q-3.54-7.16-6.53-14.59A383.65,383.65,0,0,1,720.65,400.49q3.13,8.24,5.54,16.71,2.33,8.22,4,16.65A191.26,191.26,0,0,1,733,454.16,187.72,187.72,0,0,1,733.6,474.44Z"/><path class="cls-2" d="M730.16,433.85,729.3,438c-92.76-19-180.23-5.67-260,39.7-60.87,34.66-99.94,78.58-115.56,98.22-3.72-6-7.19-12.28-10.35-18.72a435.15,435.15,0,0,1,116.09-96.75,385.24,385.24,0,0,1,118.91-44.06c47.56-9,97.24-8.74,147.75.78Q728.52,425.42,730.16,433.85Z"/><path class="cls-3" d="M733.6,474.44c-87.8-16.39-170-4.15-244.33,36.37A392.26,392.26,0,0,0,375.42,605a197.09,197.09,0,0,1-12.73-15.76,413,413,0,0,1,117.07-95.88C557,451.27,642.18,438.08,733,454.16A187.72,187.72,0,0,1,733.6,474.44Z"/><path d="M727.81,345.75a232.8,232.8,0,0,1-31.66,7.54,218.15,218.15,0,0,0-24.54-29c-4.14-4.1-8.45-8.1-12.93-11.92a193,193,0,0,0,52.41-7.65C710.73,319.22,716.13,336.87,727.81,345.75Z"/><path class="cls-7" d="M341.34,367.55c0-.46.09-.93.12-1.39.09-1.08.15-2.15.22-3.23,1.49-25.7-7.45-47.91-17.53-69.82q-2.61-5.66-5.27-11.32c-.65-1.38-1.3-2.79-1.94-4.18-1.14-2.47-2.27-5-3.36-7.45-1.28-2.88-2.53-5.78-3.71-8.69a153.92,153.92,0,0,1-9.34-30.78"/><path class="cls-7" d="M337,117.2a129.36,129.36,0,0,0-13.39,15.66"/><path class="cls-7" d="M563.62,250.8c92.48,33.53,173.2,123,169.93,225.27C730.63,568,664,648.58,574.37,668.86A211.56,211.56,0,0,1,548.24,673,202.34,202.34,0,0,1,489.11,670"/><path class="cls-7" d="M419.28,79.63c43-3.21,82.42,16.39,107.42,48h0a129.06,129.06,0,0,1,12.5,19,126.7,126.7,0,0,1,15.28,61.16"/><path class="cls-7" d="M338,389.9a.1.1,0,0,1,0-.06"/><path class="cls-7" d="M336.49,397.26s0,0,0,0"/><path class="cls-7" d="M515.46,203.45a22.35,22.35,0,0,1,13.83-7.5h0a21.77,21.77,0,0,1,5.38,0h0c12.84,1.45,25,13.81,29.14,31,5,20.58-3.44,40.25-18.77,44a21.21,21.21,0,0,1-6.34.56"/><path class="cls-7" d="M507,231.59a50,50,0,0,0,1.32,8.74A48.19,48.19,0,0,0,517,258.66"/><path d="M548.86,218.22c3.42,14.18.62,27-6.26,28.68s-15.24-8.48-18.66-22.66-.62-27,6.26-28.68c4.76-1.15,10.23,3.35,14.28,10.93l-8.08,14.74Z"/><path class="cls-7" d="M490.9,309.73s19.14,13.74,12.41,44.09"/><path class="cls-7" d="M503.64,331.15s11.92-15.4,41.62-19.69"/><path class="cls-7" d="M508,277.24a12.57,12.57,0,0,0,4.29,7.8c6,5.05,15.88,3.22,22-4.08a19.6,19.6,0,0,0,4.43-9.53c.77-4.95-.65-9.79-4.27-12.82-4.7-3.94-11.72-3.7-17.48,0a20.64,20.64,0,0,0-4.51,4,20.32,20.32,0,0,0-1.86,2.59h0"/><path class="cls-7" d="M476.81,218.85a20.25,20.25,0,0,0-2.3-.09,26.56,26.56,0,0,0-6.35.75c-17.58,4.24-27.62,25.07-22.44,46.52s23.63,35.4,41.21,31.16c9.84-2.38,17.33-10,21.09-19.95a42.24,42.24,0,0,0,2.58-12,47.6,47.6,0,0,0-1.23-14.62A46.84,46.84,0,0,0,501,233"/><path d="M492.75,241.89c3.57,14.78.07,28.31-7.81,30.21s-17.17-8.53-20.74-23.31-.07-28.31,7.81-30.21c5.46-1.32,11.58,3.27,16,11.12l-9.55,15.64Z"/><circle class="cls-6" cx="648.22" cy="143.52" r="42.07" transform="translate(78.45 484.32) rotate(-43.37)"/><circle class="cls-7" cx="648.22" cy="143.52" r="42.07" transform="translate(78.45 484.32) rotate(-43.37)"/><circle class="cls-5" cx="654.43" cy="142.68" r="6.59" transform="translate(80.73 488.36) rotate(-43.37)"/><circle class="cls-5" cx="672.03" cy="153.56" r="6.59" transform="translate(78.06 503.42) rotate(-43.37)"/><path class="cls-7" d="M309.87,261.47S340,127.41,502.35,104"/><path class="cls-7" d="M328.08,301.85s67.79-116.57,224.09-119"/><path d="M509.91,249.23,440.06,209.6a8.27,8.27,0,1,1,8.16-14.39l51.92,29.46,15.46-50.3a8.27,8.27,0,0,1,15.82,4.86Z"/><path class="cls-7" d="M336.9,542.63A383.64,383.64,0,0,1,720.65,400.48"/><path class="cls-7" d="M329.83,425.46c-3.85,16.45-7.1,33-7,49.93.29,38.54,15,77.69,36.6,109.28a202,202,0,0,0,24.77,29.63h0c-12.77,39.87-38.87,67.53-38.87,67.53-7.4,15.08,10.56,39.27,40.57,55.5q2.35,1.28,4.81,2.48C403.66,746.14,416.6,750,428,751.44c17.6,2.17,30.85-1.95,36.33-11.17,26.55-44.63,33.47-126,33.47-126"/><path class="cls-7" d="M662.21,624.75a22.54,22.54,0,0,1,2.22,4.91,57.12,57.12,0,0,1,2.8,15.61,90,90,0,0,1-.05,10.2c-.28,4.7-1.63,9.77-.64,14.45a15.54,15.54,0,0,0,1.13,3.4c5.45,11.73,22.06,13,33.27,12.18,21.7-1.61,42.55-10.18,60.45-22.55,12.12-8.38,29.07-22.94,28.08-39.33-.29-9.26-4.15-74-56.11-143.06"/><path class="cls-7" d="M369.15,119.91c-3.49,10.39-16.57,17.45-26.27,10.06A16.07,16.07,0,0,1,337,118.32c-.74-10.44,8.76-19.74-.88-28.89A26.21,26.21,0,0,1,330,60.15c3.22-7.57,9.05-16.18,19.56-23.7a15,15,0,0,1,21.83,5.07l9.15,16.8a19.51,19.51,0,0,0,19.08,10.08,19.51,19.51,0,0,1,20.6,25.1l-.61,2a11.12,11.12,0,0,1-11.67,7.82l-.18,0a10.9,10.9,0,0,0-11.38,7.49c-3.33,10.29-18.2,16.68-27.25,9.1-5.32-4.47-6.08-12.78-5.18-19.24"/><path class="cls-8" d="M742.35,778.72c7,4.47,10.94,9.7,9.75,14.07s-7.58,7-16.28,7.24a64.17,64.17,0,0,1-17.92-2.39c-10.45-2.83-19-7.58-23.65-12.51-2.87-3.06-4.18-6.19-3.42-9s3.75-5,8.11-6.19h0c6.46-1.72,16-1.39,26.09,1.35a63.6,63.6,0,0,1,17.32,7.4"/><path class="cls-8" d="M748,827.47c10.23-7.1,15.18-31.21,15.18-31.21,3.45-12.73-12.63-28.17-35.93-34.49-15-4.07-37.33-6.27-46.47,9.33C674.7,781.44,673.31,794,668.54,805c-5.47,12.54-11.58,24.69-18.06,36.74a19,19,0,0,0,3.43,22.55c6.93,6.82,13.91,13.6,22,19C689,892,704.91,895,720.43,895c31.47,0,57-13.72,57-30.64s-25.51-43.88-57-43.88c-19.67,0-37,10.52-47.25,22.56"/><path class="cls-8" d="M648.22,850.53,648,868.27a26.41,26.41,0,0,0,8.2,19.44c6.56,6.24,14.24,13.2,19.71,16.85,13.06,8.71,29,11.76,44.5,11.76,31.47,0,57-13.72,57-30.64V864.37"/><path class="cls-8" d="M371.17,793.9c4.48,3.74,6.75,7.74,5.81,11.22-1.07,3.94-6.06,6.38-13.09,7A60.49,60.49,0,0,1,342.78,810c-9-2.45-16.67-6.32-21.55-10.51-4.28-3.66-6.44-7.57-5.51-11,1-3.87,5.9-6.3,12.76-7a60.29,60.29,0,0,1,21.44,2.17c8.83,2.4,16.36,6.17,21.25,10.26"/><path class="cls-8" d="M289.74,832.61c11-4.53,22.39-5.7,30.7-5.7,18.14,0,34.29,5.72,44.71,13.82,7.65,5.95,12.22,13.17,12.22,20.34,0,16.92-25.51,30.64-57,30.64-15.51,0-31.43-3.06-44.49-11.77-8.11-5.4-15.09-12.19-22-19-6-5.92-6-14.5-3.43-22.54,9.71-30.18,47.42-37.51,55.19-55,7.36-16.51,31.46-13.4,46.47-9.33,23.31,6.32,39.39,21.76,35.93,34.49,0,0-4,14.74-26.92,23.83"/><path class="cls-8" d="M249,844.87,248,865a26.41,26.41,0,0,0,8.2,19.44c6.56,6.24,14.24,13.2,19.71,16.85C289,910,304.88,913,320.4,913c31.47,0,57-13.72,57-30.64V861.07"/><path class="cls-8" d="M365.15,840.73s-2.22-23.53-52.47-23.47"/><path class="cls-7" d="M181.91,329.73c-.32-.39-.64-.77-1-1.14"/><path class="cls-7" d="M173,366.57c-.07-.25-.16-.51-.24-.77"/><path class="cls-7" d="M161,383.18h-.35c-14.66-.41-35.12-15.63-33.85-31.59a17.17,17.17,0,0,1,8.7-14.05"/><path class="cls-7" d="M225,358.18A136.14,136.14,0,0,0,202.44,316a8,8,0,0,0-11.18-1.32,26.11,26.11,0,0,0-9.35,15.06h0c-1.72,7.48-1.14,17.78,4.42,31.78a31.75,31.75,0,0,0-13.29,5.06,29.42,29.42,0,0,0-12,16.6,44.91,44.91,0,0,0-1.67,13.59h0A13.67,13.67,0,0,1,152.8,399c-13.55,1.13-33.95-10.8-34.42-25.62a16,16,0,0,1,9.08-15.35"/><path class="cls-7" d="M156.49,414.54s53.18,5.93,69.1-56.73a18.83,18.83,0,0,1,6.79,2.28c8.94,4.77,15.23,16.65,12.46,26.43-3.7,13.1-14.35,24.42-24.53,32.32-11.06,8.59-24.51,14.25-38.92,14.58-5.5.12-11.24-.11-16.14-3.59S157.33,420.47,156.49,414.54Z"/><path d="M294.13,200.85C279.48,237,231.95,255.4,207.85,262a19.93,19.93,0,0,1-8.35.48,25.76,25.76,0,0,0,4.93-1.87c18.5-8.88,55.55-31.49,70.2-67.67,17.14-42.35,15.56-80.72-.78-97.07C302,114.22,312.16,156.32,294.13,200.85Z"/><path class="cls-7" d="M115.48,416.45c5.44,14.62,13.44,24.35,21.54,30.84"/><path class="cls-7" d="M124.39,396.28c5.3,13.75,12.87,23.09,20.62,29.43"/><path class="cls-7" d="M166.48,301a70,70,0,0,0,15.89,23.72"/><path class="cls-7" d="M160.62,314.26h0a13,13,0,0,0,4.72,16.12c7.87,5.07,14.54,13.81,15.28,21.69.37,3.94-.62,8.17-3.4,11a11.2,11.2,0,0,1-4.42,2.74,15.41,15.41,0,0,1-8.07.45c-12-2.45-26.15-15.36-29.21-28.73a21.09,21.09,0,0,1,0-10c3.08-11.92,14.58-16.16,25.09-13.23"/><path class="cls-7" d="M176.65,340.17l.32-.84,4-10.73,12.75-34.51a12.2,12.2,0,0,1,8.27-7.56c31.47-8.63,93-31.13,112.11-78.41C340.18,143.62,319.23,87.5,273,68.77a81.8,81.8,0,0,0-18.22-5c-.71-.1-1.41-.21-2.11-.29s-1.48-.18-2.22-.24-1.48-.14-2.22-.19c-.37,0-.74-.06-1.11-.06h-.37a2.76,2.76,0,0,0-.29,0,4.88,4.88,0,0,0-.68,0h-.2c-.55,0-1.11-.05-1.65,0a.77.77,0,0,0-.22,0c-.65,0-1.29,0-1.93,0a2.47,2.47,0,0,0-.42,0h-.4c-.4,0-.82,0-1.23,0s-.58,0-.87,0h-.17c-.48,0-1,0-1.45.08a2.18,2.18,0,0,0-.39,0h-.14c-.57,0-1.13.08-1.68.14s-1.36.14-2,.22c-.3,0-.6.06-.91.12s-.88.11-1.32.18l-.41.06h-.12c-.66.1-1.32.21-2,.34-1.46.26-2.94.56-4.4.91h0c-.67.16-1.33.32-2,.51-2.56.67-5.12,1.47-7.64,2.4-1.3.47-2.59,1-3.88,1.52l-1.93.83-1.91.88c-.76.36-1.52.73-2.28,1.12l-.53.26-1.78.95-.59.32,0,0-1.16.65-1.16.67-.07,0c-.62.35-1.22.74-1.84,1.12-.25.14-.49.3-.73.46l-1.6,1-.1.08-1.14.76-1.23.86c-.43.3-.85.59-1.26.9l-.07,0-1.12.84-.89.66-1,.76-.82.65-.95.76-1.19,1-.12.1-.73.62q-.61.51-1.21,1a118.59,118.59,0,0,0-9.39,9.31q-1.13,1.25-2.25,2.56c-1.48,1.73-2.94,3.53-4.36,5.39-.71.93-1.41,1.88-2.11,2.83s-1.39,1.94-2.07,2.93-1.35,2-2,3-1.32,2.05-2,3.11-1.12,1.85-1.67,2.79-1.19,2.05-1.77,3.1l0,0c-.41.74-.82,1.48-1.22,2.23-.07.14-.15.27-.22.42-.53,1-1,2-1.55,3-1,2-2,4.08-3,6.2-.41.9-.81,1.81-1.22,2.74l-.27.64c-.43,1-.87,2-1.29,3.09q-.35.86-.67,1.71c-.09.23-.18.48-.27.72s-.17.46-.25.71c-.18.48-.35,1-.51,1.45-.26.77-.51,1.54-.74,2.32s-.46,1.55-.67,2.34c-.13.49-.27,1-.38,1.47a.08.08,0,0,0,0,0c-.07.24-.13.47-.18.71a2.81,2.81,0,0,0-.08.35c0,.12-.05.25-.08.36a2.64,2.64,0,0,0-.07.26c-.12.51-.23,1-.34,1.51-.17.79-.33,1.58-.48,2.37s-.27,1.48-.39,2.23c0,.3-.09.6-.13.91-.17,1.11-.32,2.22-.44,3.32l-.12,1q-.12,1.07-.2,2.13c-.06.8-.12,1.61-.16,2.42s-.09,1.61-.11,2.43-.05,1.61-.07,2.42c0,1.62,0,3.25,0,4.86q.11,3.66.42,7.3c.14,1.62.32,3.24.52,4.85.07.64.16,1.29.25,1.91,0,.29.08.58.13.86l0,.23c.07.5.13,1,.22,1.5,0,.27.07.52.13.78.09.62.2,1.23.3,1.85.14.84.3,1.68.47,2.53.06.33.13.66.2,1,.16.85.34,1.69.52,2.54a.37.37,0,0,0,0,.11c.14.72.31,1.44.47,2.15.1.46.21.92.32,1.37.19.8.37,1.58.58,2.36s.36,1.43.56,2.15c0,.13.06.26.1.38.09.39.2.78.31,1.16l0,.12c.22.83.46,1.67.7,2.5l.08.29.05.18,0,.11,0,.06v.05h0c.31,1.06.63,2.1,1,3.14.37,1.21.76,2.42,1.15,3.6s.76,2.23,1.14,3.32c.2.55.38,1.11.59,1.64s.39,1.09.6,1.64c.4,1.08.8,2.16,1.21,3.22l.15.39c.35.91.71,1.82,1.06,2.71l.87,2.13c.44,1.07.88,2.13,1.33,3.17.56,1.31,1.12,2.59,1.69,3.86.22.5.44,1,.67,1.48.07.15.14.31.21.44.27.62.56,1.23.84,1.82.57,1.23,1.15,2.46,1.73,3.64.29.6.57,1.19.87,1.77l.27.55c.29.58.58,1.15.86,1.72.45.9.9,1.78,1.34,2.65l1,1.84.85,1.61.84,1.58c.56,1,1.12,2.05,1.66,3,.27.49.54,1,.82,1.46l1.2,2.12c.14.24.27.46.4.69l1.55,2.64h0c.14.22.26.45.37.67h0c.13.24.23.46.33.7s.2.47.28.71.16.48.24.72.15.55.21.82l0,.1c0,.22.08.44.11.65a1.7,1.7,0,0,1,0,.34,2.85,2.85,0,0,1,.05.41v0c0,.13,0,.27,0,.41a9.15,9.15,0,0,1,0,.94l0,.52a0,0,0,0,1,0,0l0,.56a10.34,10.34,0,0,1-.16,1h0c-.07.34-.15.69-.26,1h0a12.09,12.09,0,0,1-.55,1.53l-12.55,28.47"/><path class="cls-7" d="M127.36,389.65l-3,6.68h0l-8.9,20.18h0L100.4,450.76a11,11,0,0,0,.41,9.7h0a19.94,19.94,0,0,0,23.33,9.43,10.92,10.92,0,0,0,7-6.68L147.54,419,155,398.68"/><path class="cls-7" d="M273,68.77c-28.23-11.43-58.68-16.57-87.29-3.57-59.8,27.16-77,95.54-56.56,152,8.42,23.27,25.68,50.34,44.87,66"/><path class="cls-7" d="M294.13,200.85C279.48,237,231.95,255.4,207.85,262a20,20,0,0,1-22.55-9.13c-12.71-21.51-34.09-67.77-19.44-104,20-49.37,62.76-72.48,98.18-58.14S314.12,151.48,294.13,200.85Z"/><line class="cls-7" x1="166.66" y1="211.04" x2="250.34" y2="244.92"/><polyline class="cls-7" points="215.17 92.85 234.5 100.68 256.68 109.65 278.9 118.65 297.71 126.26"/><polyline class="cls-7" points="190.57 110.46 202.74 115.39 224.91 124.36 247.09 133.34 269.31 142.34 291.48 151.31 303.13 156.03"/><polyline class="cls-7" points="174.46 131.49 193.15 139.06 215.33 148.04 237.5 157.02 259.72 166.01 281.9 174.99 300.07 182.34"/><polyline class="cls-7" points="163.84 154.76 183.56 162.75 205.74 171.73 227.91 180.7 250.13 189.7 272.31 198.68 291.52 206.45"/><polyline class="cls-7" points="161.06 181.21 173.98 186.44 196.15 195.41 218.33 204.39 240.55 213.38 262.72 222.36 275.12 227.38"/><line class="cls-7" x1="195.26" y1="261.35" x2="264.27" y2="90.88"/><polyline class="cls-7" points="178.2 239.76 186.56 219.1 196.15 195.41 205.74 171.73 215.33 148.04 224.91 124.36 234.5 100.68 240.19 86.63"/><polyline class="cls-7" points="211.02 94.93 202.74 115.39 193.15 139.06 183.56 162.75 173.98 186.44 165.55 207.26"/><polyline class="cls-7" points="299.51 131.49 291.48 151.31 281.9 174.99 272.31 198.68 262.72 222.36 254.57 242.5"/><polyline class="cls-7" points="222.78 257.27 230.96 237.07 240.55 213.38 250.13 189.7 259.72 166.01 269.31 142.34 278.9 118.65 284.49 104.84"/><path class="cls-7" d="M264,90.78c24.65,10,30.57,52.8,10.59,102.17-14.65,36.19-51.7,58.78-70.2,67.66a11.56,11.56,0,0,1-9.16.73"/><path class="cls-7" d="M156.49,414.54s-4.66-1.46-5-6.21"/><ellipse class="cls-7" cx="358.52" cy="407.61" rx="33.8" ry="44.03" transform="translate(-164.54 262.38) rotate(-33.15)"/><path class="cls-7" d="M382.6,444.48l18-11.74c15.63-10.21,17.52-35,4.22-55.35S368,348.8,352.42,359l-18,11.74"/><ellipse class="cls-7" cx="358.52" cy="407.61" rx="18.68" ry="28.4" transform="translate(-164.54 262.38) rotate(-33.15)"/><path class="cls-7" d="M737.37,276.94a121.87,121.87,0,0,1,15.4-14.79c6.81-5.51,15.51-12,24.38-13.33,9.6-1.43,10.76,7.8,9,15-2.73,11.06-11.42,18.34-21,23.87,0,0,12,11.37,5.48,27.7"/><path class="cls-7" d="M759.64,345.78s-43.35-15.29-22.27-68.84c0,0-14.61-4.31-23,12.41-9.1,18.14.32,63.09,31.42,62.09A19.89,19.89,0,0,0,759.64,345.78Z"/><path class="cls-7" d="M787.23,258.9A77.54,77.54,0,0,0,814.86,243a23.6,23.6,0,0,1,3.83-3c6.84-3.89,15.31,2,16,9.3,2.15,23.64-33.84,32-33.84,32"/><path class="cls-7" d="M832,261.62a10.93,10.93,0,0,1,12.34,10.48c1.21,24.57-39.73,32.5-39.73,32.5"/><path class="cls-7" d="M759.61,345.82l0,0c28.61,7.18,40.23-14.92,40.6-15.49,10.69,1.05,51.95-10,50.25-36.43a11.79,11.79,0,0,0-8.76-10.21"/><path d="M377.28,428.34c-2,1.53-4,3-6.09,4.43a138,138,0,0,1-20.66,11.85A124.57,124.57,0,0,1,305.48,456q-3.9.23-7.74.23c-35.54,0-67-14.91-89.45-29.78a73.81,73.81,0,0,0,12-7.63c10.18-7.9,20.82-19.22,24.53-32.32.07-.23.13-.47.18-.71,15.94,9.46,36.18,17.6,57.38,16.24a69.3,69.3,0,0,0,19-4,80.2,80.2,0,0,0,16.72-8.34,99.62,99.62,0,0,0,10.69-7.93c8.26-.89,18.54,5.1,25.39,15.57C381.48,408.61,382.51,421.34,377.28,428.34Z"/><path class="cls-7" d="M383.94,89.17C356.47,78,371.24,41.23,346.26,39.69"/><path class="cls-7" d="M759.27,649.6a117.84,117.84,0,0,1-19.32,12.5,134.84,134.84,0,0,1-12.35,5.69c-20.87,8.36-40,9.7-45.63,2.39-6.74-8.69,8-26.32,33-39.49l.44-.23a119.77,119.77,0,0,1,32.44-11.69c12.15-2.28,21.79-1.23,25.54,3.61C778.18,628.55,772.12,639.22,759.27,649.6Z"/><path d="M756,777.41c-1.16,4.46-2.39,9-3.74,13.48q-.58,2-1.19,3.94c-2.35,3.24-8,5.05-15.29,5.21a64.18,64.18,0,0,1-17.92-2.39c-9.33-2.54-17.2-6.58-22-11q2.9-8.67,5.25-17.2,1.51-5.34,2.78-10.61a353.35,353.35,0,0,0,7.52-126.25q1.75-1,3.57-2l.43-.22a119.42,119.42,0,0,1,32.44-11.69c6.71-1.26,12.66-1.51,17.27-.66,1,7.32,1.92,15.19,2.59,23.56A410,410,0,0,1,756,777.41Z"/><path d="M419.62,750C409.53,764.37,398,779.43,385,794.78q-3.84,4.55-7.86,9.11c-1.94,2.21-3.9,4.41-5.91,6.62a26,26,0,0,1-7.38,1.67A60.49,60.49,0,0,1,342.78,810c-9-2.45-16.67-6.32-21.55-10.51-4-3.44-6.17-7.09-5.64-10.33q2.9-3,5.71-6,5.84-6.15,11.28-12.26c13.85-15.5,25.86-30.63,36.12-44.71a127.14,127.14,0,0,0,17.22,11.14c1.57.85,3.18,1.68,4.81,2.48A126.26,126.26,0,0,0,419.62,750Z"/></g></svg>