<?xml version="1.0" encoding="utf-8"?>
<!-- Generator: Adobe Illustrator 23.0.0, SVG Export Plug-In . SVG Version: 6.00 Build 0)  -->
<svg version="1.1" xmlns="http://www.w3.org/2000/svg" xmlns:xlink="http://www.w3.org/1999/xlink" x="0px" y="0px" width="950px"
	 height="950px" viewBox="0 0 950 950" enable-background="new 0 0 950 950" xml:space="preserve">
<g id="pear">
</g>
<g id="pearson">
</g>
<g id="squash">
</g>
<g id="med">
</g>
<g id="coupon">
</g>
<g id="tukey">
</g>
<g id="galton">
</g>
<g id="fisher">
</g>
<g id="cox">
</g>
<g id="shark">
</g>
<g id="source">
</g>
<g id="Layer_13">
</g>
<g id="workspace">
	<circle fill="#FF92A4" cx="475" cy="475" r="359.12"/>
	<g>
		<path fill="#7F5C49" d="M838.17,324.9l-12.05-15.52c0,0,58.3-93.73-90.68-104.4c0,0-42.11,4.06-81.79,49.24
			c0,0-18.76,17.04-50.29,15.8c-37.25-1.46-143.71,19.21-215.92,61c-18.16,10.51-39.98,12.66-59.78,5.71
			c-54.34-19.06-171.05-53.38-307.74-53.8c0,0,209.93,32.73,360.86,142.46l-26.9,24.36c0,0,4.93,37.17-10.66,51.23l21.66-0.77
			c0,0-36.17,48.79-111.31,83.21c0,0,115.86,2.14,215.55-20.37c0,0,38.75,33.95,94.34,10.74c0,0,14.78-6.28,30.93-2.76
			s155.96-28.89,185.78-145.64C780.19,425.4,788.17,359.55,838.17,324.9z"/>
		<path fill="#E8D3C5" d="M380.79,425.4c0,0-134.73-90.34-262.2-117.39c0,0,133.89,126.68,235.3,141.75L380.79,425.4z"/>
		<path fill="#8E6B5B" d="M648.81,419.36c0,0-14.59-13.86-39.49-7.37c-24.9,6.49-59.77-42.36-59.77-42.36s-27.32-29.41-82.77-16.97
			c0,0,13.99,73.45,88.1,105.65C554.88,458.31,619.39,463.25,648.81,419.36z"/>
		<path fill="#8E6B5B" d="M653.65,254.23c0,0-1.08,31.57-75.21,33.86c-58.48,1.79-157.74,55-197.05,77.38
			c-10.37,5.91-22.78,6.98-34.02,2.98c-26.41-9.39-88.71-29-223.88-61.44c-30.59-7.33-64.92-15.33-103.41-24.03
			c-0.05,0-0.11-0.01-0.15-0.03c136.69,0.42,253.4,34.75,307.74,53.8c19.8,6.95,41.61,4.8,59.77-5.7
			c72.22-41.8,178.69-62.47,215.93-61.01C634.9,271.26,653.65,254.23,653.65,254.23z"/>
		<path fill="#8E6B5B" d="M482.8,509.52c0,0-72.14,79.02-229.21,73.91l30.8-16.02C284.39,567.41,408.68,554.81,482.8,509.52z"/>
		<path fill="#8E6B5B" d="M474.02,490.37c0,0-91.63,66.44-189.63,77.04l45.54-32.01C329.93,535.4,400.91,528.78,474.02,490.37z"/>
		<path fill="#8E6B5B" d="M494.6,465.49c0,0-81.75,63.91-164.67,69.91c0,0,24.39-15.74,34.96-35.18
			C364.89,500.22,443.87,493.43,494.6,465.49z"/>
		<path fill="#8E6B5B" d="M455.58,438.82c0,0-44.94,49.98-112.35,62.17l11.32-18.37C354.55,482.62,397.05,475.49,455.58,438.82z"/>
		<path fill="#8E6B5B" d="M443.76,411.99l-89.21,70.64l0.07-19.44C354.63,463.18,391.01,434.99,443.76,411.99z"/>
		<path fill="#8E6B5B" d="M469.14,369.63c0,0-93.29,63.02-114.51,93.56l-0.74-13.42C353.89,449.76,430.61,373.57,469.14,369.63z"/>
		<path fill="#8E6B5B" d="M728.61,322.95c-6.76-6.9-4.5-18.31-1.8-26.7c5.2-16.15,14.7-32.84,31.51-39.26
			c28.93-11.05,65.39,15.01,46.45,46.31c-11.47,18.94-32.91,25.9-54.02,26.02c-6.84,0.04-14.99-0.64-20.61-5.01
			C729.58,323.88,729.07,323.43,728.61,322.95z"/>
		<path fill="#E8D3C5" d="M826.12,309.38c0,0-27.88-2.45-55.36,15.52s-51.35-9.93-51.35-9.93s-35.21-6.06-55.28,15.22
			c0,0,85.2,25.25,69.94,81.8c-15.27,56.55-90.97,104.48-143.51,110.09c0,0-86.28,38.18-121.42,40.98c0,0,35.04,33.82,94.34,10.74
			c0,0,13.28-6.59,22.42-2.76c9.15,3.82,181.15-23.48,204.55-181.38c0,0,9.88-35.31,47.72-64.76L826.12,309.38z"/>
		<path fill="#604C45" d="M930.1,314.97c0,0-43.4-32.92-92.23-39.16c0,0,0.12,24.3-11.75,33.57l12.05,15.52
			C838.17,324.9,866.44,312.46,930.1,314.97z"/>
		<path fill="#604C45" d="M496.05,577.85l120.29,87.18c0,0-40.6,3.62-42.45,28.56l15.12-2.73c0,0,32.59-24.3,51.44,16.23
			c0,0,8.54,17.51,20.38,14.08c0,0-2.84-28.69-13.97-42.4c0,0,9.8-6.04,17.57,6.5s23.54,12.5,23.54,12.5s2.08-41.61-50.37-38.51
			l-102.77-77.89C534.84,581.35,512.1,585.9,496.05,577.85z"/>
		<path fill="#4C3D38" d="M405.24,574.25l46.31,114.57c0,0-38.44,3.1-43.37,28.56c0,0,10.99,3.78,21.7-5.2s37.94-7.97,45.78,18.7
			c0,0,4.89,15.23,20.38,14.08c0,0-0.32-23.79-13.98-42.4c0,0,10.84-5.37,17.58,6.5c6.74,11.87,23.54,12.5,23.54,12.5
			s-6.06-46.95-54.05-37.8L424.99,571.4L405.24,574.25z"/>
		<path fill="#4C3D38" d="M826.12,309.38h33.98c0,0,3.29-21.22-22.23-33.57C837.87,275.81,838.36,300.3,826.12,309.38z"/>
		<path fill="none" stroke="#000000" stroke-width="5" stroke-linecap="round" stroke-linejoin="round" stroke-miterlimit="10" d="
			M664.13,330.19c0,0,29.99,8.27,54.79,31.7c16.37,15.46,21.17,39.64,11.71,60.07c-16.47,35.54-73.09,94.83-144.72,102.5"/>
		<path fill="none" stroke="#000000" stroke-width="5" stroke-linecap="round" stroke-linejoin="round" stroke-miterlimit="10" d="
			M657.81,465.49c0,0-51.36,115.08-404.22,117.94c0,0,83.86-40.64,111.31-83.21"/>
		<path fill="none" stroke="#000000" stroke-width="5" stroke-linecap="round" stroke-linejoin="round" stroke-miterlimit="10" d="
			M494.6,465.49c0,0-67.41,35.5-151.37,35.5c0,0,14.88-17.41,10.66-51.23c0,0,67.83-66.06,110.97-79.74"/>
		<path fill="none" stroke="#000000" stroke-width="5" stroke-linecap="round" stroke-linejoin="round" stroke-miterlimit="10" d="
			M648.81,419.36c0,0-29.54,43.87-94.9,38.5c0,0-68.04-27.75-88.63-104.75c0,0,25.45-15.64,49.29-18.07"/>
		<path fill="none" stroke="#000000" stroke-width="5" stroke-linecap="round" stroke-linejoin="round" stroke-miterlimit="10" d="
			M114.99,304.59c0,0,131.16,127.87,238.9,145.18"/>
		<path fill="none" stroke="#000000" stroke-width="5" stroke-linecap="round" stroke-linejoin="round" stroke-miterlimit="10" d="
			M712.9,300.21c0,0,8.4,43.77,57.87,24.69"/>
		<circle cx="791.29" cy="288.08" r="15.5"/>
		<path fill="none" stroke="#000000" stroke-width="5" stroke-linecap="round" stroke-linejoin="round" stroke-miterlimit="10" d="
			M837.87,274.53c0,0,65.27,14.12,92.23,40.43l-53.59,2.04c-13.13,0.5-26.08,3.17-38.33,7.9h0"/>
		
			<line fill="none" stroke="#000000" stroke-width="5" stroke-linecap="round" stroke-linejoin="round" stroke-miterlimit="10" x1="930.1" y1="314.97" x2="847.93" y2="309.32"/>
		<path fill="none" stroke="#000000" stroke-width="5" stroke-linecap="round" stroke-linejoin="round" stroke-miterlimit="10" d="
			M405.24,573.81l46.31,115.02c0,0-35.86,3.2-43.37,28.56h0.92c7.25,0,14.34-1.87,20.78-5.2c6.55-3.39,16.24-6.55,25.81-2.9
			c0,0,13.46,4.55,19.97,21.6c3.23,8.46,11.32,14.08,20.38,14.08h0c0,0-2.24-36.21-21.71-50.06"/>
		<path fill="none" stroke="#000000" stroke-width="5" stroke-linecap="round" stroke-linejoin="round" stroke-miterlimit="10" d="
			M424.85,571.05l43.55,112.89c0,0,48.04-13.46,54.78,37.62h-1.15c-9.13,0-17.43-4.84-22.39-12.5c-3.27-5.05-8.71-9.15-17.58-6.5"/>
		<path fill="none" stroke="#000000" stroke-width="5" stroke-linecap="round" stroke-linejoin="round" stroke-miterlimit="10" d="
			M496.05,577.85l120.29,87.18c0,0-35.86,3.2-43.37,28.56h0.92c7.25,0,14.34-1.87,20.78-5.2c6.55-3.39,16.24-6.55,25.81-2.9
			c0,0,13.46,4.55,19.97,21.6c3.23,8.46,11.32,14.08,20.38,14.08h0c0,0-2.24-36.21-21.71-50.06"/>
		<path fill="none" stroke="#000000" stroke-width="5" stroke-linecap="round" stroke-linejoin="round" stroke-miterlimit="10" d="
			M531.53,581.35l106.08,77.89h0.02h-0.02c12.02-1.88,44.87-3.07,50.37,38.51h-1.15c-9.12,0-17.43-4.84-22.39-12.5
			c-3.27-5.05-8.71-9.14-17.57-6.5"/>
		<path fill="none" stroke="#000000" stroke-width="5" stroke-linecap="round" stroke-linejoin="round" stroke-miterlimit="10" d="
			M282.9,567.55c0,0,109.3-9.72,199.9-58.04"/>
		<path fill="none" stroke="#000000" stroke-width="5" stroke-linecap="round" stroke-linejoin="round" stroke-miterlimit="10" d="
			M329.93,536.03c0,0,88.99-13.84,144.41-45.84"/>
		<path fill="none" stroke="#000000" stroke-width="5" stroke-linecap="round" stroke-linejoin="round" stroke-miterlimit="10" d="
			M354.55,465.49c0,0,53.77-41.04,89.21-53.5"/>
		<path fill="none" stroke="#000000" stroke-width="5" stroke-linecap="round" stroke-linejoin="round" stroke-miterlimit="10" d="
			M351.7,483.32c0,0,56.84-12.87,104-44.58"/>
		<path fill="none" stroke="#000000" stroke-width="5" stroke-linecap="round" stroke-linejoin="round" stroke-miterlimit="10" d="
			M476.56,382.93c0,0,38.83-16,72.99-12.91"/>
		<path fill="none" stroke="#000000" stroke-width="5" stroke-linecap="round" stroke-linejoin="round" stroke-miterlimit="10" d="
			M522.72,438.74c0,0,56.72,2.87,86.6-26.75"/>
		<path fill="none" stroke="#000000" stroke-width="5" stroke-linecap="round" stroke-linejoin="round" stroke-miterlimit="10" d="
			M702.75,348.95c0,0,51.91,27.33,51.68,60.03"/>
		<path fill="none" stroke="#000000" stroke-width="5" stroke-linecap="round" stroke-linejoin="round" stroke-miterlimit="10" d="
			M247.7,406.64c12.42-2.96,55.5-12.2,92.67-7.24"/>
		<path fill="none" stroke="#000000" stroke-width="5" stroke-linecap="round" stroke-linejoin="round" stroke-miterlimit="10" d="
			M288.42,428.37c8.05-4.05,41.55-19.41,76.24-13.77"/>
		<path fill="none" stroke="#000000" stroke-width="5" stroke-linecap="round" stroke-linejoin="round" stroke-miterlimit="10" d="
			M200.24,375.23c8.44-3.3,38.15-12.84,84.92-5.61"/>
		<path fill="none" stroke="#000000" stroke-width="5" stroke-linecap="round" stroke-linejoin="round" stroke-miterlimit="10" d="
			M19.93,282.94C241.73,322,380.79,425.4,380.79,425.4"/>
		<path fill="none" stroke="#000000" stroke-width="5" stroke-linecap="round" stroke-linejoin="round" stroke-miterlimit="10" d="
			M19.9,282.94c0.02,0,0.02,0,0.03,0c128.75,2.68,238.14,32.08,301.84,53.66c22.85,7.74,47.84,4.97,68.72-7.11
			c88.15-50.97,192.25-59.13,231.03-60.36c10.43-0.35,20.39-4.33,28.14-11.32l32.85-29.59c38.64-34.81,106.6-29.33,141.7,8.47
			c16.3,17.53,18.22,48.56,4.82,68.4l-2.9,4.29l12.05,15.52l-21.01,20.45c-14.07,13.66-23.81,31.14-28.29,50.23
			C752.73,548.94,628.08,568.03,585.36,570c-9.27,0.42-18.4,2.38-27.13,5.54c-51.96,18.81-92.83-11.69-92.83-11.69"/>
	</g>
</g>
</svg>
