<svg id="pear" xmlns="http://www.w3.org/2000/svg" viewBox="0 0 950 950"><defs><style>.cls-1{fill:#8f66d1;}.cls-2{fill:#7aa33a;}.cls-3{fill:#3f541b;}.cls-4{fill:#4f4747;}.cls-5{fill:#42210b;}.cls-6,.cls-7{fill:none;}.cls-6,.cls-7,.cls-9{stroke:#000;stroke-linecap:round;stroke-miterlimit:10;}.cls-6,.cls-9{stroke-width:5px;}.cls-7{stroke-width:20px;}.cls-8{fill:#fff;}.cls-9{fill:#d64132;}</style></defs><title>alternative_stats</title><circle class="cls-1" cx="475" cy="475" r="359.11632"/><path class="cls-2" d="M430.86348,256.69353a49.0076,49.0076,0,0,0,24.16112-2.447h.00735c18.0988-6.31952,39.79091-9.8173,57.7207-1.10959,8.377,4.06359,15.53425,10.2141,23.28668,15.2991,32.56021,21.33205,49.4098-12.48471,49.4098-12.48471-6.25338,4.73228-12.933,10.06713-20.84706,11.456-16.77611,2.94665-27.4458-10.8681-39.47493-19.833a48.83205,48.83205,0,0,0-25.403-9.94221c.69074.00735,1.37413.03674,2.05752.08083,8.75914.53642,17.12148,3.65944,25.73365,5.14379a86.91206,86.91206,0,0,0,26.542.69074c15.18154-2.09426,27.4899-10.27289,32.5602-24.16848,15.09336,16.11477,26.57871,35.67588,35.94776,56.376,8.3256,18.39273,12.11,37.57172,15.63713,57.37532,2.21918,12.47737,5.37894,25.32216,12.70517,35.889,8.14923,11.75724,19.81829,20.318,30.46594,29.67968C803.09032,505.68981,822.29137,716.3575,699.20777,829.30782a267.66254,267.66254,0,0,1-62.50443,42.62734C485.38767,946.601,279.70212,907.72861,196.20368,749.97585c-35.29376-66.68559-37.366-151.55081-10.60356-222.76294,17.0333-45.30946,41.49571-87.32689,59.97662-132.0191,17.78282-43.0021,23.08827-89.89879,46.40435-131.01239a170.50075,170.50075,0,0,1,19.28922-27.37232l.00735-.00735c.654-.33067,1.30064-.69074,1.93994-1.0655q8.829-5.16951,17.702-10.27288l.00734-.00735c36.1976-7.56873,66.083-17.364,90.56749-27.82057,7.71569,16.97451,10.36107,36.40335,9.55275,55.18554-.05878,1.286-.12492,2.5719-.1837,3.85785Z"/><path class="cls-3" d="M514.15617,178.01556c29.8046-27.81322,81.93326-8.07576,74.22492,34.772a40.27219,40.27219,0,0,1-1.76359,6.5914c-5.0703,13.89559-17.37866,22.07422-32.5602,24.16848a86.91206,86.91206,0,0,1-26.542-.69074c-8.61217-1.48435-16.97451-4.60737-25.73365-5.14379-.68339-.04409-1.36678-.07348-2.05752-.08083h-.00735a54.59671,54.59671,0,0,0-32.74391,10.2141c-.38946.28658-.78627.55847-1.18307.83035a48.63819,48.63819,0,0,1-10.75788,5.57c8.36234-6.87064,15.74736-14.13074,25.95411-18.3413,9.67768-3.98276,19.79625-4.15177,30.08383-3.66679,9.93487.463,19.42149,3.90929,29.518,1.88851,14.10869-2.81439,23.38956-16.52627,18.53235-30.58352-3.63739-10.53008-13.1828-18.41477-23.74962-21.39817-16.59241-4.67351-28.3423,3.27733-32.84679,11.69845a55.75669,55.75669,0,0,1,9.62624-13.8515c.64665-.676,1.308-1.33,1.97669-1.95464A.12709.12709,0,0,0,514.15617,178.01556Z"/><path class="cls-3" d="M564.60207,267.40732c7.9141-1.38883,14.59368-6.72368,20.84706-11.456,0,0-16.84959,33.81676-49.4098,12.48471-7.75243-5.085-14.90965-11.23551-23.28668-15.2991-17.92979-8.70771-39.6219-5.20993-57.7207,1.10959a48.63819,48.63819,0,0,0,10.75788-5.57c.3968-.27188.79361-.54377,1.18307-.83035a54.59671,54.59671,0,0,1,32.74391-10.2141h.00735a48.83205,48.83205,0,0,1,25.403,9.94221C537.15627,256.53922,547.826,270.354,564.60207,267.40732Z"/><path class="cls-3" d="M508.43186,222.36974c11.86747-1.08019,17.45216-16.541,7.75243-24.37422a14.90185,14.90185,0,0,0-14.31444-2.81439c.2131-.44825.4262-.89649.654-1.33739,4.50449-8.42112,16.25438-16.372,32.84679-11.69845,10.56682,2.9834,20.11223,10.86809,23.74962,21.39817,4.85721,14.05725-4.42366,27.76913-18.53235,30.58352-10.09653,2.02078-19.58315-1.42556-29.518-1.88851-10.28758-.485-20.40615-.316-30.08383,3.66679-10.20675,4.21056-17.59177,11.47066-25.95411,18.3413h-.00735a60.34562,60.34562,0,0,1,12.9991-17.75343,52.37271,52.37271,0,0,1,15.086-10.22145c.66134-.29394,1.33739-.57317,2.01343-.83771C492.96375,222.39913,500.25323,223.11927,508.43186,222.36974Z"/><path class="cls-2" d="M516.18429,197.99552c9.69973,7.83326,4.115,23.294-7.75243,24.37422-8.17863.74953-15.46811.02939-23.30872,3.06423-.676.26454-1.35209.54377-2.01343.83771v-.00735a164.40067,164.40067,0,0,0,2.29266-48.21938,165.81888,165.81888,0,0,1,26.74772,1.94729,55.75669,55.75669,0,0,0-9.62624,13.8515c-.2278.4409-.4409.88914-.654,1.33739A14.90185,14.90185,0,0,1,516.18429,197.99552Z"/><path class="cls-4" d="M512.45137,121.83065a9.65057,9.65057,0,0,1,1.52844,14.17482c-5.77574,6.51057-15.66652,16.32052-30.87745,27.35763-4.409,3.20384-9.26617,6.51057-14.601,9.86873a335.02666,335.02666,0,0,1-47.00691,24.40362C397.01,208.092,367.12454,217.88729,330.92694,225.456c15.74736-9.08982,31.53145-18.13554,47.0951-27.51929,11.4633-6.65754,68.23607-39.73212,85.20324-49.52737,12.30836-7.10578,27.22536-13.19015,32.85413-27.33558a43.992,43.992,0,0,0,2.54986-9.40579h.00734Z"/><path class="cls-4" d="M494.41136,79.09309c3.96806,10.05978,5.9521,21.6921,4.21791,32.5749a43.992,43.992,0,0,1-2.54986,9.40579c-5.62877,14.14543-20.54577,20.2298-32.85413,27.33558-16.96717,9.79525-73.73994,42.86983-85.20324,49.52737-15.56365,9.38375-31.34774,18.42947-47.0951,27.51929l-.00734.00735q-8.862,5.11439-17.702,10.27288c-.6393.37476-1.286.73483-1.93994,1.0655l-.00735.00735c-14.16012,7.42176-30.62761,6.78246-39.81295-8.77384-12.35245-20.92788,9.67033-59.45489,19.64928-78.28117a239.09574,239.09574,0,0,1,30.60557-44.76569c.507.09553,1.01406.18371,1.52844.25719,20.2445,3.03484,38.72541-8.25211,38.72541-8.25211a69.48723,69.48723,0,0,0-18.42213-13.87354c.97-.8524,1.92525-1.66806,2.90992-2.48372,26.24069-21.86846,57.69865-36.77811,92.50008-39.07077C465.54,39.80186,484.85125,54.85848,494.41136,79.09309Z"/><path class="cls-5" d="M468.50134,173.23183c5.33485-3.35816,10.19206-6.66489,14.601-9.86873.2131,1.02876.40416,2.02077.58786,2.9834q1.09122,5.84187,1.71215,11.6911v.00735a164.40067,164.40067,0,0,1-2.29266,48.21938v.00735a52.37271,52.37271,0,0,0-15.086,10.22145,60.34562,60.34562,0,0,0-12.9991,17.75343,49.0076,49.0076,0,0,1-24.16112,2.447v-.01469c.05878-1.28595.12492-2.5719.1837-3.85785.80832-18.78219-1.83706-38.211-9.55275-55.18554A335.02666,335.02666,0,0,0,468.50134,173.23183Z"/><path class="cls-3" d="M343.54393,83.11994a69.48723,69.48723,0,0,1,18.42213,13.87354s-18.48091,11.28695-38.72541,8.25211c-.51438-.07348-1.02141-.16166-1.52844-.25719C302.276,101.3951,288.645,85.99311,288.645,85.99311s18.48091-11.28694,38.72541-8.25211A52.6661,52.6661,0,0,1,343.54393,83.11994Z"/><path class="cls-6" d="M586.61016,219.37165l.00734.00734c15.09336,16.11477,26.57871,35.67588,35.94776,56.376,8.3256,18.39273,12.11,37.57172,15.63713,57.37532,2.21918,12.47737,5.37894,25.32216,12.70517,35.889,8.14923,11.75724,19.81829,20.318,30.46594,29.67968C803.09032,505.68981,822.29137,716.3575,699.20777,829.30782a267.66254,267.66254,0,0,1-62.50443,42.62734C485.38767,946.601,279.70212,907.72861,196.20368,749.97585c-35.29376-66.68559-37.366-151.55081-10.60356-222.76294,17.0333-45.30946,41.49571-87.32689,59.97662-132.0191,17.78282-43.0021,23.08827-89.89879,46.40435-131.01239a170.50075,170.50075,0,0,1,19.28922-27.37232"/><path class="cls-6" d="M512.15009,179.99224a165.81888,165.81888,0,0,0-26.74772-1.94729H485.395"/><path class="cls-6" d="M483.10236,163.3631c.2131,1.02876.40416,2.02077.58786,2.9834q1.09122,5.84187,1.71215,11.6911v.00735a164.40067,164.40067,0,0,1-2.29266,48.21938"/><path class="cls-6" d="M421.49443,197.63545c7.71569,16.97451,10.36107,36.40335,9.55275,55.18554-.05878,1.286-.12492,2.5719-.1837,3.85785"/><path class="cls-6" d="M502.52385,193.84374c4.50449-8.42112,16.25438-16.372,32.84679-11.69845,10.56682,2.9834,20.11223,10.86809,23.74962,21.39817,4.85721,14.05725-4.42366,27.76913-18.53235,30.58352-10.09653,2.02078-19.58315-1.42556-29.518-1.88851-10.28758-.485-20.40615-.316-30.08383,3.66679-10.20675,4.21056-17.59177,11.47066-25.95411,18.3413"/><path class="cls-6" d="M455.0246,254.24656a60.34562,60.34562,0,0,1,12.9991-17.75343,52.37271,52.37271,0,0,1,15.086-10.22145c.66134-.29394,1.33739-.57317,2.01343-.83771,7.84061-3.03484,15.13009-2.3147,23.30872-3.06423,11.86747-1.08019,17.45216-16.541,7.75243-24.37422a14.90185,14.90185,0,0,0-14.31444-2.81439"/><path class="cls-6" d="M455.0246,254.24656a49.0076,49.0076,0,0,1-24.16112,2.447,50.33323,50.33323,0,0,1-35.93306-24.08029"/><path class="cls-6" d="M499.71681,237.63211a54.59671,54.59671,0,0,0-32.74391,10.2141c-.38946.28658-.78627.55847-1.18307.83035a48.63819,48.63819,0,0,1-10.75788,5.57"/><path class="cls-6" d="M514.15617,178.01556c29.8046-27.81322,81.93326-8.07576,74.22492,34.772a40.27219,40.27219,0,0,1-1.76359,6.5914c-5.0703,13.89559-17.37866,22.07422-32.5602,24.16848a86.91206,86.91206,0,0,1-26.542-.69074c-8.61217-1.48435-16.97451-4.60737-25.73365-5.14379-.68339-.04409-1.36678-.07348-2.05752-.08083"/><path class="cls-6" d="M501.86985,195.18113c.2131-.44825.4262-.89649.654-1.33739a55.75669,55.75669,0,0,1,9.62624-13.8515c.64665-.676,1.308-1.33,1.97669-1.95464"/><path class="cls-6" d="M455.0246,254.24656h.00735c18.0988-6.31952,39.79091-9.8173,57.7207-1.10959,8.377,4.06359,15.53425,10.2141,23.28668,15.2991,32.56021,21.33205,49.4098-12.48471,49.4098-12.48471-6.25338,4.73228-12.933,10.06713-20.84706,11.456-16.77611,2.94665-27.4458-10.8681-39.47493-19.833a48.83205,48.83205,0,0,0-25.403-9.94221h-.00735"/><path class="cls-6" d="M514.12678,178.0376a.12709.12709,0,0,0,.02939-.022c1.19042-.69809,34.32379-19.79625,53.53953,9.60419"/><path class="cls-6" d="M508.43186,222.36974c.13962,0,28.79054-.022,28.79054-17.69464,0,0,.15432-13.41795-15.7253-14.21891"/><path class="cls-6" d="M330.9196,225.46337q-8.862,5.11439-17.702,10.27288c-.6393.37476-1.286.73483-1.93994,1.0655l-.00735.00735c-14.16012,7.42176-30.62761,6.78246-39.81295-8.77384-12.35245-20.92788,9.67033-59.45489,19.64928-78.28117a239.09574,239.09574,0,0,1,30.60557-44.76569"/><path class="cls-6" d="M343.53658,83.12729l.00735-.00735c.97-.8524,1.92525-1.66806,2.90992-2.48372,26.24069-21.86846,57.69865-36.77811,92.50008-39.07077,26.58606-1.76359,45.89732,13.293,55.45743,37.52764,3.96806,10.05978,5.9521,21.6921,4.21791,32.5749a43.992,43.992,0,0,1-2.54986,9.40579c-5.62877,14.14543-20.54577,20.2298-32.85413,27.33558-16.96717,9.79525-73.73994,42.86983-85.20324,49.52737-15.56365,9.38375-31.34774,18.42947-47.0951,27.51929"/><path class="cls-6" d="M498.63661,111.668l13.81476,10.16266a9.65057,9.65057,0,0,1,1.52844,14.17482c-5.77574,6.51057-15.66652,16.32052-30.87745,27.35763-4.409,3.20384-9.26617,6.51057-14.601,9.86873a335.02666,335.02666,0,0,1-47.00691,24.40362C397.01,208.092,367.12454,217.88729,330.92694,225.456l-.00734.00735"/><path class="cls-6" d="M343.54393,83.11994a69.48723,69.48723,0,0,1,18.42213,13.87354s-18.48091,11.28695-38.72541,8.25211c-.51438-.07348-1.02141-.16166-1.52844-.25719C302.276,101.3951,288.645,85.99311,288.645,85.99311s18.48091-11.28694,38.72541-8.25211A52.6661,52.6661,0,0,1,343.54393,83.11994Z"/><path class="cls-6" d="M468.50134,173.23183s6.49587,15.99719,2.93931,37.94649"/><path class="cls-7" d="M455.14161,337.13989a46.175,46.175,0,0,0-14.44663-3.78,50.16089,50.16089,0,0,0-14.8276.78719,49.50405,49.50405,0,0,0-18.71339,8.026,44.29857,44.29857,0,0,0-11.08571,11.20731"/><path class="cls-8" d="M551.34579,390.65992c3.64474,24.3081-7.42911,46.12512-24.72695,48.71906s-34.2797-15.01987-37.92444-39.33531a62.33993,62.33993,0,0,1-.69074-9.45723A44.29919,44.29919,0,0,1,499.658,379.96819a39.76467,39.76467,0,0,0-1.46965,18.65726c2.52781,16.95247,14.37322,29.21674,26.43909,27.41642,12.05117-1.80768,19.76686-17.01126,17.2317-33.96373a38.93682,38.93682,0,0,0-8.25211-19.17165,46.18608,46.18608,0,0,1,14.23361,4.52654A61.41562,61.41562,0,0,1,551.34579,390.65992Z"/><path d="M541.85916,392.07814c2.53516,16.95247-5.18053,32.156-17.2317,33.96373-12.06587,1.80032-23.91128-10.464-26.43909-27.41642a39.76467,39.76467,0,0,1,1.46965-18.65726,49.40467,49.40467,0,0,1,19.10552-7.03965,50.0045,50.0045,0,0,1,14.84351-.022A38.93682,38.93682,0,0,1,541.85916,392.07814Z"/><path class="cls-3" d="M547.84066,377.433a46.18608,46.18608,0,0,0-14.23361-4.52654,50.0045,50.0045,0,0,0-14.84351.022,49.40467,49.40467,0,0,0-19.10552,7.03965,44.29919,44.29919,0,0,0-11.65436,10.61825c.08083-20.27389,10.40516-37.00591,25.41768-39.26183C527.39041,349.23035,541.139,360.29685,547.84066,377.433Z"/><path class="cls-8" d="M472.01382,404.83475c3.64474,24.31544-7.42911,46.12512-24.72695,48.71906-17.30518,2.59394-34.2797-15.01988-37.92444-39.328a61.68873,61.68873,0,0,1-.69074-9.47927,44.57356,44.57356,0,0,1,11.647-10.60356,39.77594,39.77594,0,0,0-1.4623,18.65727c2.5278,16.95247,14.36587,29.22408,26.43174,27.41641,12.05852-1.80768,19.77421-17.01126,17.2317-33.95638a38.87121,38.87121,0,0,0-8.24476-19.17165,46.19506,46.19506,0,0,1,14.22626,4.51919h.00735A61.41555,61.41555,0,0,1,472.01382,404.83475Z"/><path class="cls-3" d="M468.50869,391.60785h-.00735a46.19506,46.19506,0,0,0-14.22626-4.51919,50.04837,50.04837,0,0,0-14.85086.0147A49.49284,49.49284,0,0,0,420.3187,394.143a44.57356,44.57356,0,0,0-11.647,10.60356c.08818-20.27389,10.40516-36.99122,25.41768-39.23979C448.05109,363.41252,461.80706,374.479,468.50869,391.60785Z"/><path d="M462.51984,406.26031c2.54251,16.94512-5.17318,32.1487-17.2317,33.95638-12.06587,1.80767-23.90394-10.46394-26.43174-27.41641a39.77594,39.77594,0,0,1,1.4623-18.65727,49.49284,49.49284,0,0,1,19.10552-7.03965,50.04837,50.04837,0,0,1,14.85086-.0147A38.87121,38.87121,0,0,1,462.51984,406.26031Z"/><path class="cls-6" d="M468.50869,391.60785a61.41555,61.41555,0,0,1,3.50513,13.2269c3.64474,24.31544-7.42911,46.12512-24.72695,48.71906-17.30518,2.59394-34.2797-15.01988-37.92444-39.328a61.68873,61.68873,0,0,1-.69074-9.47927c.08818-20.27389,10.40516-36.99122,25.41768-39.23979C448.05109,363.41252,461.80706,374.479,468.50869,391.60785Z"/><path class="cls-6" d="M547.84066,377.433a61.41562,61.41562,0,0,1,3.50513,13.22689c3.64474,24.3081-7.42911,46.12512-24.72695,48.71906s-34.2797-15.01987-37.92444-39.33531a62.33993,62.33993,0,0,1-.69074-9.45723c.08083-20.27389,10.40516-37.00591,25.41768-39.26183C527.39041,349.23035,541.139,360.29685,547.84066,377.433Z"/><path class="cls-6" d="M468.50134,391.60785a46.19506,46.19506,0,0,0-14.22626-4.51919,50.04837,50.04837,0,0,0-14.85086.0147A49.49284,49.49284,0,0,0,420.3187,394.143a44.57356,44.57356,0,0,0-11.647,10.60356c0,.00735,0,.00735-.00735.01469"/><path class="cls-6" d="M547.84066,377.433a46.18608,46.18608,0,0,0-14.23361-4.52654,50.0045,50.0045,0,0,0-14.84351.022,49.40467,49.40467,0,0,0-19.10552,7.03965,44.29919,44.29919,0,0,0-11.65436,10.61825"/><path d="M632.025,432.82457a51.95369,51.95369,0,0,1-5.07041,21.34144A50.86994,50.86994,0,0,1,614.423,470.58163a48.76823,48.76823,0,0,1-16.75878,9.50939,44.75209,44.75209,0,0,1-17.44575,2.084c-20.60167-1.6688-31.0045-22.7038-49.47232-29.38129a30.614,30.614,0,0,0-32.20071,7.59425,25.54982,25.54982,0,0,0-5.07906,7.62468,25.55737,25.55737,0,0,0-7.53658-5.20934,30.614,30.614,0,0,0-32.72863,4.83686c-14.695,13.02672-16.59236,36.41667-35.12069,45.57714a44.754,44.754,0,0,1-16.98214,4.50743A48.76452,48.76452,0,0,1,382.0126,515.078a50.87122,50.87122,0,0,1-17.70915-10.62586,51.95936,51.95936,0,0,1-12.59479-17.95933A86.47693,86.47693,0,0,0,353.5,501.711c6.73834,30.5089,39.91015,49.11913,71.50641,47.68311,26.8866-1.222,52.41184-15.447,66.387-37.56826a58.64,58.64,0,0,0,7.25509-16.74636,58.64,58.64,0,0,0,12.92767,12.88225c21.15788,15.39487,50.1323,19.18548,75.56891,10.38993,29.89223-10.33632,53.84371-39.88316,48.83637-70.72347A86.44227,86.44227,0,0,0,632.025,432.82457Z"/><ellipse class="cls-9" cx="488.98211" cy="448.65078" rx="23.56395" ry="36.48046" transform="translate(-75.00698 98.92613) rotate(-10.73431)"/><path class="cls-6" d="M484.56909,554.38142s15.974-18.54055,46.95717-9.44049"/><line class="cls-6" x1="480.31962" y1="547.21652" x2="486.09373" y2="561.47119"/><line class="cls-6" x1="532.63777" y1="537.46226" x2="531.65906" y2="551.78782"/><path class="cls-7" d="M544.2457,356.80773a46.17509,46.17509,0,0,0-14.13059-4.82911,50.16087,50.16087,0,0,0-14.84541-.3021,49.50407,49.50407,0,0,0-19.2515,6.63236,44.2983,44.2983,0,0,0-11.87759,10.36433"/><path d="M282.73782,424.4875c3.86071,0,3.86711-6,0-6-3.86071,0-3.86711,6,0,6Z"/><path d="M294.2205,406.62556c3.86071,0,3.8671-6,0-6-3.86072,0-3.86711,6,0,6Z"/><path d="M316.59609,427.61908c3.86071,0,3.86711-6,0-6-3.86072,0-3.86711,6,0,6Z"/><path d="M331.9577,267.67754c3.86072,0,3.86711-6,0-6-3.86071,0-3.8671,6,0,6Z"/><path d="M343.70482,285.75c3.86072,0,3.86711-6,0-6-3.86071,0-3.86711,6,0,6Z"/><path d="M368.10268,249.60505c3.86072,0,3.86711-6,0-6-3.86071,0-3.8671,6,0,6Z"/><path d="M378.04255,272.19566c3.86072,0,3.86711-6,0-6-3.86071,0-3.8671,6,0,6Z"/><path d="M380.75343,306.53339c3.86071,0,3.86711-6,0-6-3.86072,0-3.86711,6,0,6Z"/><path d="M408.76579,280.32828c3.86071,0,3.86711-6,0-6-3.86072,0-3.86711,6,0,6Z"/><path d="M338.28308,321.895c3.86071,0,3.8671-6,0-6-3.86072,0-3.86711,6,0,6Z"/><path d="M315.69246,289.36453c3.86072,0,3.86711-6,0-6-3.86071,0-3.86711,6,0,6Z"/><path d="M594.91244,414.06471c3.86071,0,3.8671-6,0-6-3.86072,0-3.86711,6,0,6Z"/><path d="M601.23781,393.28135c3.86071,0,3.86711-6,0-6-3.86072,0-3.86711,6,0,6Z"/><path d="M631.961,405.02847c3.86071,0,3.86711-6,0-6-3.86071,0-3.86711,6,0,6Z"/><path d="M220.81189,615.573c3.86071,0,3.86711-6,0-6-3.86071,0-3.86711,6,0,6Z"/><path d="M200.93215,649.91071c3.86071,0,3.86711-6,0-6-3.86071,0-3.86711,6,0,6Z"/><path d="M250.6315,668.88682c3.86071,0,3.86711-6,0-6-3.86072,0-3.86711,6,0,6Z"/><path d="M266.89674,612.8621c3.86071,0,3.86711-6,0-6-3.86071,0-3.86711,6,0,6Z"/><path d="M238.88438,636.35634c3.86071,0,3.86711-6,0-6-3.86071,0-3.86711,6,0,6Z"/><path d="M211.77564,693.28468c3.86072,0,3.86711-6,0-6-3.86071,0-3.8671,6,0,6Z"/><path d="M294.9091,726.71879c3.86071,0,3.86711-6,0-6-3.86071,0-3.86711,6,0,6Z"/><path d="M236.17351,557.741c3.86071,0,3.8671-6,0-6-3.86072,0-3.86711,6,0,6Z"/><path d="M658.16615,765.57465c3.86072,0,3.86711-6,0-6-3.86071,0-3.86711,6,0,6Z"/><path d="M654.55165,741.17678c3.86072,0,3.86711-6,0-6-3.86071,0-3.8671,6,0,6Z"/><path d="M715.0945,685.15206c3.86071,0,3.8671-6,0-6-3.86072,0-3.86711,6,0,6Z"/><path d="M711.48,734.85141c3.86071,0,3.86711-6,0-6-3.86072,0-3.86711,6,0,6Z"/><path d="M648.22628,653.52521c3.86072,0,3.86711-6,0-6-3.86071,0-3.86711,6,0,6Z"/><path d="M580.45444,779.129c3.86072,0,3.86711-6,0-6-3.86071,0-3.8671,6,0,6Z"/><path d="M643.70816,830.63561c3.86071,0,3.86711-6,0-6-3.86071,0-3.86711,6,0,6Z"/></svg>