<svg xmlns="http://www.w3.org/2000/svg" viewBox="0 0 950 950"><defs><style>.cls-1{fill:#d67caf;}.cls-2{fill:#9b9b9b;}.cls-3{fill:#26262d;}.cls-4{fill:#fff;}.cls-5{fill:#e5b6a8;}.cls-6{fill:none;stroke:#000;stroke-linecap:round;stroke-linejoin:round;stroke-width:5px;}</style></defs><title>francis_galton</title><g id="galton"><circle class="cls-1" cx="475" cy="475" r="359.12"/><path class="cls-2" d="M554.57,111.44s7.35,49.21,36.61,68.37l2.92,6-5.05,10.86L594,212.1l-9.42,11.58s9.88,56.75-20.36,84.9c0,0-23,22.62-17.48,123.57,0,0,69.7.57,93.1-82.46,0,0,9.78-30,3.64-41.1l-6.64,18.82a37.1,37.1,0,0,1-23.23,17l-2.74-40.2s2.52-22.4,16.81-31.83L640,255.92l4.73,22.76s30-33.48,8.41-94.89S582.15,104.06,554.57,111.44Z"/><path class="cls-2" d="M348,324.29s-18.37,60.93,25.64,118.38l4.68-14.88L367.09,410.6l-9.93-50.81Z"/><path class="cls-2" d="M347.38,263.18a.15.15,0,0,1,0,.07c.2,11.83-2.35,22.62-2.85,34.82l-9.35-7.72-.08-.11-8.62-16.72a209.77,209.77,0,0,0-4.28-24.6,0,0,0,0,0,0,0,.07.07,0,0,0,0,0c-4.54-19-10.11-29-10.62-29.92l0-.06c5.08-5,14.32-8.67,22.8-11.13h0c4.66-1.34,9.1-2.33,12.47-3a243.11,243.11,0,0,0-.43,45.46l6.72-16.49-6.5,19.06-.28.82v0l1,9.54h0S347.39,263.17,347.38,263.18Z"/><path class="cls-2" d="M353.12,203.63V233.7s-2.09-12.22-.82-29.94l.63-.11Z"/><path class="cls-3" d="M389.61,452.47l-4.79,24.31-7.46,7.2L323.71,594,295,662.36c-9.39,22.86-18.27,46-26.86,69.13-7.14,19.26-12,39.28-19,58.59-7.51,20.75-16.18,43.9-42.94,40.44-26.28-3.39-50.18-25.88-66-45.67-16.37-20.51-28.78-45.18-32.94-71.24a98.62,98.62,0,0,1,30.3-86.94q1-.91,2-1.78s10.23-13.35,16.08-40.53,47.94-37.07,47.94-37.07l80.28-22.6A52.64,52.64,0,0,1,310.08,507c17.59-5.39,50.55-34.91,50.55-34.91S380.54,453.49,389.61,452.47Z"/><path class="cls-3" d="M602.17,445.83s68,64.9,83.5,101.37c0,0,84.29,23.6,125.07,66.31,0,0,16.24,36.85,38.75,47.09l.12.12c63,63-277,196.35-330.54,171.43C505.88,826,502,815.82,505.62,801.62c16.48-64.21,46.16-173.14,66.3-208.22L592.16,537s15.24-47.4,4.87-63.14C597,473.83,603,463.2,602.17,445.83Z"/><path class="cls-2" d="M597,473.83s8.72,43.65-9.95,72.93c-14,21.88-55.14,145.49-78.2,232.8A117.69,117.69,0,0,1,417.34,865h0A351.55,351.55,0,0,1,231,850.33h0s63.91-224.7,153.83-379.47c0,0-49.82,162,11.08,204.06,0,0,104.29-117.05,118.73-125.76l6.83,4.6Z"/><path class="cls-3" d="M399.68,520.09l44.62-18.3,32.81,22.1s-3.44,20.17-37.77,29.95c0,0,19.93,24.94,14.68,55.25L395.9,674.92s-30.59-22.58-28.72-87.3l44.66-40.34Z"/><path class="cls-4" d="M597,416C545.8,481.55,444.3,501.8,444.3,501.8l32.81,22.1c-2.1,8-10,20.91-37.77,29.95,0,0,17.29,23.38,14.68,55.25l60.61-59.93,6.83,4.6L597,473.83C606.23,441.2,597,416,597,416Z"/><path class="cls-4" d="M410.55,459.63s8.15,32.1,33.76,42.16l-44.62,18.3,12.15,27.19-44.66,40.34s3-68.75,15.87-103.65l9.38-38.14Z"/><path class="cls-5" d="M640,255.92s23.21,68.88-26.46,86.87L611.91,319l.86-21.34,5-13.24L624,276S634.71,270.13,640,255.92Z"/><path class="cls-5" d="M597,416c-46.38,66.48-154.12,84.84-154.12,84.84l-.16-.07-.45-.22-.65-.31a55.1,55.1,0,0,1-14.95-10.89.14.14,0,0,1-.06-.06,63.34,63.34,0,0,1-16.09-29.65,109.11,109.11,0,0,1-14.43-11,104.58,104.58,0,0,1-17.8-20.86l-.53-.82a107,107,0,0,1-14.49-35.83.09.09,0,0,1,0,0l-.29-1.48a.15.15,0,0,1,0-.07,2.67,2.67,0,0,1-.06-.3,61.67,61.67,0,0,1-.93-7s-1.69-12.9-4.79-27.31a2.23,2.23,0,0,0-.06-.3c-2.12-9.8-4.89-20.24-8.21-27.84-.34-.77-.64-1.58-.93-2.41a0,0,0,0,0,0,0c-.33-1-.63-2-.89-3.1-1.6-6.51-2-14.48-1.79-22.28v-.21a220.53,220.53,0,0,1,2.87-28.29s0,0,0,0c.43-2.67.75-4.23.75-4.23l-1.93-9.4-.65-3.15v0l-.45-2.16.51-1.23-.85-20L346.88,201c2.36-33.14,21.83-82.67,83-110.42a54.87,54.87,0,0,1,7.44-3.17c69.52-19.58,118.55,1.17,138.13,16.19a86.71,86.71,0,0,1,9.13,7.88h-30c.83,25.8,26.31,60.06,26.31,60.06L594,184.06,589,196.61,594,212.1l-9.41,11.59c9.12,58.78-17.38,80.51-17.38,80.51-28.69,38.27-20.47,127.95-20.47,127.95C573.27,432.16,596.3,416.5,597,416Z"/><path class="cls-6" d="M429.87,348.75l0,0a18.11,18.11,0,0,1-22.75-4c-8.75-10.61-2.66-25.57,1.08-32.61a73.58,73.58,0,0,0,7.41-20.29A103.87,103.87,0,0,0,417,281.53c3.09-33.17-37-52.86-60.89-29.6"/><path class="cls-6" d="M428.28,338.34c3-2.72,10.36-7.76,21.38-3.44a11.35,11.35,0,0,0,9-.32h0a11.37,11.37,0,0,0,6-13.38"/><path class="cls-6" d="M487,386.38l-22.35-1.63a53.88,53.88,0,0,0-21.4,2.77h0A53.88,53.88,0,0,1,413,388.91l-3.26-.8a9.94,9.94,0,0,0-10.87,4.53h0"/><path class="cls-6" d="M415.23,401.68s14.9,6.54,32.58-2.73"/><path class="cls-6" d="M461.07,259.45s19.49-27,60.95-2.16"/><circle cx="500.51" cy="257.27" r="11.45"/><circle cx="398.83" cy="266.16" r="11.45"/><path class="cls-6" d="M415.23,266.16s-30.42-27.76-55.56-.79"/><path class="cls-6" d="M529.47,242.1c-48.9-18-71.55-2.53-78.87,4.7a7,7,0,0,1-7.23,1.65l-.11,0a6.9,6.9,0,0,1-4.59-6.5v-3.77"/><path class="cls-6" d="M546.72,432.15c-34.84,39.89-91.57,38.72-91.57,38.72-17.94.18-32.64-4.35-44.61-11.23a90.05,90.05,0,0,1-18.12-13.79h0a108,108,0,0,1-14.11-17.14,2,2,0,0,1-.19-.29c-1.06-1.58-2.05-3.15-3-4.68s-2-3.39-2.83-5.13a93.12,93.12,0,0,1-7.83-21.35c-.6-2.52-1.11-5.07-1.5-7.64a.15.15,0,0,1,0-.07c-.21-1.24-.37-2.48-.52-3.74a282.5,282.5,0,0,0-5.26-30.92,2.22,2.22,0,0,0-.06-.3,145.23,145.23,0,0,0-6.24-20.43c-.4-1-.78-2-1.13-3-.77-2.09-1.44-4.11-2-6.08-.29-1-.57-2-.81-3a81.56,81.56,0,0,1-2.41-23.61c0-.14,0-.29,0-.42.49-12.21,3.05-23,2.85-34.82a.15.15,0,0,0,0-.07s0,0,0,0h0c0-1.93-.13-3.88-.34-5.87,0-.17,0-.35,0-.52-.14-1.34-.27-2.67-.37-4q-.13-1.28-.22-2.57a243.12,243.12,0,0,1,.43-45.46l0-.31c7.25-65.11,43.64-102,90.43-117l.49-.17c67.43-21.4,116.44,2.32,137.64,16.36a95.55,95.55,0,0,1,11.64,8.83"/><path class="cls-6" d="M344.54,298.5a35.45,35.45,0,0,1-9.34-8.14l-.08-.11a47.69,47.69,0,0,1-8.62-16.72,59.41,59.41,0,0,1-1.71-7.38c-1-5.72-1.66-11.52-2.57-17.21a0,0,0,0,0,0,0,.07.07,0,0,0,0,0c-1.7-10.74-4.16-21.1-10.62-29.92l0-.06a137.14,137.14,0,0,1,22.8-11.13h0a74.22,74.22,0,0,1,12.51-3.32"/><path class="cls-6" d="M378.31,428.7,373.82,443l-.19-.28c-25.43-38.14-34-75.44-26.68-120.55,0,0,0,0,0,0"/><path class="cls-6" d="M640,255.92a100.59,100.59,0,0,1,4.74,22.77,104.55,104.55,0,0,1-.22,22.27c-2.44,19.91-11.46,37.75-31,41.84"/><path class="cls-6" d="M611.68,368a104.51,104.51,0,0,0,1.85-25.19h0l-1.62-34.2a45.45,45.45,0,0,1,15.74-36.21A53.37,53.37,0,0,0,640,255.91a80.7,80.7,0,0,0,7.79-28.53"/><line class="cls-6" x1="636.82" y1="261.55" x2="636.82" y2="261.54"/><path class="cls-6" d="M644.51,300.95c4.75,50.83-22.83,112.52-75,127.91a80.52,80.52,0,0,1-22.79,3.29c-2.06-26.53-.34-55,2-77.36,2.19-20.83,10.5-40.41,23.07-57.17,14-18.68,15.88-43.28,12.45-65.58-.63-4.1-.51-8.71,2.21-11.85,3.17-3.66,8.4-4.84,7.58-10.65-.65-4.65-5.23-8-5-12.94.33-7,9-9,3-15.9-3.59-4.14-8.89-6.47-12.45-10.58a89.9,89.9,0,0,1-11.87-17.89,141.86,141.86,0,0,1-13.13-40.81s24.91-7.18,53.93,12c40.69,27,66.83,96.47,44.88,141.59a64.67,64.67,0,0,1-8.66,13.61"/><path class="cls-6" d="M629.73,270.42S639.37,297.68,624,319"/><path class="cls-6" d="M585.8,251.5s21.46,6.93,29.83,37.23"/><path class="cls-6" d="M584.57,266.16s20.22,9.85,27.35,42.43"/><path class="cls-6" d="M567.18,304.2s36.75,15,28.7,80.41"/><path class="cls-6" d="M591.18,216.4S620.07,239.49,624,276"/><path class="cls-6" d="M569.93,110.12A124.67,124.67,0,0,0,580,140.4a75.35,75.35,0,0,0,28.13,30.71c6.46,4,15,12.18,15.87,27.31"/><path class="cls-6" d="M598.24,414.19s6.82,36.56-1.21,59.64l-75.58,79.93-78.56-52.91S556.81,478.13,598.24,414.19Z"/><path class="cls-6" d="M410.55,459.63c8.14,30.73,32.35,41.21,32.35,41.21L382.7,527.65s-4.77-52.42,9.72-81.82"/><line class="cls-6" x1="366.6" y1="715.74" x2="294.98" y2="662.36"/><path class="cls-6" d="M382.8,486.74s-42.7,138.07,13.1,188.18"/><path class="cls-6" d="M597,473.83h0a104.82,104.82,0,0,1-4.89,60l-49,125.43L487,669.62l-6.49,37.12L360.64,725.47c48.13-81.82,154.85-175.73,154.85-175.73"/><path class="cls-6" d="M322.14,850.33c16.65-80.87,38.5-124.86,38.5-124.86"/><path class="cls-6" d="M493.47,850.33c21-99.42,49.64-191.09,49.64-191.09"/><path class="cls-6" d="M624.38,850.33c16.72-41,26.07-76.23,33.47-105.79a77.63,77.63,0,0,0-20.08-73.44L626,659.25l25.09-17.88a90.84,90.84,0,0,0,38-68.45c0-.3,0-.61,0-.9a64,64,0,0,0-12.39-41.51c-23.66-32.05-67-76.87-75.87-85.92"/><path class="cls-6" d="M685.67,547.2s48.88,11,107.72,50a73.35,73.35,0,0,1,23.69,26c5.44,10,14.44,23.3,27.45,33.22a73.5,73.5,0,0,1,24.4,33.12"/><path class="cls-6" d="M781.52,623.52a484.83,484.83,0,0,0-37.35,94.72,384.42,384.42,0,0,0-13.47,80.34"/><path class="cls-6" d="M744.17,718.23S783,701.8,800,654.24"/><path class="cls-6" d="M820.64,676.38s-38.2,29.19-39.12,98"/><path class="cls-6" d="M231,850.33c49.77-194.21,153.83-379.47,153.83-379.47"/><path class="cls-6" d="M81.07,725.08c15.63-51.11,39.05-80.34,53.44-94.49a57.84,57.84,0,0,0,10.68-14.49,63.1,63.1,0,0,0,6.09-17.62c3.11-16.46,12.2-30.72,25.13-38.72,12.45-7.72,27.31-13,40.38-16.5,16.13-4.33,51.41-12.5,67.08-18.58h0"/><path class="cls-6" d="M179.44,791.45a506.41,506.41,0,0,1,12.41-75.71c2.49-10.43,5.15-20.31,7.83-29.5,1.33-4.56,2.67-9,4-13.15,10.22-32.53,31.22-59.14,58.48-74l10.67-5.82-2.63-20.83c-2.26-17.91,3.11-35.41,13.69-47.74h0a50,50,0,0,1,16-12.51l.35-.17,2.85-1.4c23.52-11.59,45.34-27.13,65.37-45.41,11.5-10.48,21.19-12.71,21.19-12.71"/><path class="cls-6" d="M191.85,715.74s-37.12-27.31-44.28-76"/><path class="cls-6" d="M199.68,686.24s-24-11.89-34.37-56"/><path class="cls-6" d="M477.7,524.75c-8.45,19.08-38.35,29.09-38.35,29.09l-27.5-6.56-12.15-27.19"/><line class="cls-6" x1="411.84" y1="547.28" x2="367.17" y2="587.62"/><path class="cls-6" d="M439.34,553.84s18.79,23.38,13.85,55.59"/></g></svg>