<svg xmlns="http://www.w3.org/2000/svg" viewBox="0 0 950 950"><defs><style>.cls-1{fill:#ffc440;}.cls-2{fill:#2c234c;}.cls-3{fill:#514340;}.cls-4{fill:#e5b6a8;}.cls-5{fill:none;stroke:#000;stroke-linecap:round;stroke-miterlimit:10;stroke-width:5px;}</style></defs><title>shark_cox</title><g id="cox"><circle class="cls-1" cx="475" cy="475" r="359.12"/><path class="cls-2" d="M212.91,868.47l-.39,0c-19.75,1.39-38.74-15.09-28-36.35l.3-.59c10.06-19.95,24.39-73.4,24.39-73.4l27.81-80c-7.79-40.37,16.85-63.68,16.85-63.68C241,506.56,288.68,494.29,288.68,494.29l11.6-1.28L399,456.83s18.89,27.71,18.71,63.27,26.22,34.28,26.22,34.28,48.92,6,105.29-77.38l35-50.45s2.73-15.13-10.56-22.56l-6.41-9s69.87,29.7,88.54,27.74l.58-.06c65.53-7,123,44,123.68,109.86.83,78.63-8.48,195.73-58.67,300a83.67,83.67,0,0,1-7.59,12.75,82.26,82.26,0,0,1-50.65,32.47,317.16,317.16,0,0,1-80.29,5.5c-30.44-1.79-63.68-8.35-94.08-5-33.52,3.75-61.17,6.83-95.06.17-31.85-6.26-63.3-15.53-95.71-17.34C268.79,859.41,241.57,866.41,212.91,868.47Z"/><path class="cls-3" d="M582.7,315.7s20.41,1.81,28.31-33.24l9.56-14.51s2.34-8.05-7-15.08a47.92,47.92,0,0,1-5-23.3c.61-13.3-16-118-81-129.38,0,0-18.36.09-28.47-11.81s-41.22-20.83-55.26-18.87-70.52-28.14-143.61,40.42c0,0-57.14,47.44-28.29,78.38,0,0-6.66,33.95-17.53,54.19,0,0-12.35,46,27.27,78.44,0,0,35.08,23.43,44.07,36.4,0,0-11.7-37.72-9.78-69.59L300.83,238s-8.88-64.08,58-67.26c0,0,18.19,2,27.45-7s86.52-43.81,114.75,3c0,0,22,94.8,45.88,117.58,0,0,25.62-11.33,38.8-6.57Z"/><path class="cls-4" d="M584.53,277.79s7,64.55-28.4,70.69c0,0-2.93,42.6,23.46,60.48S498.79,533.3,498.79,533.3s-63,47.41-78.53,0l-4.91-34.38s-6.81-44.29-34-63.06-60.56-45.66-66.78-150.44l-6-21.93s-34.2-77.2,43.53-92.76c0,0,23.85,5.67,45.49-13.7s94.11-19.63,102.91,9,24.78,100.59,48.62,119.42C549.17,285.42,566.22,273.07,584.53,277.79Z"/><path class="cls-5" d="M396.26,282.46s1.35,26.13-9.32,42.77,7.25,25.17,7.25,25.17"/><path class="cls-5" d="M396.77,335.46a12.51,12.51,0,0,0,4.15,6,10.83,10.83,0,0,0,14.8-1.43c2.77-3.19,7.69-6.44,14.94-2.85a8.79,8.79,0,0,0,12-4.09c1.37-3.17,1.82-7.74-.14-14.28"/><path class="cls-5" d="M384.89,388.72c3.82-2.09,14.13-7.61,21.92-10.83a9.64,9.64,0,0,1,7.83.22h0a9.68,9.68,0,0,0,10.44-1.37h0a19.3,19.3,0,0,1,9.37-4.36,164.61,164.61,0,0,1,31.4-2"/><path class="cls-5" d="M435.64,271.62s18.58-31.09,54.52-7.27"/><path class="cls-5" d="M386,285.35s-31.5-31.5-53.3,11.31"/><circle cx="467.33" cy="263.49" r="8.09"/><circle cx="364.31" cy="282.27" r="8.09"/><path class="cls-5" d="M584.53,277.79s8.3,72-35.36,71.26"/><path class="cls-5" d="M505,107.3C494.93,119,488.14,136.44,484,150"/><path class="cls-5" d="M553.51,321.77v0a144.6,144.6,0,0,1-23,69.87c-40,61-96.62,58.16-96.62,58.16-100.63-2.9-116-110.85-118.08-153.46a102.75,102.75,0,0,0-6.49-31.11,206,206,0,0,1-7.45-25c-8.52-36.17,19.46-71.06,56.58-69.62.93,0,1.87.09,2.82.16a38.42,38.42,0,0,0,25-6.86c14.28-10.14,42.65-24.41,83.85-18.48a42.15,42.15,0,0,1,35,32.06c7.33,31.28,21.67,83.67,39.77,105.28a6.32,6.32,0,0,0,11-2.72c7.36-33.43,9.6-61.26,8.7-84.3"/><path class="cls-5" d="M490.16,154s11-33.07,39.73-44.11"/><path class="cls-5" d="M495.23,158.76s20.06-35.8,52.23-34.12"/><path class="cls-5" d="M500.55,166s21.14-1.15,42.95,14.82"/><path class="cls-5" d="M507.76,188.36a57.32,57.32,0,0,1,39.7,14.84"/><path class="cls-5" d="M512.31,205.6s19,5.8,35.15,32.39"/><path class="cls-5" d="M497.93,162s17.76-14.93,42.49-3.26"/><path class="cls-5" d="M492.41,127.68s-12.17-25.3-36.32-27.44C428.48,97.79,335.6,101.72,311.93,166"/><path class="cls-5" d="M367.59,170.73A33.54,33.54,0,0,1,343.91,157a16.74,16.74,0,0,0-18.1-6.84,18.69,18.69,0,0,0-9.8,6.62"/><path class="cls-5" d="M386.25,163.92s-21,2-30-19.12c0,0-7.54-15.35-19.09-13.84"/><path class="cls-5" d="M397.64,157s-13.57-3.43-20-16.68"/><path class="cls-5" d="M416.9,149s-22.4,1.1-26.74-20.37"/><path class="cls-5" d="M591.63,205.6a195,195,0,0,1,4.63,62,11.2,11.2,0,0,1-13.59,9.95c-14.22-3.15-30.12,6.82-30.12,6.82"/><path class="cls-5" d="M558.4,267.95s13-9.17,29-7.36"/><path class="cls-5" d="M561,252.86s9.29-10.37,24.18-10.37"/><path class="cls-5" d="M305.58,203.2S283.48,205,271,186.52c-9-13.26-8.29-30.83,1-43.87,20.9-29.3,76.1-91.84,157.43-75.53A168.27,168.27,0,0,0,454,70.4c10.81.54,28.82,4.11,46.93,19.49a40.29,40.29,0,0,0,21,9.38c71.24,8.9,84.34,106.42,87.79,140.42a31.66,31.66,0,0,0,8.09,18.13h0a10.38,10.38,0,0,1,.64,13.2l-3.76,5a34.43,34.43,0,0,0-5.85,12.62c-6.55,27.43-26.08,27-26.08,27"/><path class="cls-5" d="M272,142.66s.16,48.61,41.52,48.05"/><path class="cls-5" d="M286.28,124.58s-1.83,26.23,14,34.17"/><path class="cls-5" d="M300.27,109.93S298,138,311.93,144"/><path class="cls-5" d="M271,186.52h0a110.12,110.12,0,0,1-11.35,41.31c-4.51,9.13-8.47,22.63-6.18,40,3.56,26.92,19.91,50.28,43.28,64.11,9.1,5.39,19.93,14.2,30,28.55"/><path class="cls-5" d="M265.16,301s13.76,13.14,30.21,16A47.11,47.11,0,0,1,318,327.25l1.14,1"/><path class="cls-5" d="M316.7,309.28a36.41,36.41,0,0,0-14.19-7.49,95.13,95.13,0,0,1-24.67-9.94l-2.52-1.49"/><path class="cls-5" d="M300.83,235s-25.52-.38-36.22-18.81"/><path class="cls-5" d="M300.83,219.24a42,42,0,0,1-32.94-13.64"/><path class="cls-5" d="M255.63,238s10.92,22.87,36.53,22.37"/><path class="cls-5" d="M253,263.81c1.78,2.19,13.11,14.93,35.12,12.78"/><path class="cls-5" d="M393.49,105.24s-26.75-2.57-21.09-37.05"/><path class="cls-5" d="M415.05,101.48s-22.9-5.42-18.29-26.21"/><path class="cls-5" d="M570.21,277.79s9.92,20-4.29,49.48"/><path class="cls-5" d="M559.76,281.74s8,9.46,0,20.78"/><path class="cls-5" d="M377.67,433.61s11.86,7.12,23.89,27.42a113.87,113.87,0,0,1,15.33,51.18c1.16,18.88,7.46,48.1,35.88,41.74,37.39-8.36,58.38-19.43,127.89-121.42A19.4,19.4,0,0,0,579.6,409a18.76,18.76,0,0,0-1.63-1.66c-9.35-8.41-16.31-19.13-19.2-31.37-2.18-9.2-3.65-19.26-2.63-27.44"/><path class="cls-5" d="M399,456.83s-66.64,22.73-93.8,34.6a26.72,26.72,0,0,1-10.71,2.22h0A26.66,26.66,0,0,0,271.86,506c-14.12,22.45-36.8,74-6.7,143.16"/><path class="cls-5" d="M255.88,542s-.53,40.6,10.23,70.15c5.62,15.44,10.27,31.26,12.78,47.5q.14.88.3,1.76A176.68,176.68,0,0,1,282.11,702a138.44,138.44,0,0,0,1.33,28.19,340.19,340.19,0,0,1,4.11,56.49c-.22,19.5,1.33,44.58,8.45,66.92"/><path class="cls-5" d="M252.93,609.85s-13.13,23.07-17.24,48A35.44,35.44,0,0,0,249,691.93a32.09,32.09,0,0,0,12.83,5.86"/><path class="cls-5" d="M237,675.08s-9.68,41.2-22.23,68.75a135.26,135.26,0,0,0-9.12,27.32c-3.67,16.89-11.2,44.64-24.51,66.92A78.35,78.35,0,0,0,170,878.22h0"/><path class="cls-5" d="M406.67,470.78s-33.45,5.34-82,26.7"/><path class="cls-5" d="M567.17,394.94S620.63,419.7,660,422"/><path class="cls-5" d="M584.14,419.7s27,11.33,65.37,4.06a177.24,177.24,0,0,1,24.88-3c25.11-1.15,72-.05,99.5,20.79"/><path class="cls-5" d="M689.56,515.43s2.63,33.26-6.67,61a205.56,205.56,0,0,0-11.1,70.53c1.29,51.06,9.77,131,46,192.58"/><path class="cls-5" d="M480.91,544.76S561.53,739,613.58,787.3s81.18,84.07,81.18,84.07"/><path class="cls-5" d="M573.57,442.85S625.36,551.17,673,620.65"/><path class="cls-5" d="M679,589.15s-71.51,120-195.2,242.15a223.38,223.38,0,0,0-23.72,27.46c-5.56,7.64-10.51,15.54-10.51,19.46"/><path class="cls-5" d="M697.52,796.24S683.09,830,666.31,839.52c0,0-40.12,29.33-43,46"/><path class="cls-5" d="M282.11,702s6,22.33,15.65,38.52a163.61,163.61,0,0,1,17.81,42c4.48,17,15.24,40.44,40.51,65.42a82,82,0,0,1,21.59,37.63h0"/><path class="cls-5" d="M338,867.16s17.9-63.62,82.55-129.27q19-19.31,36.68-39.87c41.51-48.44,124.7-150.27,166-233.93,0,0,15.39-30.62,36.73-42"/><path class="cls-5" d="M279.19,661.37s48-81.51,64.31-129.62S372.4,479.5,372.4,479.5"/><path class="cls-5" d="M338,491.82s24.1,60.56,37.31,110.38a371.4,371.4,0,0,0,34.11,85.1C422.08,710.05,436,738.52,442.95,764,457.43,817.07,499,878.22,499,878.22"/><path class="cls-5" d="M286.66,758.16s33.9-83.23,114.08-148.32c19.6-15.91,38.13-35.72,55-56.57"/><path class="cls-5" d="M414.65,394.94a56.32,56.32,0,0,0,27.94-7.06"/><path class="cls-5" d="M388.11,268.69s10.85-13.3,32.15-6"/><path class="cls-5" d="M491.48,246.65c-31-12.46-54-2.74-66.4,5.7a20.81,20.81,0,0,0-8.8,20.2h0a21,21,0,0,0,3.47,8.89c5.92,8.61,20.87,26.12,43.35,23.59a40.13,40.13,0,0,0,29.56-19.12,61.43,61.43,0,0,0,8.16-23A15.16,15.16,0,0,0,491.48,246.65Z"/><path class="cls-5" d="M324.84,272c20.52-19.27,43-15.48,56.13-10.54,9.09,3.42,15.31,12.58,15.29,23A63.9,63.9,0,0,1,394.42,299c-4.47,18.92-35.65,41.61-69.42,10.69C314.25,299.83,314.21,282,324.84,272Z"/><line class="cls-5" x1="498.79" y1="252.86" x2="529.89" y2="256.79"/></g></svg>