<svg xmlns="http://www.w3.org/2000/svg" viewBox="0 0 950 950"><defs><style>.cls-1{fill:#d34444;}.cls-2{fill:#3a3635;}.cls-3{fill:#26262d;}.cls-4{fill:#fff;}.cls-5{fill:#35358e;}.cls-6{fill:#e5b6a8;}.cls-7,.cls-8{fill:none;stroke:#000;stroke-linecap:round;stroke-width:5px;}.cls-7{stroke-miterlimit:10;}.cls-8{stroke-linejoin:round;}</style></defs><title>john_tukey</title><g id="tukey"><circle class="cls-1" cx="475" cy="475" r="359.12"/><path class="cls-2" d="M278.32,143.38s66.56,6.09,82.93,62.16,10.38,83,82.89,125c0,0,1-44.72,29.52-49.52s4.12-.13,4.12-.13l9.73,3,9.32,11.87S504,99.71,353.41,78.63l-13.86,4.43s-103-20.63-175.79,33.67-64,152.48-64,152.48,1.79,69.28,22.64,99.43l-3.94-27.06-7.84-52.23,1.15-44.27,10-30,6.93-16.55,14.24.79S227.75,192.19,278.32,143.38Z"/><path class="cls-3" d="M492.69,459.13l17.1,34S493,606.8,441.73,652.89L391.51,760.36l-38.1,101.09c97.52-8.87,195.78-24.55,289.62-52.62,45.47-13.6,97.46-29.81,126.82-69.75,27.22-37,31.1-87.81,0-123.88-13.59-15.78-32.33-26.09-52.49-30.82q-2.2-.52-4.45-1l-24.51-12.94-31.15-17.35L625,541.25,576.24,531l-16.35-3.27-26.3-27.29-20.45-34.84S506,449.91,492.07,448.9Z"/><path class="cls-3" d="M245.48,727.43c-14.53,28.35-24.49,93.1-28,118.72-4.17,30.45-66.7,32.46-71.74,10.73l0-.18a83.45,83.45,0,0,0-.17-35.49.09.09,0,0,0,0-.07,99,99,0,0,1-4.3-30.06c0-.48,0-.94,0-1.41a119.22,119.22,0,0,1,6.24-36.26l1-9.27L151.38,718,151,694.39l-.22-14.08q-1.69-4.67-3.11-9.2a193,193,0,0,1-5.9-23.78c-12-66.59,20.11-104.07,21.82-106l.07-.07,34.59,46.61,25.83,19.85,22.44,21.58C231.72,679.69,245.48,727.43,245.48,727.43Z"/><path class="cls-4" d="M492.69,459.13l17.1,34s-14.56,111.82-68.06,159.79c0,0-49.68,99.3-75,166A62.44,62.44,0,0,1,338,851.68c-22.46,11.78-62.58,8.61-61.34-24.59a305.5,305.5,0,0,0-3.38-55.85l5.13-23.35a56.69,56.69,0,0,0,9.65-32.6l16.15-35.19s-3.36-23.15,7.17-29.21c0,0,52.44-3.48,86.6-58.41l26.79-24.79,23.79-26.43,26.14-39.53Z"/><path class="cls-4" d="M246.53,629.3s-17,58.18,0,96.12l13.13-28.34,1.64-32.51,14-25.87S255.41,636.86,246.53,629.3Z"/><path class="cls-5" d="M305.39,650.88s-3.79,19.8-1.22,29.21L288,715.28s2,16-7,27.84-6,39-6,39c1.9,17.3,7.79,36,3,53.35-3.46,12.48-14.53,19-26.49,21.65-3.27.74-35.84,3.82-35.47-.29,1.61-17.62,7.73-54,12.12-72.49,7.14-30.08,16.76-60,31.43-87.3,0,0-6.85-44.58,20.44-58.18Z"/><path class="cls-6" d="M278.32,143.38s-46.61,56.29-150.61,56.38c0,0-29.8,41.09-11.11,135.81l8.24,47s2.07,159,91.2,217.7l12.42,10.89s21.73,32.08,51.64,27.72l25.29,12S342.6,657,401,590.8l28.49-28.55,29-39.58s22.45-20,34.25-63.55l-2.23-37.2,3.3-8,9.47-80.62s5-54.75-29.55-52.25c0,0-27.63,1.11-29.52,49.52,0,0-65-15.75-82.89-125C361.25,205.54,354.37,151.45,278.32,143.38Z"/><path class="cls-7" d="M127.71,199.75C98.19,254.84,112.53,311.94,122.83,370c.17,1,.36,2,.52,3,5.6,33.14,6.79,66.87,14.19,99.71C149,523.45,174,569.75,216,600.28a99.05,99.05,0,0,1,19.13,18.57C247.51,634.31,281.54,658,361,612c7.49-4.34,15-8.63,22.61-12.77,22.44-12.18,82.11-52.84,89.48-144.09a130.74,130.74,0,0,0-6.44-52"/><path class="cls-7" d="M209,532l21.74-1.93a57.05,57.05,0,0,1,19.46,1.78c5.66,1.48,13.75,2.1,21.22-2.71a59.54,59.54,0,0,1,21.75-8.82l44.25-7.84"/><path class="cls-7" d="M236.62,555.85s36.74,12.9,67.55-10.75"/><path class="cls-7" d="M138.09,380.33s25.17-16.78,57.49-8.73a32.34,32.34,0,0,1,24.25,27.77,141.06,141.06,0,0,1,.51,29c-1,10.37-6,17.82-12.1,25.86-5.1,6.67-9,15.34-3.71,23.15s18.29,9.07,25.92,4.19"/><path class="cls-7" d="M225.51,476.37a29.17,29.17,0,0,0,20.73,9A31.36,31.36,0,0,0,267.71,477a30.88,30.88,0,0,1,12.37-6.48c17.11-4.85,18.66-28.71,2.21-35.47a34.3,34.3,0,0,0-9-2.23"/><path class="cls-7" d="M251.45,357.94S281.3,317.06,341,335.23"/><path class="cls-7" d="M292,444.13S303.13,467.78,324.7,478"/><path class="cls-7" d="M350.07,501.72s-5.35,15.37,3.34,26.06"/><path class="cls-7" d="M444.23,351.46s-5.67-62.49,25.86-69.81c22.48-5.22,30.21,18.91,32.28,32.08,1.88,11.93.3,24.1-1.53,36-3.22,21-4.68,42-6.94,63.09a18.45,18.45,0,0,1-8.06,13.54c-3.6,2.36-8.29,3.59-13.6.56"/><path class="cls-7" d="M456.76,354.83s-3.49-32,10.92-50.6c6-7.73,18.32-5.49,21,3.91,2.24,7.93,3,20.21-1.19,39a17,17,0,0,1-10,12.08c-5.38,2.26-11.62,8.31-10.46,24.37"/><path class="cls-7" d="M469.55,335.57s10.07,4.2,7.95,23.67"/><path class="cls-7" d="M123.34,373c-18.26-36.52-24.56-81.1-23.46-118.66,1.75-59.76,21.94-114,75.61-145.11C224.06,81.1,284.79,75.11,339.55,83.07"/><path class="cls-7" d="M118.46,199.38c15.42,1.15,47.26.73,90.88-14.27,37.19-12.79,69.21-37,93-68.3a142.27,142.27,0,0,1,37.21-33.75,28.19,28.19,0,0,1,19.94-4c33.7,5.8,133.23,38.35,139.07,220.52"/><path class="cls-7" d="M278.32,143.38c36.95,4.21,74.94,23.46,82.93,62.16,11.1,53.77,28.41,101.39,82.89,125"/><path class="cls-7" d="M177.63,194.11s-27.34-30.27-59.18-23.59"/><path class="cls-7" d="M196.91,189.09s-13.72-32.76-66.28-39.24"/><path class="cls-7" d="M233.28,175s-17.42-45.54-69.52-58.23"/><path class="cls-7" d="M251.45,164.45s-6.6-29-31.79-43.12"/><path class="cls-7" d="M265.46,154.38s0-20.44-14-33.06"/><path class="cls-7" d="M296.23,124.47s52.94-1.57,79.93,58.59"/><path class="cls-7" d="M312.34,105.17s40.15-2.7,73.24,49.21"/><path class="cls-7" d="M330.05,89.62s28.54.23,59,27.12"/><path class="cls-7" d="M490.45,421.93l2.23,37.2s-10.15,42.59-47.47,82.11"/><path class="cls-8" d="M407.36,583.37c-59.7,71.21-99,67.89-99,67.89-14.08-1.18-30-12.42-30-12.42s-20.8,8.16-18.66,58.23c0,0,7.76,22,28.37,18.21l16.15-35.19"/><path class="cls-7" d="M492.69,459.13l17.1,34s-8.06,89.39-61.25,152.25c-28,33.06-60.77,45.83-85.59,50.52a70.22,70.22,0,0,1-58.78-15.77h0s-2.26-19.54,4.17-28.82"/><path class="cls-7" d="M448.53,645.34s-77.53,143-95.12,216.11"/><path class="cls-7" d="M253.06,633s-1.56,20.73,8.24,35.71"/><path class="cls-7" d="M259.66,697.08S223,759.75,216.1,856.87"/><path class="cls-7" d="M288,715.28s-.54,16.24-7,27.84a58.52,58.52,0,0,0-6.4,35.79c2.73,21.3,4.72,52.22-1.43,78"/><path class="cls-7" d="M281.07,743.12s1.2,21.27,14.82,37a62.85,62.85,0,0,1,15.66,41h0"/><path class="cls-7" d="M235.17,618.85s-54.7,88.38-46.68,238"/><path class="cls-7" d="M246.53,629.3s-12.33,39.66-2.59,102"/><path class="cls-7" d="M145.76,856.88l0-.18a83.45,83.45,0,0,0-.17-35.49.09.09,0,0,0,0-.07c-.27-1.32-.59-2.66-.94-4a103.83,103.83,0,0,1-3.36-26.08c0-.48,0-1,0-1.41a125.83,125.83,0,0,1,3.85-29.53q2-7.95,3.4-16a202.46,202.46,0,0,0,2.94-29.44l0-1.79a175.68,175.68,0,0,0-.53-18.51,186.29,186.29,0,0,0-3.34-23.28q-1.45-7-3.41-14-1.42-5-2.49-9.82c-15.38-68.55,20-104.22,21.82-106l.07-.07"/><path class="cls-7" d="M492.07,448.9h0a27.94,27.94,0,0,1,19.74,14.29c9.26,17.25,28.89,48.94,55.14,64.59,0,0,16.89,85.32-18.08,152.53-26.85,51.61-18.65,91.77-13.4,107.63a13.89,13.89,0,0,1-3.69,14.46c-7.91,7.45-22.49,18.18-41.33,18.79l19.33,35.68"/><path class="cls-7" d="M567,527.78s80.9,12.11,121.36,42.58a87,87,0,0,0,34.54,15.73h0s123.79,20.18,127.71,145.23"/><path class="cls-7" d="M699.35,618.85S662.41,681,684.56,765.52"/><path class="cls-7" d="M265.46,380.68s23.59-42.2,75.54-14.89"/><path class="cls-7" d="M147.56,401.77s24.49-32.13,70.29-10.45"/><circle cx="309.97" cy="369.22" r="14.39"/><circle cx="192.02" cy="396.97" r="14.39"/></g></svg>