<svg xmlns="http://www.w3.org/2000/svg" viewBox="0 0 950 950"><defs><style>.cls-1{fill:#e85f3a;}.cls-2{fill:#26262d;}.cls-3{fill:#514340;}.cls-4{fill:#fff;}.cls-5{fill:#e5b6a8;}.cls-6{fill:none;stroke:#000;stroke-linecap:round;stroke-miterlimit:10;stroke-width:5px;}</style></defs><title>alternative_stats</title><g id="pearson"><circle class="cls-1" cx="475" cy="475" r="359.11632"/><path class="cls-2" d="M180.36819,786.18015c3.9992-5.80918,9.02983-10.88087,11.27754-17.56578,7.65356-22.76237,27.046-36.62081,38.50835-43.09479a19.06271,19.06271,0,0,0,9.62152-15.299,17.96034,17.96034,0,0,1,7.09563-12.999c14.84723-11.361,24.80681-27.51,29.95-37.39788a36.51192,36.51192,0,0,0,4.13008-16.85374,36.44247,36.44247,0,0,1,6.85063-21.26915l4.64594-6.46391a42.46523,42.46523,0,0,0,5.6344-10.77665c20.8284-59.68778,84.491-75.44042,84.491-75.44042a103.8426,103.8426,0,0,0-2.50891,44.18437l5.60073,1.79909s-25.039,43.52759,4.6814,94.77237L336.82674,774.07316s87.125-49.76966,99.23617-73.09829,9.93927-66.59777,9.93927-66.59777,44.52967,4.52751,69.27767-48.77191S616.24533,439.41493,616.24533,439.41493s49.51141,12.681,96.69951,36.91264c86.9721,44.66229,100.40559,175.56492,55.20025,253.45383-33.48253,57.69036-92.60489,95.92851-156.22125,112.7359a307.45647,307.45647,0,0,1-98.45949,9.58175c-38.93316-2.5627-76.45283-14.93542-115.50347-16.81756-19.16917-.9239-38.45752.50871-56.93875,5.9115-46.75436,13.66815-81.69414,43.05258-131.05788,18.00586C182.00882,845.01454,159.5563,816.41123,180.36819,786.18015Z"/><ellipse class="cls-2" cx="483.68347" cy="672.60932" rx="12.93456" ry="7.98203" transform="translate(-294.11003 957.89911) rotate(-74.42224)"/><path class="cls-2" d="M398.12986,677.597s-40.77266-40.4916-12.921-104.64688l26.43988-.94233,24.41414,36.04968Z"/><path class="cls-2" d="M543.41433,372.33512c25.93984,10.53581,75.82245,63.37054,75.82245,63.37054s-77.64884,95.35223-103.95693,149.89953c-26.31707,54.55628-69.27767,48.77191-69.27767,48.77191l-1.53592,38.47862a59.15632,59.15632,0,0,1-18.395,40.5714c-32.85592,31.16732-88.38225,60.19694-89.24452,60.646,0,0,109.61355-213.21863,130.39026-245.05339,10.87584-16.66434,27.61047-45.60363,45.46118-67.205C538.229,430.89546,562.36442,405.54845,543.41433,372.33512Z"/><path class="cls-3" d="M246.57892,307.40871s-13.417-11.42536-24.68939-41.43788a179.42271,179.42271,0,0,1-10.65164-77.33873l.96284-12.08907A112.68173,112.68173,0,0,1,278.6788,82.29011C308.1492,69.2707,350.17519,59.94234,409.184,63.48833A99.64782,99.64782,0,0,1,491.23791,115.798c6.5082,12.22689,12.18562,27.35239,16.00408,46.02965a198.75492,198.75492,0,0,0,10.50285,34.85686c2.94405,7.26231,6.40863,14.50712,10.06348,19.47354,10.23359,13.906,0,31.38152,0,31.38152l-.00487-.00748s-22.58314-24.38529-39.9126,11.421c0,0-9.29408,11.6579-19.26906.73548-16.89786-18.50285-33.10228-78.46945-39.84714-96.6545-7.117-19.18846-24.85062-30.98975-39.354-32.78615,0,0-20.69828-4.45755-46.33969,11.443,0,0-14.69268,10.88291-45.873,13.6773,0,0-62.63394-.98009-68.31714,41.5748C224.15223,232.42486,222.729,254.7476,246.57892,307.40871Z"/><path class="cls-4" d="M416.35508,564.09468c-3.11649,5.16461-4.70631,7.91314-4.70631,7.91314l-31.58062,1.19466s-3.584-31.81416,4.994-51.30492C390.71183,538.44222,401.14894,561.27445,416.35508,564.09468Z"/><path class="cls-4" d="M551.15605,398.6025c0,6.84434-2.37135,13.967-7.61666,22.31121-8.09252,12.89816-61.79555,73.05915-115.21132,176.94415l-16.6793-25.85S459.9087,488.52076,545.2099,379.14771C549.03644,385.91113,551.15605,392.13555,551.15605,398.6025Z"/><path class="cls-5" d="M526.15443,330.22422a18.15331,18.15331,0,0,0,9.48629-16.79836l-.164-4.5822c-.30349-8.4699-.12323-16.94551.3149-25.40949.90477-17.492-3.18491-28.77312-7.98814-35.90209a19.06547,19.06547,0,0,0-27.45016-4.38176,45.22861,45.22861,0,0,0-12.46244,15.80281,11.02537,11.02537,0,0,1-19.26906.73548c-3.16692-5.17974-6.19438-10.37439-9.01965-15.389a251.97564,251.97564,0,0,1-24.23807-61.278,142.24464,142.24464,0,0,0-8.82537-24.769c-11.74932-25.226-41.86029-33.45311-66.86762-24.20386-13.53825,5.00716-25.38406,13.3694-39.17185,18.006-25.75553,8.66069-60.18336.81947-80.0616,22.30463-11.38311,12.30324-13.44922,29.79433-14.14786,45.82432a162.88847,162.88847,0,0,0,5.94132,52.17681,132.517,132.517,0,0,0,8.01664,20.62688c32.63013,67.72393,38.49076,178.85828,124.96777,208.09584a77.742,77.742,0,0,0,14.85659,3.44673s12.15149,54.84244,36.2808,59.56344c0,0,92.43368-142.80094,128.85482-184.947C545.20771,379.14639,538.11426,350.98267,526.15443,330.22422Z"/><path class="cls-6" d="M238.48592,317.66668,274.95109,296.338a26.35356,26.35356,0,0,1,13.30548-3.60549h0a30.07138,30.07138,0,0,1,27.39828,17.67692l1.89977,4.1995a60.5877,60.5877,0,0,1,5.38577,24.97229v24.0239a14.015,14.015,0,0,0,2.9128,8.72943c2.01744,2.54373,5.37871,4.90585,10.926,5.04114a20.48347,20.48347,0,0,0,14.46719-5.74144l5.99648-5.66334a14.895,14.895,0,0,1,10.22728-4.06615h0a8.11319,8.11319,0,0,0,6.35-13.16744,23.34,23.34,0,0,0-9.859-6.94077"/><path class="cls-6" d="M338.49007,275.23988l29.27156-17.38905a78.11844,78.11844,0,0,1,39.89788-10.95706h13.97913"/><path class="cls-6" d="M502.90551,260.19206a10.88923,10.88923,0,0,1,10.43973-8.0726c14.19209-.00014,12.09692,23.424,11.00807,36.07144a8.9867,8.9867,0,0,1-5.13424,7.28849c-2.96633,1.434-6.35588,4.66369-7.06473,11.92932"/><path class="cls-6" d="M502.90274,275.24337s18.45269-4.45041,16.31633,20.236"/><path class="cls-6" d="M545.20416,379.14836C539.64,355.255,525.8511,330.39017,525.8511,330.39017"/><path class="cls-6" d="M380.06578,504.57914s12.11663,55.03233,36.287,59.51431"/><path class="cls-6" d="M419.94446,401.7328c-14.37477,1.36467-29.23331,4.94125-41.52956,11.2213-5.40076,2.75833-10.74917,5.68774-16.63782,7.284-3.63153.9844-7.41874,1.331-11.00515,2.488-5.12188,1.65222-9.4241,5.66987-13.9498,8.48106"/><path class="cls-6" d="M363.83728,438.50275a61.07377,61.07377,0,0,0,23.54388-9.1908"/><path class="cls-6" d="M501.90371,321.1535c9.25379,12.31556,17.75732,12.31556,23.94739,9.23667a18.13671,18.13671,0,0,0,9.78979-16.96427l-.1642-4.58214c-.30353-8.47-.12335-16.94552.31466-25.40965.90519-17.49193-3.18459-28.77312-7.988-35.90209a19.06519,19.06519,0,0,0-27.44984-4.38171,45.23236,45.23236,0,0,0-12.46287,15.80276,11.02507,11.02507,0,0,1-19.26862.73569c-3.16726-5.17992-6.19461-10.37459-9.01986-15.38921a251.98391,251.98391,0,0,1-24.23816-61.2779,142.238,142.238,0,0,0-8.82534-24.769c-11.74922-25.22593-41.86026-33.45314-66.86778-24.20385-13.5381,5.0072-25.3838,13.36934-39.17178,18.00587-25.75542,8.66083-60.18325.81955-80.06155,22.30475-11.38305,12.30327-13.449,29.79423-14.14767,45.82421a162.892,162.892,0,0,0,5.94117,52.17685,132.5133,132.5133,0,0,0,8.01668,20.62691c32.63,67.72384,38.49078,178.8582,124.96758,208.09591a75.98382,75.98382,0,0,0,69.712-10.6568c19.23413-14.29536,40.81748-40.25209,63.38364-87.25381"/><path class="cls-6" d="M246.57892,307.40871s-13.417-11.42536-24.68939-41.43788a179.42271,179.42271,0,0,1-10.65164-77.33873l.96284-12.08907A112.68173,112.68173,0,0,1,278.6788,82.29011C308.1492,69.2707,350.17519,59.94234,409.184,63.48833A99.64782,99.64782,0,0,1,491.23791,115.798c6.5082,12.22689,12.18562,27.35239,16.00408,46.02965a198.75492,198.75492,0,0,0,10.50285,34.85686c2.94405,7.26231,6.40863,14.50712,10.06348,19.47354,10.23359,13.906,0,31.38152,0,31.38152"/><path class="cls-6" d="M336.82674,774.07316c.86227-.4491,56.3886-29.47872,89.24452-60.646a59.15632,59.15632,0,0,0,18.395-40.5714l1.53592-38.47862s42.9606,5.78437,69.27767-48.77191c26.30809-54.5473,103.95693-149.89953,103.95693-149.89953s-49.88261-52.83473-75.82245-63.37054"/><path class="cls-6" d="M361.54344,760.08368s-7.81841,40.72782-.91621,93.4595"/><ellipse class="cls-6" cx="483.68347" cy="672.60932" rx="12.93456" ry="7.98203" transform="translate(-294.11003 957.89911) rotate(-74.42224)"/><path class="cls-6" d="M411.64627,572.00654l-31.58191,1.1976s-3.58223-31.81354,4.99488-51.30783"/><path class="cls-6" d="M386.76218,572.95015s-26.27683,44.15542,3.58431,96.82545"/><path class="cls-6" d="M382.57327,529.01977s-63.66261,15.75265-84.491,75.44047a42.46519,42.46519,0,0,1-5.63438,10.7766l-4.64594,6.46392a36.44244,36.44244,0,0,0-6.85063,21.26914v0a36.5119,36.5119,0,0,1-4.13008,16.85372c-5.1432,9.88785-15.10278,26.03692-29.95,37.39789a17.96038,17.96038,0,0,0-7.09563,12.999v0a19.06269,19.06269,0,0,1-9.6215,15.299c-11.46234,6.474-30.85481,20.33242-38.50836,43.0948a44.084,44.084,0,0,1-11.27759,17.56583L143.22767,822.048"/><path class="cls-6" d="M324.2871,887.27012c-.53341-71.818,12.5319-113.18922,12.53964-113.197.55688-1.10478,51.84374-102.60066,91.499-176.21661C481.74789,493.9703,535.4443,433.81047,543.537,420.91241c5.24545-8.34422,7.61668-15.4669,7.61668-22.31113,0-6.467-2.11973-12.69148-5.946-19.45488-85.3026,109.37432-133.56139,192.86014-133.56139,192.86014l16.67946,25.85"/><path class="cls-6" d="M615.53676,440.29915A466.2175,466.2175,0,0,1,694.0314,467.7192c76.52842,34.7655,122.25689,115.27621,111.06471,198.58271q-.23247,1.73025-.494,3.47369"/><path class="cls-6" d="M644.25763,495.22408s-2.11616,22.008-15.9417,40.542c-19.90813,26.688-31.1705,58.81383-30.89547,92.10812a331.38409,331.38409,0,0,0,8.6302,73.30991,163.91744,163.91744,0,0,1,3.2592,58.02246c-2.37277,19.0183-1.27936,45.615,15.25435,70.01156"/><path class="cls-6" d="M670.16423,573.20414s-34.2,27.96139-38,66.59474"/><path class="cls-6" d="M734.13091,594.19886s-75.36669,45.6-98.8,131.73338"/><path class="cls-6" d="M760.98038,614.16219s-26.948,32.25885-59.24354,52.692a4.5746,4.5746,0,0,1-6.31527-6.30215l13.743-12.18055"/><path class="cls-6" d="M350.59613,295.47939s13.09269-40.04543,65.75667-20.23951"/><circle cx="383.47447" cy="280.42907" r="10.5383"/><circle cx="289.27767" cy="315.04086" r="10.5383"/><path class="cls-6" d="M315.65487,310.40942s-28.77648-22.91376-52.7544,15.96908"/><path class="cls-6" d="M508.83284,328.3384s2.31414,12.2893-1.33746,30.72348"/><path class="cls-6" d="M288.80931,157.2836c-2.08381-9.28732-7.3113-53.94551,71.83753-93.75345"/><path class="cls-6" d="M273.54343,159.03861s-29.63928-41.45851,42.11144-88.95245"/><path class="cls-6" d="M314.3827,153.78209s9.88021-60.43277,116.98966-86.4374"/><path class="cls-6" d="M425.84671,156.84348c8.91008-15.65551,26.19133-35.01158,59.676-50.45153"/><path class="cls-6" d="M413.63128,141.691c8.04781-16.16749,23.98177-36.18822,55.52633-53.676"/><path class="cls-6" d="M433.81369,177.43906c10.5897-15.04474,29.856-32.79305,64.82263-45.3947"/><path class="cls-6" d="M215.391,157.35545c6.88017,11.46095,15.64654,17.04772,22.71532,19.76925"/><path class="cls-6" d="M211.69939,182.86415a63.8978,63.8978,0,0,0,18.56566,9.81726"/><path class="cls-6" d="M228.89081,125.67616c4.09577,21.47581,17.28125,32.79305,26.56857,38.25407"/><path class="cls-6" d="M326.28142,836.25442s-13.33641,25.49919-33.69568,46.047"/></g></svg>